{"glyphs":{"0":{"ha":825,"x_min":97,"x_max":728,"o":"m 413 -21 q 253 22 324 -21 q 140 135 182 64 q 97 294 97 206 l 97 706 q 140 865 97 794 q 253 978 182 936 q 413 1021 324 1021 q 572 978 501 1021 q 686 865 644 936 q 728 706 728 794 l 728 294 q 686 135 728 206 q 572 22 644 64 q 413 -21 501 -21 m 413 58 q 530 89 477 58 q 615 174 583 121 q 647 292 647 228 l 647 708 q 615 826 647 772 q 530 911 583 879 q 413 942 477 942 q 295 911 348 942 q 210 826 242 879 q 178 708 178 772 l 178 292 q 210 174 178 228 q 295 89 242 121 q 413 58 348 58 z "},"1":{"ha":519,"x_min":83,"x_max":353,"o":"m 272 0 l 272 909 l 83 796 l 83 888 l 272 1000 l 353 1000 l 353 0 l 272 0 z "},"2":{"ha":780,"x_min":69,"x_max":710,"o":"m 69 0 l 71 76 l 531 494 q 610 599 592 549 q 629 707 629 649 q 598 826 629 772 q 514 911 567 879 q 394 942 460 942 q 274 910 327 942 q 189 824 220 877 q 158 707 158 770 l 78 707 q 120 866 78 795 q 234 979 163 938 q 395 1021 306 1021 q 556 978 485 1021 q 669 864 627 935 q 710 706 710 792 q 697 600 710 647 q 654 512 683 553 q 579 431 625 472 l 145 37 l 128 78 l 710 78 l 710 0 l 69 0 z "},"3":{"ha":755,"x_min":56,"x_max":672,"o":"m 360 -20 q 225 5 286 -20 q 120 78 164 31 q 56 192 76 126 l 131 216 q 220 97 159 137 q 359 58 281 56 q 482 90 431 60 q 560 175 533 121 q 588 303 588 229 q 524 480 588 414 q 356 547 461 547 q 296 539 328 547 q 236 517 263 531 l 193 581 l 599 965 l 616 922 l 96 922 l 96 1000 l 662 1000 l 662 921 l 300 575 l 299 613 q 491 598 406 633 q 623 487 575 564 q 672 303 672 410 q 632 133 672 206 q 522 20 592 60 q 360 -20 451 -20 z "},"4":{"ha":810,"x_min":69,"x_max":741,"o":"m 546 0 l 546 203 l 69 203 l 69 281 l 409 1000 l 499 1000 l 159 281 l 546 281 l 546 583 l 626 583 l 626 281 l 741 281 l 741 203 l 626 203 l 626 0 l 546 0 z "},"5":{"ha":799,"x_min":69,"x_max":729,"o":"m 392 -21 q 248 11 314 -21 q 135 100 181 43 q 69 228 89 156 l 146 249 q 199 148 161 191 q 287 82 236 106 q 393 59 338 59 q 524 94 466 59 q 615 187 581 129 q 649 314 649 245 q 613 444 649 386 q 520 535 578 501 q 393 569 462 569 q 263 535 319 569 q 173 446 207 501 l 97 483 l 127 1000 l 658 1000 l 658 922 l 157 922 l 204 966 l 175 497 l 151 530 q 260 615 195 583 q 398 646 324 646 q 565 601 490 646 q 684 482 640 557 q 729 314 729 406 q 683 147 729 223 q 561 25 638 71 q 392 -21 484 -21 z "},"6":{"ha":862,"x_min":97,"x_max":769,"o":"m 433 -21 q 264 25 340 -21 q 142 147 188 70 q 97 318 97 224 l 97 679 q 142 852 97 775 q 264 975 188 930 q 437 1021 341 1021 q 600 979 526 1021 q 719 866 675 937 l 656 819 q 564 909 622 875 q 437 942 506 942 q 304 906 363 942 q 212 811 246 870 q 178 684 178 753 l 178 449 l 154 476 q 273 598 198 551 q 438 645 347 645 q 605 600 530 645 q 725 480 681 556 q 769 313 769 405 q 723 145 769 221 q 601 24 678 69 q 433 -21 525 -21 m 433 58 q 562 92 504 58 q 654 184 620 126 q 688 313 688 242 q 654 442 688 384 q 562 534 620 500 q 433 568 504 568 q 305 534 363 568 q 212 442 247 500 q 178 313 178 384 q 212 184 178 242 q 305 92 247 126 q 433 58 363 58 z "},"7":{"ha":683,"x_min":56,"x_max":613,"o":"m 152 0 l 527 921 l 56 921 l 56 1000 l 613 1000 l 613 921 l 238 0 l 152 0 z "},"8":{"ha":791,"x_min":83,"x_max":708,"o":"m 395 -21 q 233 16 303 -21 q 123 118 163 52 q 83 276 83 185 q 131 445 83 372 q 276 555 178 519 l 276 518 q 149 609 192 542 q 106 756 106 676 q 143 898 106 839 q 246 989 181 958 q 395 1021 311 1021 q 544 989 479 1021 q 646 898 609 958 q 683 756 683 839 q 642 610 683 676 q 516 519 601 544 l 511 554 q 659 446 610 519 q 708 276 708 372 q 668 118 708 185 q 557 16 628 52 q 395 -21 487 -21 m 395 58 q 559 114 497 58 q 622 276 622 170 q 560 439 622 383 q 395 494 498 494 q 230 439 292 494 q 167 276 167 383 q 231 114 167 170 q 395 58 294 58 m 395 573 q 542 619 485 573 q 598 756 598 665 q 542 893 598 847 q 395 940 485 940 q 248 893 304 940 q 192 756 192 847 q 248 619 192 665 q 395 573 304 573 z "},"9":{"ha":862,"x_min":92,"x_max":765,"o":"m 428 1021 q 598 975 522 1021 q 719 853 674 930 q 765 681 765 776 l 765 321 q 719 147 765 224 q 597 25 674 70 q 425 -21 520 -21 q 261 21 336 -21 q 142 134 187 63 l 206 181 q 298 91 240 126 q 425 57 356 57 q 558 93 499 57 q 650 188 616 129 q 683 316 683 247 l 683 551 l 708 524 q 589 402 664 449 q 424 355 515 355 q 256 399 331 355 q 137 519 181 444 q 92 687 92 594 q 138 855 92 779 q 260 976 184 931 q 428 1021 336 1021 m 428 942 q 300 908 358 942 q 207 816 242 874 q 173 687 173 758 q 207 558 173 616 q 300 466 242 500 q 428 431 358 431 q 557 466 499 431 q 649 558 615 500 q 683 687 683 616 q 649 816 683 758 q 557 908 615 874 q 428 942 499 942 z "},"A":{"ha":863,"x_min":28,"x_max":835,"o":"m 28 0 l 382 1000 l 481 1000 l 835 0 l 751 0 l 410 958 l 451 958 l 113 0 l 28 0 m 174 251 l 174 327 l 688 327 l 688 251 l 174 251 z "},"Á":{"ha":863,"x_min":28,"x_max":835,"o":"m 476 1122 l 401 1122 l 476 1323 l 551 1323 l 476 1122 m 28 0 l 382 1000 l 481 1000 l 835 0 l 751 0 l 410 958 l 451 958 l 113 0 l 28 0 m 174 251 l 174 327 l 688 327 l 688 251 l 174 251 z "},"Ă":{"ha":863,"x_min":28,"x_max":835,"o":"m 432 1090 q 347 1113 385 1090 q 286 1174 309 1136 q 263 1259 263 1213 l 333 1259 q 362 1189 333 1219 q 432 1160 392 1160 q 502 1189 474 1160 q 531 1259 531 1219 l 601 1259 q 578 1174 601 1213 q 517 1113 556 1136 q 432 1090 479 1090 m 28 0 l 382 1000 l 481 1000 l 835 0 l 751 0 l 410 958 l 451 958 l 113 0 l 28 0 m 174 251 l 174 327 l 688 327 l 688 251 l 174 251 z "},"Ắ":{"ha":863,"x_min":28,"x_max":835,"o":"m 431 1090 q 347 1113 385 1090 q 285 1174 308 1136 q 263 1259 263 1213 l 332 1259 q 361 1189 332 1219 q 431 1160 391 1160 q 502 1189 473 1160 q 531 1259 531 1219 l 600 1259 q 577 1174 600 1213 q 517 1113 555 1136 q 431 1090 478 1090 m 466 1288 l 392 1288 l 467 1490 l 541 1490 l 466 1288 m 28 0 l 382 1000 l 481 1000 l 835 0 l 751 0 l 410 958 l 451 958 l 113 0 l 28 0 m 174 251 l 174 327 l 688 327 l 688 251 l 174 251 z "},"Ặ":{"ha":863,"x_min":28,"x_max":835,"o":"m 381 -265 l 381 -163 l 482 -163 l 482 -265 l 381 -265 m 432 1090 q 347 1113 385 1090 q 286 1174 309 1136 q 263 1259 263 1213 l 333 1259 q 362 1189 333 1219 q 432 1160 392 1160 q 502 1189 474 1160 q 531 1259 531 1219 l 601 1259 q 578 1174 601 1213 q 517 1113 556 1136 q 432 1090 478 1090 m 28 0 l 382 1000 l 481 1000 l 835 0 l 751 0 l 410 958 l 451 958 l 113 0 l 28 0 m 174 251 l 174 327 l 688 327 l 688 251 l 174 251 z "},"Ằ":{"ha":863,"x_min":28,"x_max":835,"o":"m 431 1090 q 347 1113 385 1090 q 285 1174 308 1136 q 263 1259 263 1213 l 332 1259 q 361 1189 332 1219 q 431 1160 390 1160 q 502 1189 473 1160 q 531 1259 531 1219 l 600 1259 q 577 1174 600 1213 q 517 1113 555 1136 q 431 1090 478 1090 m 397 1288 l 322 1490 l 397 1490 l 472 1288 l 397 1288 m 28 0 l 382 1000 l 481 1000 l 835 0 l 751 0 l 410 958 l 451 958 l 113 0 l 28 0 m 174 251 l 174 327 l 688 327 l 688 251 l 174 251 z "},"Ẳ":{"ha":863,"x_min":28,"x_max":835,"o":"m 431 1090 q 347 1113 385 1090 q 285 1174 308 1136 q 263 1259 263 1213 l 332 1259 q 361 1189 332 1219 q 431 1160 391 1160 q 502 1189 473 1160 q 531 1259 531 1219 l 600 1259 q 577 1174 600 1213 q 517 1113 555 1136 q 431 1090 478 1090 m 340 1424 l 310 1468 q 368 1507 334 1495 q 437 1510 403 1519 q 495 1464 471 1501 q 514 1408 513 1436 q 504 1353 515 1379 q 471 1307 492 1327 q 423 1274 449 1286 l 388 1315 q 446 1368 431 1336 q 444 1428 461 1399 q 414 1452 432 1448 q 376 1448 396 1456 q 340 1424 356 1440 m 28 0 l 382 1000 l 481 1000 l 835 0 l 751 0 l 410 958 l 451 958 l 113 0 l 28 0 m 174 251 l 174 327 l 688 327 l 688 251 l 174 251 z "},"Ẵ":{"ha":863,"x_min":28,"x_max":835,"o":"m 523 1297 q 468 1307 495 1297 q 416 1333 441 1318 q 367 1358 390 1347 q 323 1369 344 1369 q 288 1348 295 1369 q 288 1306 280 1327 l 226 1306 q 239 1399 212 1360 q 322 1438 267 1438 q 377 1427 350 1438 q 430 1401 404 1416 q 479 1376 456 1387 q 522 1365 502 1365 q 557 1385 548 1365 q 558 1431 567 1406 l 619 1431 q 606 1337 633 1377 q 523 1297 579 1297 m 422 1090 q 336 1113 374 1090 q 275 1174 298 1136 q 252 1259 252 1213 l 322 1259 q 351 1189 322 1219 q 422 1160 381 1160 q 492 1189 463 1160 q 521 1259 521 1219 l 590 1259 q 567 1174 590 1213 q 506 1113 544 1136 q 422 1090 468 1090 m 28 0 l 382 1000 l 481 1000 l 835 0 l 751 0 l 410 958 l 451 958 l 113 0 l 28 0 m 174 251 l 174 327 l 688 327 l 688 251 l 174 251 z "},"Â":{"ha":863,"x_min":28,"x_max":835,"o":"m 243 1122 l 392 1299 l 472 1299 l 620 1122 l 533 1122 l 432 1241 l 330 1122 l 243 1122 m 28 0 l 382 1000 l 481 1000 l 835 0 l 751 0 l 410 958 l 451 958 l 113 0 l 28 0 m 174 251 l 174 327 l 688 327 l 688 251 l 174 251 z "},"Ấ":{"ha":863,"x_min":28,"x_max":835,"o":"m 242 1122 l 392 1299 l 471 1299 l 619 1122 l 533 1122 l 431 1241 l 329 1122 l 242 1122 m 674 1267 l 599 1267 l 674 1469 l 748 1469 l 674 1267 m 28 0 l 382 1000 l 481 1000 l 835 0 l 751 0 l 410 958 l 451 958 l 113 0 l 28 0 m 174 251 l 174 327 l 688 327 l 688 251 l 174 251 z "},"Ậ":{"ha":863,"x_min":28,"x_max":835,"o":"m 381 -265 l 381 -163 l 482 -163 l 482 -265 l 381 -265 m 243 1122 l 392 1299 l 472 1299 l 620 1122 l 533 1122 l 432 1241 l 330 1122 l 243 1122 m 28 0 l 382 1000 l 481 1000 l 835 0 l 751 0 l 410 958 l 451 958 l 113 0 l 28 0 m 174 251 l 174 327 l 688 327 l 688 251 l 174 251 z "},"Ầ":{"ha":863,"x_min":28,"x_max":835,"o":"m 242 1122 l 392 1299 l 471 1299 l 619 1122 l 533 1122 l 431 1241 l 329 1122 l 242 1122 m 593 1267 l 518 1469 l 592 1469 l 667 1267 l 593 1267 m 28 0 l 382 1000 l 481 1000 l 835 0 l 751 0 l 410 958 l 451 958 l 113 0 l 28 0 m 174 251 l 174 327 l 688 327 l 688 251 l 174 251 z "},"Ẩ":{"ha":863,"x_min":28,"x_max":835,"o":"m 243 1122 l 392 1299 l 472 1299 l 620 1122 l 533 1122 l 432 1241 l 330 1122 l 243 1122 m 625 1267 l 596 1310 q 655 1349 620 1337 q 723 1352 689 1360 q 781 1306 757 1343 q 800 1250 799 1278 q 790 1195 801 1222 q 757 1148 778 1169 q 709 1116 735 1128 l 674 1156 q 732 1210 717 1178 q 730 1270 747 1242 q 700 1293 718 1290 q 662 1290 681 1297 q 625 1267 642 1283 m 28 0 l 382 1000 l 481 1000 l 835 0 l 751 0 l 410 958 l 451 958 l 113 0 l 28 0 m 174 251 l 174 327 l 688 327 l 688 251 l 174 251 z "},"Ẫ":{"ha":863,"x_min":28,"x_max":835,"o":"m 240 1122 l 390 1299 l 469 1299 l 618 1122 l 531 1122 l 429 1241 l 328 1122 l 240 1122 m 534 1333 q 479 1344 506 1333 q 426 1370 452 1356 q 378 1395 401 1384 q 334 1406 355 1406 q 298 1385 306 1406 q 298 1342 291 1364 l 237 1342 q 250 1436 223 1398 q 332 1475 278 1475 q 388 1464 361 1475 q 441 1439 415 1453 q 489 1413 466 1424 q 533 1402 513 1402 q 568 1422 559 1402 q 569 1468 578 1442 l 631 1468 q 617 1374 644 1414 q 534 1333 590 1333 m 28 0 l 382 1000 l 481 1000 l 835 0 l 751 0 l 410 958 l 451 958 l 113 0 l 28 0 m 174 251 l 174 327 l 688 327 l 688 251 l 174 251 z "},"Ä":{"ha":863,"x_min":28,"x_max":835,"o":"m 513 1156 l 513 1253 l 610 1253 l 610 1156 l 513 1156 m 255 1156 l 255 1253 l 352 1253 l 352 1156 l 255 1156 m 28 0 l 382 1000 l 481 1000 l 835 0 l 751 0 l 410 958 l 451 958 l 113 0 l 28 0 m 174 251 l 174 327 l 688 327 l 688 251 l 174 251 z "},"Ạ":{"ha":863,"x_min":28,"x_max":835,"o":"m 381 -265 l 381 -163 l 482 -163 l 482 -265 l 381 -265 m 28 0 l 382 1000 l 481 1000 l 835 0 l 751 0 l 410 958 l 451 958 l 113 0 l 28 0 m 174 251 l 174 327 l 688 327 l 688 251 l 174 251 z "},"À":{"ha":863,"x_min":28,"x_max":835,"o":"m 387 1122 l 313 1323 l 387 1323 l 461 1122 l 387 1122 m 835 0 l 751 0 l 412 958 l 453 958 l 113 0 l 28 0 l 382 1000 l 481 1000 l 835 0 m 689 251 l 175 251 l 175 327 l 689 327 l 689 251 z "},"Ả":{"ha":863,"x_min":28,"x_max":835,"o":"m 358 1267 l 328 1310 q 386 1349 352 1337 q 455 1352 421 1360 q 513 1306 489 1343 q 532 1250 531 1278 q 522 1195 533 1222 q 489 1148 510 1169 q 441 1116 467 1128 l 406 1156 q 464 1210 449 1178 q 462 1270 479 1242 q 432 1293 450 1290 q 394 1290 414 1297 q 358 1267 374 1283 m 28 0 l 382 1000 l 481 1000 l 835 0 l 751 0 l 410 958 l 451 958 l 113 0 l 28 0 m 174 251 l 174 327 l 688 327 l 688 251 l 174 251 z "},"Ā":{"ha":863,"x_min":28,"x_max":835,"o":"m 262 1167 l 262 1240 l 603 1240 l 603 1167 l 262 1167 m 28 0 l 382 1000 l 481 1000 l 835 0 l 751 0 l 410 958 l 451 958 l 113 0 l 28 0 m 174 251 l 174 327 l 688 327 l 688 251 l 174 251 z "},"Ą":{"ha":863,"x_min":28,"x_max":842,"o":"m 729 -335 q 666 -317 694 -335 q 619 -269 637 -299 q 601 -205 601 -240 q 627 -116 601 -162 q 694 -26 652 -70 q 786 53 735 17 l 835 0 q 757 -61 793 -26 q 699 -134 721 -97 q 676 -203 676 -171 q 694 -249 676 -231 q 733 -266 711 -266 q 769 -256 751 -266 q 801 -229 787 -245 l 842 -276 q 789 -320 818 -306 q 729 -335 760 -335 m 28 0 l 382 1000 l 481 1000 l 835 0 l 751 0 l 410 958 l 451 958 l 113 0 l 28 0 m 174 251 l 174 327 l 688 327 l 688 251 l 174 251 z "},"Å":{"ha":863,"x_min":28,"x_max":835,"o":"m 432 1082 q 360 1101 393 1082 q 308 1153 328 1121 q 289 1226 289 1186 q 308 1298 289 1265 q 360 1350 328 1330 q 432 1369 393 1369 q 505 1350 472 1369 q 557 1298 538 1330 q 576 1226 576 1265 q 557 1153 576 1186 q 505 1101 538 1121 q 432 1082 472 1082 m 432 1149 q 486 1172 465 1149 q 508 1226 508 1194 q 486 1280 508 1258 q 432 1302 465 1302 q 378 1280 401 1302 q 356 1226 356 1258 q 378 1172 356 1194 q 432 1149 401 1149 m 28 0 l 382 1000 l 481 1000 l 835 0 l 751 0 l 410 958 l 451 958 l 113 0 l 28 0 m 174 251 l 174 327 l 688 327 l 688 251 l 174 251 z "},"Ã":{"ha":863,"x_min":28,"x_max":835,"o":"m 532 1157 q 477 1168 503 1157 q 425 1193 450 1179 q 376 1219 399 1208 q 332 1230 353 1230 q 296 1209 303 1230 q 296 1166 289 1188 l 235 1166 q 248 1260 221 1222 q 330 1299 276 1299 q 386 1288 359 1299 q 439 1262 413 1276 q 488 1237 465 1248 q 531 1226 510 1226 q 566 1246 557 1226 q 567 1292 576 1266 l 628 1292 q 615 1197 642 1238 q 532 1157 588 1157 m 28 0 l 382 1000 l 481 1000 l 835 0 l 751 0 l 410 958 l 451 958 l 113 0 l 28 0 m 174 251 l 174 327 l 688 327 l 688 251 l 174 251 z "},"Æ":{"ha":1266,"x_min":28,"x_max":1197,"o":"m 28 0 l 382 1000 l 613 1000 l 613 922 l 399 922 l 450 956 l 113 0 l 28 0 m 174 251 l 174 327 l 630 327 l 630 251 l 174 251 m 578 0 l 578 1000 l 1197 1000 l 1197 922 l 659 922 l 659 542 l 1113 542 l 1113 465 l 659 465 l 659 78 l 1197 78 l 1197 0 l 578 0 z "},"B":{"ha":843,"x_min":97,"x_max":803,"o":"m 97 0 l 97 1000 l 480 1000 q 620 967 558 1000 q 718 877 682 934 q 753 749 753 820 q 709 604 753 668 q 591 514 665 540 l 588 547 q 745 448 687 517 q 803 275 803 378 q 765 127 803 189 q 660 33 727 66 q 509 0 594 0 l 97 0 m 178 78 l 483 78 q 602 101 549 78 q 686 167 656 124 q 717 272 717 210 q 689 381 717 332 q 613 459 661 430 q 506 488 565 488 l 178 488 l 178 78 m 178 565 l 479 565 q 575 589 531 565 q 644 655 618 613 q 669 751 669 697 q 615 876 669 828 q 479 923 560 923 l 178 923 l 178 565 z "},"C":{"ha":983,"x_min":42,"x_max":927,"o":"m 497 -21 q 246 45 347 -21 q 93 229 144 112 q 42 500 42 347 q 93 771 42 653 q 246 955 144 888 q 497 1021 347 1021 q 780 931 671 1021 q 927 689 888 840 l 844 669 q 725 868 813 794 q 497 942 638 942 q 292 886 374 942 q 169 730 210 830 q 127 500 128 630 q 167 270 126 370 q 291 114 208 171 q 497 58 374 58 q 725 132 638 58 q 844 331 813 206 l 927 311 q 780 69 888 160 q 497 -21 671 -21 z "},"Ć":{"ha":983,"x_min":42,"x_max":927,"o":"m 540 1122 l 466 1122 l 541 1323 l 615 1323 l 540 1122 m 497 -21 q 246 45 347 -21 q 93 229 144 112 q 42 500 42 347 q 93 771 42 653 q 246 955 144 888 q 497 1021 347 1021 q 780 931 671 1021 q 927 689 888 840 l 844 669 q 725 868 813 794 q 497 942 638 942 q 292 886 374 942 q 169 730 210 830 q 127 500 128 630 q 167 270 126 370 q 291 114 208 171 q 497 58 374 58 q 725 132 638 58 q 844 331 813 206 l 927 311 q 780 69 888 160 q 497 -21 671 -21 z "},"Č":{"ha":983,"x_min":42,"x_max":927,"o":"m 342 1299 l 429 1299 l 531 1179 l 633 1299 l 719 1299 l 570 1122 l 491 1122 l 342 1299 m 497 -21 q 246 45 347 -21 q 93 229 144 112 q 42 500 42 347 q 93 771 42 653 q 246 955 144 888 q 497 1021 347 1021 q 780 931 671 1021 q 927 689 888 840 l 844 669 q 725 868 813 794 q 497 942 638 942 q 292 886 374 942 q 169 730 210 830 q 127 500 128 630 q 167 270 126 370 q 291 114 208 171 q 497 58 374 58 q 725 132 638 58 q 844 331 813 206 l 927 311 q 780 69 888 160 q 497 -21 671 -21 z "},"Ç":{"ha":983,"x_min":42,"x_max":927,"o":"m 488 -333 q 442 -327 464 -333 q 402 -312 421 -321 l 425 -251 q 481 -264 458 -264 q 526 -245 510 -264 q 542 -204 542 -227 q 514 -156 542 -171 q 450 -131 485 -142 l 502 12 l 569 13 l 531 -90 q 591 -134 567 -106 q 615 -208 615 -162 q 577 -297 615 -260 q 488 -333 540 -333 m 497 -21 q 246 45 347 -21 q 93 229 144 112 q 42 500 42 347 q 93 771 42 653 q 246 955 144 888 q 497 1021 347 1021 q 780 931 671 1021 q 927 689 888 840 l 844 669 q 725 868 813 794 q 497 942 638 942 q 292 886 374 942 q 169 730 210 830 q 127 500 128 630 q 167 270 126 370 q 291 114 208 171 q 497 58 374 58 q 725 132 638 58 q 844 331 813 206 l 927 311 q 780 69 888 160 q 497 -21 671 -21 z "},"Ĉ":{"ha":983,"x_min":42,"x_max":927,"o":"m 308 1122 l 457 1299 l 536 1299 l 685 1122 l 599 1122 l 497 1241 l 394 1122 l 308 1122 m 497 -21 q 246 45 347 -21 q 93 229 144 112 q 42 500 42 347 q 93 771 42 653 q 246 955 144 888 q 497 1021 347 1021 q 780 931 671 1021 q 927 689 888 840 l 844 669 q 725 868 813 794 q 497 942 638 942 q 292 886 374 942 q 169 730 210 830 q 127 500 128 630 q 167 270 126 370 q 291 114 208 171 q 497 58 374 58 q 725 132 638 58 q 844 331 813 206 l 927 311 q 780 69 888 160 q 497 -21 671 -21 z "},"Ċ":{"ha":983,"x_min":42,"x_max":927,"o":"m 458 1163 l 458 1264 l 559 1264 l 559 1163 l 458 1163 m 497 -21 q 246 45 347 -21 q 93 229 144 112 q 42 500 42 347 q 93 771 42 653 q 246 955 144 888 q 497 1021 347 1021 q 780 931 671 1021 q 927 689 888 840 l 844 669 q 725 868 813 794 q 497 942 638 942 q 292 886 374 942 q 169 730 210 830 q 127 500 128 630 q 167 270 126 370 q 291 114 208 171 q 497 58 374 58 q 725 132 638 58 q 844 331 813 206 l 927 311 q 780 69 888 160 q 497 -21 671 -21 z "},"D":{"ha":919,"x_min":97,"x_max":861,"o":"m 97 0 l 97 1000 l 395 1000 q 452 999 413 1000 q 526 993 491 999 q 713 909 639 978 q 824 734 788 840 q 861 500 861 628 q 824 266 861 372 q 713 91 788 160 q 526 7 639 22 q 451 1 491 2 q 395 0 411 0 l 97 0 m 181 78 l 395 78 q 460 80 426 78 q 517 86 493 82 q 667 160 610 103 q 750 305 724 217 q 776 500 776 393 q 749 695 776 608 q 666 841 723 783 q 517 914 609 898 q 459 920 493 918 q 395 922 424 922 l 181 922 l 181 78 z "},"Ð":{"ha":907,"x_min":14,"x_max":849,"o":"m 14 464 l 14 537 l 441 537 l 441 464 l 14 464 m 85 0 l 85 1000 l 383 1000 q 440 999 401 1000 q 515 993 479 999 q 701 909 627 978 q 813 734 776 840 q 849 500 849 628 q 813 266 849 372 q 701 91 776 160 q 515 7 627 22 q 439 1 479 2 q 383 0 399 0 l 85 0 m 169 78 l 383 78 q 448 80 415 78 q 505 86 481 82 q 655 160 598 103 q 738 305 712 217 q 764 500 764 393 q 738 695 764 608 q 654 841 711 783 q 505 914 597 898 q 447 920 481 918 q 383 922 413 922 l 169 922 l 169 78 z "},"Ď":{"ha":919,"x_min":97,"x_max":861,"o":"m 213 1299 l 300 1299 l 402 1179 l 503 1299 l 590 1299 l 442 1122 l 363 1122 l 213 1299 m 97 0 l 97 1000 l 395 1000 q 452 999 413 1000 q 526 993 491 999 q 713 909 639 978 q 824 734 788 840 q 861 500 861 628 q 824 266 861 372 q 713 91 788 160 q 526 7 639 22 q 451 1 491 2 q 395 0 411 0 l 97 0 m 181 78 l 395 78 q 460 80 426 78 q 517 86 493 82 q 667 160 610 103 q 750 305 724 217 q 776 500 776 393 q 749 695 776 608 q 666 841 723 783 q 517 914 609 898 q 459 920 493 918 q 395 922 424 922 l 181 922 l 181 78 z "},"Đ":{"ha":907,"x_min":14,"x_max":849,"o":"m 14 464 l 14 537 l 441 537 l 441 464 l 14 464 m 85 0 l 85 1000 l 383 1000 q 440 999 401 1000 q 515 993 479 999 q 701 909 627 978 q 813 734 776 840 q 849 500 849 628 q 813 266 849 372 q 701 91 776 160 q 515 7 627 22 q 439 1 479 2 q 383 0 399 0 l 85 0 m 169 78 l 383 78 q 448 80 415 78 q 505 86 481 82 q 655 160 598 103 q 738 305 712 217 q 764 500 764 393 q 738 695 764 608 q 654 841 711 783 q 505 914 597 898 q 447 920 481 918 q 383 922 413 922 l 169 922 l 169 78 z "},"E":{"ha":785,"x_min":97,"x_max":715,"o":"m 97 0 l 97 1000 l 715 1000 l 715 922 l 177 922 l 177 542 l 632 542 l 632 465 l 177 465 l 177 78 l 715 78 l 715 0 l 97 0 z "},"É":{"ha":785,"x_min":97,"x_max":715,"o":"m 460 1122 l 385 1122 l 460 1323 l 534 1323 l 460 1122 m 97 0 l 97 1000 l 715 1000 l 715 922 l 177 922 l 177 542 l 632 542 l 632 465 l 177 465 l 177 78 l 715 78 l 715 0 l 97 0 z "},"Ě":{"ha":785,"x_min":97,"x_max":715,"o":"m 222 1299 l 308 1299 l 410 1179 l 513 1299 l 599 1299 l 450 1122 l 371 1122 l 222 1299 m 97 0 l 97 1000 l 715 1000 l 715 922 l 177 922 l 177 542 l 632 542 l 632 465 l 177 465 l 177 78 l 715 78 l 715 0 l 97 0 z "},"Ê":{"ha":785,"x_min":97,"x_max":715,"o":"m 210 1122 l 359 1299 l 438 1299 l 588 1122 l 501 1122 l 399 1241 l 297 1122 l 210 1122 m 97 0 l 97 1000 l 715 1000 l 715 922 l 177 922 l 177 542 l 632 542 l 632 465 l 177 465 l 177 78 l 715 78 l 715 0 l 97 0 z "},"Ế":{"ha":785,"x_min":97,"x_max":715,"o":"m 210 1122 l 358 1299 l 438 1299 l 587 1122 l 500 1122 l 398 1241 l 297 1122 l 210 1122 m 640 1267 l 566 1267 l 641 1469 l 715 1469 l 640 1267 m 97 0 l 97 1000 l 715 1000 l 715 922 l 177 922 l 177 542 l 632 542 l 632 465 l 177 465 l 177 78 l 715 78 l 715 0 l 97 0 z "},"Ệ":{"ha":785,"x_min":97,"x_max":715,"o":"m 356 -265 l 356 -163 l 457 -163 l 457 -265 l 356 -265 m 210 1122 l 359 1299 l 438 1299 l 588 1122 l 501 1122 l 399 1241 l 297 1122 l 210 1122 m 97 0 l 97 1000 l 715 1000 l 715 922 l 177 922 l 177 542 l 632 542 l 632 465 l 177 465 l 177 78 l 715 78 l 715 0 l 97 0 z "},"Ề":{"ha":785,"x_min":97,"x_max":715,"o":"m 242 1122 l 390 1299 l 470 1299 l 619 1122 l 532 1122 l 431 1241 l 328 1122 l 242 1122 m 592 1267 l 517 1469 l 592 1469 l 667 1267 l 592 1267 m 97 0 l 97 1000 l 715 1000 l 715 922 l 177 922 l 177 542 l 632 542 l 632 465 l 177 465 l 177 78 l 715 78 l 715 0 l 97 0 z "},"Ể":{"ha":833,"x_min":97,"x_max":781,"o":"m 222 1122 l 372 1299 l 451 1299 l 600 1122 l 513 1122 l 411 1241 l 309 1122 l 222 1122 m 605 1267 l 575 1310 q 634 1349 599 1337 q 702 1352 668 1360 q 760 1306 736 1343 q 779 1250 778 1278 q 769 1195 781 1222 q 736 1148 758 1169 q 688 1116 715 1128 l 653 1156 q 711 1210 697 1178 q 709 1270 726 1242 q 679 1293 697 1290 q 641 1290 661 1297 q 605 1267 622 1283 m 97 0 l 97 1000 l 715 1000 l 715 922 l 177 922 l 177 542 l 632 542 l 632 465 l 177 465 l 177 78 l 715 78 l 715 0 l 97 0 z "},"Ễ":{"ha":785,"x_min":97,"x_max":715,"o":"m 214 1122 l 363 1299 l 442 1299 l 592 1122 l 505 1122 l 403 1241 l 301 1122 l 214 1122 m 508 1333 q 452 1344 479 1333 q 400 1370 426 1356 q 351 1395 374 1384 q 308 1406 328 1406 q 272 1385 279 1406 q 272 1342 265 1364 l 210 1342 q 224 1436 197 1398 q 306 1475 251 1475 q 362 1464 335 1475 q 414 1439 389 1453 q 463 1413 440 1424 q 507 1402 486 1402 q 542 1422 533 1402 q 543 1468 551 1442 l 604 1468 q 591 1374 618 1414 q 508 1333 564 1333 m 97 0 l 97 1000 l 715 1000 l 715 922 l 177 922 l 177 542 l 632 542 l 632 465 l 177 465 l 177 78 l 715 78 l 715 0 l 97 0 z "},"Ë":{"ha":785,"x_min":97,"x_max":715,"o":"m 469 1156 l 469 1253 l 566 1253 l 566 1156 l 469 1156 m 211 1156 l 211 1253 l 308 1253 l 308 1156 l 211 1156 m 97 0 l 97 1000 l 715 1000 l 715 922 l 177 922 l 177 542 l 632 542 l 632 465 l 177 465 l 177 78 l 715 78 l 715 0 l 97 0 z "},"Ė":{"ha":785,"x_min":97,"x_max":715,"o":"m 361 1163 l 361 1264 l 463 1264 l 463 1163 l 361 1163 m 97 0 l 97 1000 l 715 1000 l 715 922 l 177 922 l 177 542 l 632 542 l 632 465 l 177 465 l 177 78 l 715 78 l 715 0 l 97 0 z "},"Ẹ":{"ha":833,"x_min":97,"x_max":715,"o":"m 356 -265 l 356 -163 l 457 -163 l 457 -265 l 356 -265 m 97 0 l 97 1000 l 715 1000 l 715 922 l 177 922 l 177 542 l 632 542 l 632 465 l 177 465 l 177 78 l 715 78 l 715 0 l 97 0 z "},"È":{"ha":785,"x_min":97,"x_max":715,"o":"m 393 1122 l 318 1323 l 392 1323 l 467 1122 l 393 1122 m 97 0 l 97 1000 l 715 1000 l 715 922 l 177 922 l 177 542 l 632 542 l 632 465 l 177 465 l 177 78 l 715 78 l 715 0 l 97 0 z "},"Ẻ":{"ha":785,"x_min":97,"x_max":715,"o":"m 336 1267 l 306 1310 q 365 1349 331 1337 q 433 1352 399 1360 q 492 1306 467 1343 q 510 1250 509 1278 q 500 1195 512 1222 q 468 1148 489 1169 q 419 1116 447 1128 l 385 1156 q 443 1210 428 1178 q 440 1270 458 1242 q 410 1293 428 1290 q 373 1290 392 1297 q 336 1267 353 1283 m 97 0 l 97 1000 l 715 1000 l 715 922 l 177 922 l 177 542 l 632 542 l 632 465 l 177 465 l 177 78 l 715 78 l 715 0 l 97 0 z "},"Ē":{"ha":785,"x_min":97,"x_max":715,"o":"m 237 1167 l 237 1240 l 578 1240 l 578 1167 l 237 1167 m 97 0 l 97 1000 l 715 1000 l 715 922 l 177 922 l 177 542 l 632 542 l 632 465 l 177 465 l 177 78 l 715 78 l 715 0 l 97 0 z "},"Ę":{"ha":785,"x_min":97,"x_max":722,"o":"m 609 -335 q 545 -317 574 -335 q 499 -269 517 -299 q 482 -205 482 -240 q 507 -116 482 -162 q 574 -26 532 -70 q 666 53 615 17 l 715 0 q 637 -61 673 -26 q 579 -134 601 -97 q 557 -203 557 -171 q 574 -249 557 -231 q 614 -266 592 -266 q 649 -256 631 -266 q 682 -229 667 -245 l 722 -276 q 669 -320 699 -306 q 609 -335 640 -335 m 97 0 l 97 1000 l 715 1000 l 715 922 l 177 922 l 177 542 l 632 542 l 632 465 l 177 465 l 177 78 l 715 78 l 715 0 l 97 0 z "},"Ẽ":{"ha":785,"x_min":97,"x_max":715,"o":"m 504 1122 q 449 1133 476 1122 q 397 1159 422 1144 q 348 1184 372 1173 q 304 1195 325 1195 q 268 1174 276 1195 q 269 1131 261 1153 l 207 1131 q 220 1225 193 1187 q 302 1264 248 1264 q 358 1253 331 1264 q 411 1227 385 1242 q 460 1202 437 1213 q 503 1191 483 1191 q 539 1211 529 1191 q 540 1257 548 1231 l 601 1257 q 588 1163 615 1203 q 504 1122 560 1122 m 97 0 l 97 1000 l 715 1000 l 715 922 l 177 922 l 177 542 l 632 542 l 632 465 l 177 465 l 177 78 l 715 78 l 715 0 l 97 0 z "},"F":{"ha":690,"x_min":97,"x_max":662,"o":"m 97 0 l 97 1000 l 662 1000 l 662 920 l 177 920 l 177 540 l 578 540 l 578 460 l 177 460 l 177 0 l 97 0 z "},"G":{"ha":967,"x_min":42,"x_max":925,"o":"m 494 -21 q 301 17 385 -21 q 159 123 217 54 q 72 288 101 192 q 42 500 42 383 q 94 772 42 655 q 247 954 147 889 q 494 1019 348 1019 q 743 949 646 1019 q 881 763 841 878 l 801 738 q 689 886 767 831 q 497 942 610 941 q 292 886 374 942 q 169 730 210 830 q 127 500 128 630 q 167 270 126 370 q 291 114 208 171 q 497 58 374 58 q 689 103 614 57 q 800 234 763 150 q 839 432 836 319 l 590 432 l 590 505 l 922 505 q 925 471 924 488 q 925 445 925 454 q 879 207 925 313 q 737 40 833 101 q 494 -21 642 -21 z "},"Ğ":{"ha":967,"x_min":42,"x_max":925,"o":"m 498 1090 q 413 1113 451 1090 q 352 1174 375 1136 q 329 1259 329 1213 l 399 1259 q 428 1189 399 1219 q 498 1160 458 1160 q 568 1189 540 1160 q 597 1259 597 1219 l 667 1259 q 644 1174 667 1213 q 583 1113 622 1136 q 498 1090 544 1090 m 494 -21 q 301 17 385 -21 q 159 123 217 54 q 72 288 101 192 q 42 500 42 383 q 94 772 42 655 q 247 954 147 889 q 494 1019 348 1019 q 743 949 646 1019 q 881 763 841 878 l 801 738 q 689 886 767 831 q 497 942 610 941 q 292 886 374 942 q 169 730 210 830 q 127 500 128 630 q 167 270 126 370 q 291 114 208 171 q 497 58 374 58 q 689 103 614 57 q 800 234 763 150 q 839 432 836 319 l 590 432 l 590 505 l 922 505 q 925 471 924 488 q 925 445 925 454 q 879 207 925 313 q 737 40 833 101 q 494 -21 642 -21 z "},"Ĝ":{"ha":967,"x_min":42,"x_max":925,"o":"m 294 1122 l 442 1299 l 522 1299 l 671 1122 l 584 1122 l 483 1241 l 381 1122 l 294 1122 m 494 -21 q 301 17 385 -21 q 159 123 217 54 q 72 288 101 192 q 42 500 42 383 q 94 772 42 655 q 247 954 147 889 q 494 1019 348 1019 q 743 949 646 1019 q 881 763 841 878 l 801 738 q 689 886 767 831 q 497 942 610 941 q 292 886 374 942 q 169 730 210 830 q 127 500 128 630 q 167 270 126 370 q 291 114 208 171 q 497 58 374 58 q 689 103 614 57 q 800 234 763 150 q 839 432 836 319 l 590 432 l 590 505 l 922 505 q 925 471 924 488 q 925 445 925 454 q 879 207 925 313 q 737 40 833 101 q 494 -21 642 -21 z "},"Ģ":{"ha":967,"x_min":42,"x_max":925,"o":"m 451 -368 l 451 -320 q 472 -315 458 -320 q 495 -297 485 -310 q 503 -262 505 -285 l 451 -262 l 451 -163 l 549 -163 l 549 -262 q 517 -343 549 -318 q 451 -368 485 -368 m 494 -21 q 301 17 385 -21 q 159 123 217 54 q 72 288 101 192 q 42 500 42 383 q 94 772 42 655 q 247 954 147 889 q 494 1019 348 1019 q 743 949 646 1019 q 881 763 841 878 l 801 738 q 689 886 767 831 q 497 942 610 941 q 292 886 374 942 q 169 730 210 830 q 127 500 128 630 q 167 270 126 370 q 291 114 208 171 q 497 58 374 58 q 689 103 614 57 q 800 234 763 150 q 839 432 836 319 l 590 432 l 590 505 l 922 505 q 925 471 924 488 q 925 445 925 454 q 879 207 925 313 q 737 40 833 101 q 494 -21 642 -21 z "},"Ġ":{"ha":967,"x_min":42,"x_max":925,"o":"m 458 1163 l 458 1264 l 559 1264 l 559 1163 l 458 1163 m 494 -21 q 301 17 385 -21 q 159 123 217 54 q 72 288 101 192 q 42 500 42 383 q 94 772 42 655 q 247 954 147 889 q 494 1019 348 1019 q 743 949 646 1019 q 881 763 841 878 l 801 738 q 689 886 767 831 q 497 942 610 941 q 292 886 374 942 q 169 730 210 830 q 127 500 128 630 q 167 270 126 370 q 291 114 208 171 q 497 58 374 58 q 689 103 614 57 q 800 234 763 150 q 839 432 836 319 l 590 432 l 590 505 l 922 505 q 925 471 924 488 q 925 445 925 454 q 879 207 925 313 q 737 40 833 101 q 494 -21 642 -21 z "},"H":{"ha":934,"x_min":97,"x_max":837,"o":"m 97 0 l 97 1000 l 177 1000 l 177 539 l 756 539 l 756 1000 l 837 1000 l 837 0 l 756 0 l 756 461 l 177 461 l 177 0 l 97 0 z "},"Ħ":{"ha":962,"x_min":14,"x_max":948,"o":"m 111 0 l 111 1000 l 191 1000 l 191 539 l 770 539 l 770 1000 l 851 1000 l 851 0 l 770 0 l 770 461 l 191 461 l 191 0 l 111 0 m 14 691 l 14 769 l 948 769 l 948 691 l 14 691 z "},"Ĥ":{"ha":934,"x_min":97,"x_max":837,"o":"m 278 1122 l 427 1299 l 506 1299 l 655 1122 l 568 1122 l 467 1241 l 365 1122 l 278 1122 m 97 0 l 97 1000 l 177 1000 l 177 539 l 756 539 l 756 1000 l 837 1000 l 837 0 l 756 0 l 756 461 l 177 461 l 177 0 l 97 0 z "},"I":{"ha":302,"x_min":111,"x_max":191,"o":"m 111 0 l 111 1000 l 191 1000 l 191 0 l 111 0 z "},"Í":{"ha":302,"x_min":111,"x_max":265,"o":"m 190 1122 l 116 1122 l 190 1323 l 265 1323 l 190 1122 m 111 0 l 111 1000 l 191 1000 l 191 0 l 111 0 z "},"Î":{"ha":302,"x_min":-38,"x_max":340,"o":"m -38 1122 l 111 1299 l 190 1299 l 340 1122 l 253 1122 l 151 1241 l 49 1122 l -38 1122 m 111 0 l 111 1000 l 191 1000 l 191 0 l 111 0 z "},"Ï":{"ha":302,"x_min":-26,"x_max":328,"o":"m 231 1156 l 231 1253 l 328 1253 l 328 1156 l 231 1156 m -26 1156 l -26 1253 l 71 1253 l 71 1156 l -26 1156 m 111 0 l 111 1000 l 191 1000 l 191 0 l 111 0 z "},"İ":{"ha":302,"x_min":101,"x_max":201,"o":"m 101 1163 l 101 1264 l 201 1264 l 201 1163 l 101 1163 m 111 0 l 111 1000 l 191 1000 l 191 0 l 111 0 z "},"Ị":{"ha":302,"x_min":101,"x_max":201,"o":"m 101 -265 l 101 -163 l 201 -163 l 201 -265 l 101 -265 m 111 0 l 111 1000 l 191 1000 l 191 0 l 111 0 z "},"Ì":{"ha":302,"x_min":38,"x_max":191,"o":"m 113 1122 l 38 1323 l 112 1323 l 187 1122 l 113 1122 m 111 0 l 111 1000 l 191 1000 l 191 0 l 111 0 z "},"Ỉ":{"ha":302,"x_min":41,"x_max":247,"o":"m 70 1267 l 41 1310 q 100 1349 65 1337 q 168 1352 134 1360 q 226 1306 202 1343 q 245 1250 244 1278 q 235 1195 247 1222 q 202 1148 223 1169 q 154 1116 181 1128 l 119 1156 q 177 1210 163 1178 q 175 1270 192 1242 q 145 1293 163 1290 q 107 1290 126 1297 q 70 1267 88 1283 m 111 0 l 111 1000 l 191 1000 l 191 0 l 111 0 z "},"Ī":{"ha":302,"x_min":-19,"x_max":322,"o":"m -19 1167 l -19 1240 l 322 1240 l 322 1167 l -19 1167 m 111 0 l 111 1000 l 191 1000 l 191 0 l 111 0 z "},"Į":{"ha":302,"x_min":-42,"x_max":197,"o":"m 85 -335 q 22 -317 51 -335 q -25 -269 -8 -299 q -42 -205 -42 -240 q -17 -116 -42 -162 q 50 -26 8 -70 q 142 53 92 17 l 191 0 q 113 -61 149 -26 q 55 -134 76 -97 q 33 -203 33 -171 q 50 -249 33 -231 q 90 -266 67 -266 q 125 -256 107 -266 q 158 -229 143 -245 l 197 -276 q 145 -320 174 -306 q 85 -335 115 -335 m 111 0 l 111 1000 l 191 1000 l 191 0 l 111 0 z "},"Ĩ":{"ha":302,"x_min":-60,"x_max":362,"o":"m 251 1122 q 197 1133 224 1122 q 144 1159 169 1144 q 95 1184 119 1173 q 51 1195 72 1195 q 16 1174 23 1195 q 16 1131 8 1153 l -45 1131 q -32 1225 -60 1187 q 50 1264 -5 1264 q 106 1253 78 1264 q 158 1227 133 1242 q 207 1202 184 1213 q 251 1191 230 1191 q 286 1211 276 1191 q 287 1257 295 1231 l 348 1257 q 335 1163 362 1203 q 251 1122 308 1122 m 111 0 l 111 1000 l 191 1000 l 191 0 l 111 0 z "},"J":{"ha":627,"x_min":0,"x_max":515,"o":"m 258 -19 q 93 35 163 -19 q 0 179 23 89 l 81 198 q 144 99 95 139 q 259 58 192 58 q 344 78 301 58 q 411 144 387 98 q 431 213 428 176 q 434 301 434 249 l 434 1000 l 515 1000 l 515 301 q 514 228 515 261 q 507 164 513 194 q 483 102 500 133 q 389 11 448 41 q 258 -19 329 -19 z "},"Ĵ":{"ha":627,"x_min":0,"x_max":663,"o":"m 285 1122 l 434 1299 l 513 1299 l 663 1122 l 576 1122 l 474 1241 l 372 1122 l 285 1122 m 258 -19 q 93 35 163 -19 q 0 179 23 89 l 81 198 q 144 99 95 139 q 259 58 192 58 q 344 78 301 58 q 411 144 387 98 q 431 213 428 176 q 434 301 434 249 l 434 1000 l 515 1000 l 515 301 q 514 228 515 261 q 507 164 513 194 q 483 102 500 133 q 389 11 448 41 q 258 -19 329 -19 z "},"K":{"ha":800,"x_min":97,"x_max":800,"o":"m 97 0 l 97 1000 l 177 1000 l 177 525 l 653 1000 l 758 1000 l 280 519 l 800 0 l 693 0 l 177 511 l 177 0 l 97 0 z "},"Ķ":{"ha":800,"x_min":97,"x_max":800,"o":"m 371 -368 l 371 -320 q 392 -315 378 -320 q 415 -297 405 -310 q 424 -262 425 -285 l 371 -262 l 371 -163 l 470 -163 l 470 -262 q 438 -343 470 -318 q 371 -368 405 -368 m 97 0 l 97 1000 l 177 1000 l 177 525 l 653 1000 l 758 1000 l 280 519 l 800 0 l 693 0 l 177 511 l 177 0 l 97 0 z "},"L":{"ha":698,"x_min":111,"x_max":677,"o":"m 111 0 l 111 1000 l 191 1000 l 191 78 l 677 78 l 677 0 l 111 0 z "},"Ĺ":{"ha":698,"x_min":111,"x_max":677,"o":"m 190 1122 l 116 1122 l 190 1323 l 265 1323 l 190 1122 m 111 0 l 111 1000 l 191 1000 l 191 78 l 677 78 l 677 0 l 111 0 z "},"Ľ":{"ha":698,"x_min":111,"x_max":677,"o":"m 111 0 l 111 1000 l 191 1000 l 191 78 l 677 78 l 677 0 l 111 0 m 443 742 l 449 785 q 485 796 474 783 q 497 830 495 809 q 497 876 499 851 l 443 876 l 443 1011 l 544 1011 l 544 841 q 515 759 544 786 q 443 742 487 732 z "},"Ļ":{"ha":698,"x_min":111,"x_max":677,"o":"m 344 -368 l 344 -320 q 365 -315 352 -320 q 389 -297 378 -310 q 397 -262 399 -285 l 344 -262 l 344 -163 l 444 -163 l 444 -262 q 411 -343 444 -318 q 344 -368 378 -368 m 111 0 l 111 1000 l 191 1000 l 191 78 l 677 78 l 677 0 l 111 0 z "},"Ł":{"ha":703,"x_min":63,"x_max":682,"o":"m 63 298 l 63 390 l 451 612 l 451 522 l 63 298 m 116 0 l 116 1000 l 196 1000 l 196 78 l 682 78 l 682 0 l 116 0 z "},"M":{"ha":1161,"x_min":97,"x_max":1064,"o":"m 97 0 l 97 1000 l 172 1000 l 581 115 l 987 1000 l 1064 1000 l 1064 1 l 985 1 l 985 816 l 613 0 l 548 0 l 175 816 l 175 0 l 97 0 z "},"N":{"ha":935,"x_min":97,"x_max":838,"o":"m 97 0 l 97 1000 l 178 1000 l 757 142 l 757 1000 l 838 1000 l 838 0 l 757 0 l 178 859 l 178 0 l 97 0 z "},"Ń":{"ha":935,"x_min":97,"x_max":838,"o":"m 519 1122 l 444 1122 l 519 1323 l 594 1323 l 519 1122 m 97 0 l 97 1000 l 178 1000 l 757 142 l 757 1000 l 838 1000 l 838 0 l 757 0 l 178 859 l 178 0 l 97 0 z "},"Ň":{"ha":935,"x_min":97,"x_max":838,"o":"m 297 1299 l 384 1299 l 485 1179 l 588 1299 l 674 1299 l 525 1122 l 446 1122 l 297 1299 m 97 0 l 97 1000 l 178 1000 l 757 142 l 757 1000 l 838 1000 l 838 0 l 757 0 l 178 859 l 178 0 l 97 0 z "},"Ņ":{"ha":935,"x_min":97,"x_max":838,"o":"m 432 -368 l 432 -320 q 453 -315 440 -320 q 476 -297 466 -310 q 484 -262 486 -285 l 432 -262 l 432 -163 l 531 -163 l 531 -262 q 499 -343 531 -318 q 432 -368 466 -368 m 97 0 l 97 1000 l 178 1000 l 757 142 l 757 1000 l 838 1000 l 838 0 l 757 0 l 178 859 l 178 0 l 97 0 z "},"Ŋ":{"ha":935,"x_min":97,"x_max":838,"o":"m 757 1000 l 838 1000 l 838 -131 q 808 -230 838 -198 q 715 -262 779 -262 q 684 -261 699 -262 q 649 -254 669 -259 l 649 -184 q 673 -187 663 -186 q 692 -188 683 -188 q 748 -166 732 -188 q 763 -82 763 -144 q 754 -14 763 -46 q 725 48 745 17 l 178 859 l 178 0 l 97 0 l 97 1000 l 178 1000 l 757 142 l 757 1000 z "},"Ñ":{"ha":935,"x_min":97,"x_max":838,"o":"m 587 1122 q 532 1133 559 1122 q 480 1159 505 1144 q 431 1184 454 1173 q 387 1195 408 1195 q 351 1174 359 1195 q 351 1131 344 1153 l 290 1131 q 303 1225 276 1187 q 385 1264 331 1264 q 441 1253 414 1264 q 494 1227 468 1242 q 543 1202 519 1213 q 586 1191 566 1191 q 621 1211 612 1191 q 622 1257 631 1231 l 683 1257 q 670 1163 697 1203 q 587 1122 643 1122 m 97 0 l 97 1000 l 178 1000 l 757 142 l 757 1000 l 838 1000 l 838 0 l 757 0 l 178 859 l 178 0 l 97 0 z "},"O":{"ha":992,"x_min":42,"x_max":951,"o":"m 497 -21 q 246 45 347 -21 q 93 229 144 112 q 42 500 42 347 q 93 771 42 653 q 246 955 144 888 q 497 1021 347 1021 q 747 955 646 1021 q 899 771 848 888 q 951 500 951 653 q 899 229 951 347 q 747 45 848 112 q 497 -21 646 -21 m 497 58 q 701 114 619 57 q 824 270 783 170 q 865 500 865 370 q 824 730 865 630 q 701 886 783 830 q 497 942 619 942 q 292 887 374 943 q 169 730 210 831 q 127 500 128 630 q 167 270 126 370 q 291 114 208 171 q 497 58 374 58 z "},"Ó":{"ha":992,"x_min":42,"x_max":951,"o":"m 547 1122 l 473 1122 l 548 1323 l 622 1323 l 547 1122 m 497 -21 q 246 45 347 -21 q 93 229 144 112 q 42 500 42 347 q 93 771 42 653 q 246 955 144 888 q 497 1021 347 1021 q 747 955 646 1021 q 899 771 848 888 q 951 500 951 653 q 899 229 951 347 q 747 45 848 112 q 497 -21 646 -21 m 497 58 q 701 114 619 57 q 824 270 783 170 q 865 500 865 370 q 824 730 865 630 q 701 886 783 830 q 497 942 619 942 q 292 887 374 943 q 169 730 210 831 q 127 500 128 630 q 167 270 126 370 q 291 114 208 171 q 497 58 374 58 z "},"Ô":{"ha":992,"x_min":42,"x_max":951,"o":"m 307 1122 l 456 1299 l 535 1299 l 685 1122 l 598 1122 l 496 1241 l 394 1122 l 307 1122 m 497 -21 q 246 45 347 -21 q 93 229 144 112 q 42 500 42 347 q 93 771 42 653 q 246 955 144 888 q 497 1021 347 1021 q 747 955 646 1021 q 899 771 848 888 q 951 500 951 653 q 899 229 951 347 q 747 45 848 112 q 497 -21 646 -21 m 497 58 q 701 114 619 57 q 824 270 783 170 q 865 500 865 370 q 824 730 865 630 q 701 886 783 830 q 497 942 619 942 q 292 887 374 943 q 169 730 210 831 q 127 500 128 630 q 167 270 126 370 q 291 114 208 171 q 497 58 374 58 z "},"Ố":{"ha":992,"x_min":42,"x_max":951,"o":"m 315 1122 l 464 1299 l 543 1299 l 692 1122 l 606 1122 l 503 1241 l 401 1122 l 315 1122 m 746 1267 l 672 1267 l 747 1469 l 821 1469 l 746 1267 m 497 -21 q 246 45 347 -21 q 93 229 144 112 q 42 500 42 347 q 93 771 42 653 q 246 955 144 888 q 497 1021 347 1021 q 747 955 646 1021 q 899 771 848 888 q 951 500 951 653 q 899 229 951 347 q 747 45 848 112 q 497 -21 646 -21 m 497 58 q 701 114 619 57 q 824 270 783 170 q 865 500 865 370 q 824 730 865 630 q 701 886 783 830 q 497 942 619 942 q 292 887 374 943 q 169 730 210 831 q 127 500 128 630 q 167 270 126 370 q 291 114 208 171 q 497 58 374 58 z "},"Ộ":{"ha":992,"x_min":42,"x_max":951,"o":"m 307 1122 l 456 1299 l 535 1299 l 685 1122 l 598 1122 l 496 1241 l 394 1122 l 307 1122 m 446 -265 l 446 -163 l 547 -163 l 547 -265 l 446 -265 m 497 -21 q 246 45 347 -21 q 93 229 144 112 q 42 500 42 347 q 93 771 42 653 q 246 955 144 888 q 497 1021 347 1021 q 747 955 646 1021 q 899 771 848 888 q 951 500 951 653 q 899 229 951 347 q 747 45 848 112 q 497 -21 646 -21 m 497 58 q 701 114 619 57 q 824 270 783 170 q 865 500 865 370 q 824 730 865 630 q 701 886 783 830 q 497 942 619 942 q 292 887 374 943 q 169 730 210 831 q 127 500 128 630 q 167 270 126 370 q 291 114 208 171 q 497 58 374 58 z "},"Ồ":{"ha":992,"x_min":42,"x_max":951,"o":"m 308 1122 l 457 1299 l 536 1299 l 685 1122 l 599 1122 l 497 1241 l 394 1122 l 308 1122 m 658 1267 l 584 1469 l 658 1469 l 733 1267 l 658 1267 m 497 -21 q 246 45 347 -21 q 93 229 144 112 q 42 500 42 347 q 93 771 42 653 q 246 955 144 888 q 497 1021 347 1021 q 747 955 646 1021 q 899 771 848 888 q 951 500 951 653 q 899 229 951 347 q 747 45 848 112 q 497 -21 646 -21 m 497 58 q 701 114 619 57 q 824 270 783 170 q 865 500 865 370 q 824 730 865 630 q 701 886 783 830 q 497 942 619 942 q 292 887 374 943 q 169 730 210 831 q 127 500 128 630 q 167 270 126 370 q 291 114 208 171 q 497 58 374 58 z "},"Ổ":{"ha":992,"x_min":42,"x_max":951,"o":"m 328 1122 l 478 1299 l 557 1299 l 706 1122 l 619 1122 l 517 1241 l 415 1122 l 328 1122 m 710 1267 l 681 1310 q 740 1349 706 1337 q 808 1352 774 1360 q 867 1306 842 1343 q 885 1250 884 1278 q 875 1195 887 1222 q 842 1148 863 1169 q 794 1116 821 1128 l 759 1156 q 817 1210 803 1178 q 815 1270 832 1242 q 785 1293 803 1290 q 747 1290 767 1297 q 710 1267 728 1283 m 497 -21 q 246 45 347 -21 q 93 229 144 112 q 42 500 42 347 q 93 771 42 653 q 246 955 144 888 q 497 1021 347 1021 q 747 955 646 1021 q 899 771 848 888 q 951 500 951 653 q 899 229 951 347 q 747 45 848 112 q 497 -21 646 -21 m 497 58 q 701 114 619 57 q 824 270 783 170 q 865 500 865 370 q 824 730 865 630 q 701 886 783 830 q 497 942 619 942 q 292 887 374 943 q 169 730 210 831 q 127 500 128 630 q 167 270 126 370 q 291 114 208 171 q 497 58 374 58 z "},"Ỗ":{"ha":992,"x_min":42,"x_max":951,"o":"m 303 1122 l 452 1299 l 532 1299 l 681 1122 l 594 1122 l 492 1241 l 390 1122 l 303 1122 m 597 1333 q 542 1344 569 1333 q 489 1370 515 1356 q 441 1395 464 1384 q 397 1406 417 1406 q 361 1385 368 1406 q 361 1342 353 1364 l 299 1342 q 313 1436 285 1398 q 395 1475 340 1475 q 451 1464 424 1475 q 503 1439 478 1453 q 552 1413 529 1424 q 596 1402 575 1402 q 631 1422 622 1402 q 632 1468 640 1442 l 693 1468 q 680 1374 707 1414 q 597 1333 653 1333 m 497 -21 q 246 45 347 -21 q 93 229 144 112 q 42 500 42 347 q 93 771 42 653 q 246 955 144 888 q 497 1021 347 1021 q 747 955 646 1021 q 899 771 848 888 q 951 500 951 653 q 899 229 951 347 q 747 45 848 112 q 497 -21 646 -21 m 497 58 q 701 114 619 57 q 824 270 783 170 q 865 500 865 370 q 824 730 865 630 q 701 886 783 830 q 497 942 619 942 q 292 887 374 943 q 169 730 210 831 q 127 500 128 630 q 167 270 126 370 q 291 114 208 171 q 497 58 374 58 z "},"Ö":{"ha":992,"x_min":42,"x_max":951,"o":"m 576 1156 l 576 1253 l 674 1253 l 674 1156 l 576 1156 m 319 1156 l 319 1253 l 416 1253 l 416 1156 l 319 1156 m 497 -21 q 246 45 347 -21 q 93 229 144 112 q 42 500 42 347 q 93 771 42 653 q 246 955 144 888 q 497 1021 347 1021 q 747 955 646 1021 q 899 771 848 888 q 951 500 951 653 q 899 229 951 347 q 747 45 848 112 q 497 -21 646 -21 m 497 58 q 701 114 619 57 q 824 270 783 170 q 865 500 865 370 q 824 730 865 630 q 701 886 783 830 q 497 942 619 942 q 292 887 374 943 q 169 730 210 831 q 127 500 128 630 q 167 270 126 370 q 291 114 208 171 q 497 58 374 58 z "},"Ọ":{"ha":992,"x_min":42,"x_max":951,"o":"m 432 -265 l 432 -163 l 533 -163 l 533 -265 l 432 -265 m 497 -21 q 246 45 347 -21 q 93 229 144 112 q 42 500 42 347 q 93 771 42 653 q 246 955 144 888 q 497 1021 347 1021 q 747 955 646 1021 q 899 771 848 888 q 951 500 951 653 q 899 229 951 347 q 747 45 848 112 q 497 -21 646 -21 m 497 58 q 701 114 619 57 q 824 270 783 170 q 865 500 865 370 q 824 730 865 630 q 701 886 783 830 q 497 942 619 942 q 292 887 374 943 q 169 730 210 831 q 127 500 128 630 q 167 270 126 370 q 291 114 208 171 q 497 58 374 58 z "},"Ò":{"ha":992,"x_min":42,"x_max":951,"o":"m 460 1122 l 385 1323 l 460 1323 l 535 1122 l 460 1122 m 497 -21 q 246 45 347 -21 q 93 229 144 112 q 42 500 42 347 q 93 771 42 653 q 246 955 144 888 q 497 1021 347 1021 q 747 955 646 1021 q 899 771 848 888 q 951 500 951 653 q 899 229 951 347 q 747 45 848 112 q 497 -21 646 -21 m 497 58 q 701 114 619 57 q 824 270 783 170 q 865 500 865 370 q 824 730 865 630 q 701 886 783 830 q 497 942 619 942 q 292 887 374 943 q 169 730 210 831 q 127 500 128 630 q 167 270 126 370 q 291 114 208 171 q 497 58 374 58 z "},"Ỏ":{"ha":992,"x_min":42,"x_max":951,"o":"m 442 1267 l 413 1310 q 471 1349 437 1337 q 540 1352 506 1360 q 598 1306 574 1343 q 617 1250 615 1278 q 607 1195 618 1222 q 574 1148 595 1169 q 526 1116 552 1128 l 491 1156 q 549 1210 534 1178 q 547 1270 564 1242 q 517 1293 535 1290 q 479 1290 499 1297 q 442 1267 459 1283 m 497 -21 q 246 45 347 -21 q 93 229 144 112 q 42 500 42 347 q 93 771 42 653 q 246 955 144 888 q 497 1021 347 1021 q 747 955 646 1021 q 899 771 848 888 q 951 500 951 653 q 899 229 951 347 q 747 45 848 112 q 497 -21 646 -21 m 497 58 q 701 114 619 57 q 824 270 783 170 q 865 500 865 370 q 824 730 865 630 q 701 886 783 830 q 497 942 619 942 q 292 887 374 943 q 169 730 210 831 q 127 500 128 630 q 167 270 126 370 q 291 114 208 171 q 497 58 374 58 z "},"Ơ":{"ha":992,"x_min":42,"x_max":951,"o":"m 778 1128 l 850 1128 q 849 1034 858 1077 q 802 965 840 992 q 723 939 773 944 q 625 964 674 933 l 625 1006 q 685 995 660 996 q 730 1006 709 995 q 775 1057 768 1024 q 778 1128 782 1090 m 497 -21 q 246 45 347 -21 q 93 229 144 112 q 42 500 42 347 q 93 771 42 653 q 246 955 144 888 q 497 1021 347 1021 q 747 955 646 1021 q 899 771 848 888 q 951 500 951 653 q 899 229 951 347 q 747 45 848 112 q 497 -21 646 -21 m 497 58 q 701 114 619 57 q 824 270 783 170 q 865 500 865 370 q 824 730 865 630 q 701 886 783 830 q 497 942 619 942 q 292 887 374 943 q 169 730 210 831 q 127 500 128 630 q 167 270 126 370 q 291 114 208 171 q 497 58 374 58 z "},"Ớ":{"ha":992,"x_min":42,"x_max":951,"o":"m 778 1128 l 850 1128 q 849 1034 858 1077 q 802 965 840 992 q 723 939 773 944 q 625 964 674 933 l 625 1006 q 685 995 660 996 q 730 1006 709 995 q 775 1057 768 1024 q 778 1128 782 1090 m 547 1122 l 473 1122 l 548 1323 l 622 1323 l 547 1122 m 497 -21 q 246 45 347 -21 q 93 229 144 112 q 42 500 42 347 q 93 771 42 653 q 246 955 144 888 q 497 1021 347 1021 q 747 955 646 1021 q 899 771 848 888 q 951 500 951 653 q 899 229 951 347 q 747 45 848 112 q 497 -21 646 -21 m 497 58 q 701 114 619 57 q 824 270 783 170 q 865 500 865 370 q 824 730 865 630 q 701 886 783 830 q 497 942 619 942 q 292 887 374 943 q 169 730 210 831 q 127 500 128 630 q 167 270 126 370 q 291 114 208 171 q 497 58 374 58 z "},"Ợ":{"ha":992,"x_min":42,"x_max":951,"o":"m 449 -265 l 449 -163 l 549 -163 l 549 -265 l 449 -265 m 778 1128 l 850 1128 q 849 1034 858 1077 q 802 965 840 992 q 723 939 773 944 q 625 964 674 933 l 625 1006 q 685 995 660 996 q 730 1006 709 995 q 775 1057 768 1024 q 778 1128 782 1090 m 497 -21 q 246 45 347 -21 q 93 229 144 112 q 42 500 42 347 q 93 771 42 653 q 246 955 144 888 q 497 1021 347 1021 q 747 955 646 1021 q 899 771 848 888 q 951 500 951 653 q 899 229 951 347 q 747 45 848 112 q 497 -21 646 -21 m 497 58 q 701 114 619 57 q 824 270 783 170 q 865 500 865 370 q 824 730 865 630 q 701 886 783 830 q 497 942 619 942 q 292 887 374 943 q 169 730 210 831 q 127 500 128 630 q 167 270 126 370 q 291 114 208 171 q 497 58 374 58 z "},"Ờ":{"ha":992,"x_min":42,"x_max":951,"o":"m 778 1128 l 850 1128 q 849 1034 858 1077 q 802 965 840 992 q 723 939 773 944 q 625 964 674 933 l 625 1006 q 685 995 660 996 q 730 1006 709 995 q 775 1057 768 1024 q 778 1128 782 1090 m 460 1122 l 385 1323 l 460 1323 l 535 1122 l 460 1122 m 497 -21 q 246 45 347 -21 q 93 229 144 112 q 42 500 42 347 q 93 771 42 653 q 246 955 144 888 q 497 1021 347 1021 q 747 955 646 1021 q 899 771 848 888 q 951 500 951 653 q 899 229 951 347 q 747 45 848 112 q 497 -21 646 -21 m 497 58 q 701 114 619 57 q 824 270 783 170 q 865 500 865 370 q 824 730 865 630 q 701 886 783 830 q 497 942 619 942 q 292 887 374 943 q 169 730 210 831 q 127 500 128 630 q 167 270 126 370 q 291 114 208 171 q 497 58 374 58 z "},"Ở":{"ha":992,"x_min":42,"x_max":951,"o":"m 778 1128 l 850 1128 q 849 1034 858 1077 q 802 965 840 992 q 723 939 773 944 q 625 964 674 933 l 625 1006 q 685 995 660 996 q 730 1006 709 995 q 775 1057 768 1024 q 778 1128 782 1090 m 442 1267 l 413 1310 q 471 1349 437 1337 q 540 1352 506 1360 q 598 1306 574 1343 q 617 1250 615 1278 q 607 1195 618 1222 q 574 1148 595 1169 q 526 1116 552 1128 l 491 1156 q 549 1210 534 1178 q 547 1270 564 1242 q 517 1293 535 1290 q 479 1290 499 1297 q 442 1267 459 1283 m 497 -21 q 246 45 347 -21 q 93 229 144 112 q 42 500 42 347 q 93 771 42 653 q 246 955 144 888 q 497 1021 347 1021 q 747 955 646 1021 q 899 771 848 888 q 951 500 951 653 q 899 229 951 347 q 747 45 848 112 q 497 -21 646 -21 m 497 58 q 701 114 619 57 q 824 270 783 170 q 865 500 865 370 q 824 730 865 630 q 701 886 783 830 q 497 942 619 942 q 292 887 374 943 q 169 730 210 831 q 127 500 128 630 q 167 270 126 370 q 291 114 208 171 q 497 58 374 58 z "},"Ỡ":{"ha":992,"x_min":42,"x_max":951,"o":"m 778 1128 l 850 1128 q 849 1034 858 1077 q 802 965 840 992 q 723 939 773 944 q 625 964 674 933 l 625 1006 q 685 995 660 996 q 730 1006 709 995 q 775 1057 768 1024 q 778 1128 782 1090 m 497 -21 q 246 45 347 -21 q 93 229 144 112 q 42 500 42 347 q 93 771 42 653 q 246 955 144 888 q 497 1021 347 1021 q 747 955 646 1021 q 899 771 848 888 q 951 500 951 653 q 899 229 951 347 q 747 45 848 112 q 497 -21 646 -21 m 497 58 q 701 114 619 57 q 824 270 783 170 q 865 500 865 370 q 824 730 865 630 q 701 886 783 830 q 497 942 619 942 q 292 887 374 943 q 169 730 210 831 q 127 500 128 630 q 167 270 126 370 q 291 114 208 171 q 497 58 374 58 m 597 1122 q 541 1133 568 1122 q 489 1159 515 1144 q 440 1184 463 1173 q 397 1195 417 1195 q 361 1174 368 1195 q 360 1131 353 1153 l 299 1131 q 313 1225 285 1187 q 394 1264 340 1264 q 451 1253 424 1264 q 503 1227 478 1242 q 552 1202 528 1213 q 596 1191 575 1191 q 631 1211 622 1191 q 632 1257 640 1231 l 693 1257 q 680 1163 707 1203 q 597 1122 653 1122 z "},"Ő":{"ha":992,"x_min":42,"x_max":951,"o":"m 658 1122 l 584 1122 l 659 1323 l 733 1323 l 658 1122 m 407 1122 l 332 1122 l 407 1323 l 481 1323 l 407 1122 m 497 -21 q 246 45 347 -21 q 93 229 144 112 q 42 500 42 347 q 93 771 42 653 q 246 955 144 888 q 497 1021 347 1021 q 747 955 646 1021 q 899 771 848 888 q 951 500 951 653 q 899 229 951 347 q 747 45 848 112 q 497 -21 646 -21 m 497 58 q 701 114 619 57 q 824 270 783 170 q 865 500 865 370 q 824 730 865 630 q 701 886 783 830 q 497 942 619 942 q 292 887 374 943 q 169 730 210 831 q 127 500 128 630 q 167 270 126 370 q 291 114 208 171 q 497 58 374 58 z "},"Ō":{"ha":992,"x_min":42,"x_max":951,"o":"m 326 1167 l 326 1240 l 667 1240 l 667 1167 l 326 1167 m 497 -21 q 246 45 347 -21 q 93 229 144 112 q 42 500 42 347 q 93 771 42 653 q 246 955 144 888 q 497 1021 347 1021 q 747 955 646 1021 q 899 771 848 888 q 951 500 951 653 q 899 229 951 347 q 747 45 848 112 q 497 -21 646 -21 m 497 58 q 701 114 619 57 q 824 270 783 170 q 865 500 865 370 q 824 730 865 630 q 701 886 783 830 q 497 942 619 942 q 292 887 374 943 q 169 730 210 831 q 127 500 128 630 q 167 270 126 370 q 291 114 208 171 q 497 58 374 58 z "},"Ø":{"ha":992,"x_min":17,"x_max":983,"o":"m 75 -18 l 17 35 l 151 180 l 167 197 l 784 861 l 797 876 l 924 1014 l 983 963 l 845 812 l 833 800 l 217 135 l 200 117 l 75 -18 m 497 -21 q 246 45 347 -21 q 93 229 144 112 q 42 500 42 347 q 93 771 42 653 q 246 955 144 888 q 497 1021 347 1021 q 747 955 646 1021 q 899 771 848 888 q 951 500 951 653 q 899 229 951 347 q 747 45 848 112 q 497 -21 646 -21 m 497 58 q 701 114 619 57 q 824 270 783 170 q 865 500 865 370 q 824 730 865 630 q 701 886 783 830 q 497 942 619 942 q 292 887 374 943 q 169 730 210 831 q 127 500 128 630 q 167 270 126 370 q 291 114 208 171 q 497 58 374 58 z "},"Õ":{"ha":992,"x_min":42,"x_max":951,"o":"m 497 -21 q 246 45 347 -21 q 93 229 144 112 q 42 500 42 347 q 93 771 42 653 q 246 955 144 888 q 497 1021 347 1021 q 747 955 646 1021 q 899 771 848 888 q 951 500 951 653 q 899 229 951 347 q 747 45 848 112 q 497 -21 646 -21 m 497 58 q 701 114 619 57 q 824 270 783 170 q 865 500 865 370 q 824 730 865 630 q 701 886 783 830 q 497 942 619 942 q 292 887 374 943 q 169 730 210 831 q 127 500 128 630 q 167 270 126 370 q 291 114 208 171 q 497 58 374 58 m 607 1122 q 552 1133 578 1122 q 500 1159 525 1144 q 451 1184 474 1173 q 407 1195 428 1195 q 371 1174 378 1195 q 371 1131 364 1153 l 310 1131 q 323 1225 296 1187 q 405 1264 351 1264 q 461 1253 434 1264 q 514 1227 488 1242 q 563 1202 540 1213 q 606 1191 585 1191 q 641 1211 632 1191 q 642 1257 651 1231 l 703 1257 q 690 1163 717 1203 q 607 1122 663 1122 z "},"Œ":{"ha":1558,"x_min":42,"x_max":1489,"o":"m 497 -21 q 246 45 347 -21 q 93 229 144 112 q 42 500 42 347 q 93 771 42 653 q 246 955 144 888 q 497 1021 347 1021 q 747 955 646 1021 q 899 771 848 888 q 951 500 951 653 q 899 229 951 347 q 747 45 848 112 q 497 -21 646 -21 m 497 58 q 701 114 619 57 q 824 270 783 170 q 865 500 865 370 q 824 730 865 630 q 701 886 783 830 q 497 942 619 942 q 292 887 374 943 q 169 730 210 831 q 127 500 128 630 q 167 270 126 370 q 291 114 208 171 q 497 58 374 58 m 871 0 l 871 1000 l 1489 1000 l 1489 922 l 951 922 l 951 542 l 1406 542 l 1406 465 l 951 465 l 951 78 l 1489 78 l 1489 0 l 871 0 z "},"P":{"ha":823,"x_min":97,"x_max":781,"o":"m 97 0 l 97 1000 l 474 1000 q 506 999 489 1000 q 542 994 523 998 q 670 941 617 983 q 753 835 724 899 q 781 695 781 772 q 753 555 781 618 q 670 449 724 491 q 542 395 617 407 q 506 391 523 392 q 474 390 489 390 l 177 390 l 177 0 l 97 0 m 177 468 l 473 468 q 502 469 485 468 q 535 474 518 471 q 625 518 589 485 q 679 597 661 551 q 697 695 697 644 q 679 793 697 747 q 625 872 661 839 q 535 916 589 905 q 502 921 518 919 q 473 922 485 922 l 177 922 l 177 468 z "},"Þ":{"ha":810,"x_min":97,"x_max":768,"o":"m 97 0 l 97 1000 l 178 1000 l 178 805 l 462 805 q 568 785 517 805 q 627 756 599 774 q 678 713 656 738 q 744 615 721 672 q 768 500 768 559 q 747 393 768 444 q 691 299 726 341 q 589 223 650 251 q 462 195 527 195 l 178 195 l 178 0 l 97 0 m 178 273 l 462 273 q 555 295 510 273 q 631 355 600 317 q 671 423 656 385 q 684 500 685 460 q 666 588 683 546 q 617 661 649 629 q 546 709 588 691 q 462 727 504 727 l 178 727 l 178 273 z "},"Q":{"ha":992,"x_min":42,"x_max":951,"o":"m 884 -19 l 624 240 l 681 297 l 940 38 l 884 -19 m 497 -21 q 246 45 347 -21 q 93 229 144 112 q 42 500 42 347 q 93 771 42 653 q 246 955 144 888 q 497 1021 347 1021 q 747 955 646 1021 q 899 771 848 888 q 951 500 951 653 q 899 229 951 347 q 747 45 848 112 q 497 -21 646 -21 m 497 58 q 701 114 619 57 q 824 270 783 170 q 865 500 865 370 q 824 730 865 630 q 701 886 783 830 q 497 942 619 942 q 292 887 374 943 q 169 730 210 831 q 127 500 128 630 q 167 270 126 370 q 291 114 208 171 q 497 58 374 58 z "},"R":{"ha":863,"x_min":97,"x_max":807,"o":"m 97 0 l 97 1000 l 474 1000 q 506 999 489 1000 q 542 994 523 998 q 670 941 617 983 q 753 835 724 899 q 781 695 781 772 q 722 503 781 585 q 558 399 663 421 l 535 390 l 177 390 l 177 0 l 97 0 m 713 0 l 516 407 l 590 444 l 807 0 l 713 0 m 177 468 l 473 468 q 502 469 485 468 q 535 474 518 471 q 625 518 589 485 q 679 597 661 551 q 697 695 697 644 q 679 793 697 747 q 625 872 661 839 q 535 916 589 905 q 502 921 518 919 q 473 922 485 922 l 177 922 l 177 468 z "},"Ŕ":{"ha":863,"x_min":97,"x_max":807,"o":"m 429 1122 l 355 1122 l 430 1323 l 504 1323 l 429 1122 m 97 0 l 97 1000 l 474 1000 q 506 999 489 1000 q 542 994 523 998 q 670 941 617 983 q 753 835 724 899 q 781 695 781 772 q 722 503 781 585 q 558 399 663 421 l 535 390 l 177 390 l 177 0 l 97 0 m 713 0 l 516 407 l 590 444 l 807 0 l 713 0 m 177 468 l 473 468 q 502 469 485 468 q 535 474 518 471 q 625 518 589 485 q 679 597 661 551 q 697 695 697 644 q 679 793 697 747 q 625 872 661 839 q 535 916 589 905 q 502 921 518 919 q 473 922 485 922 l 177 922 l 177 468 z "},"Ř":{"ha":863,"x_min":97,"x_max":807,"o":"m 203 1299 l 290 1299 l 392 1179 l 493 1299 l 580 1299 l 431 1122 l 352 1122 l 203 1299 m 97 0 l 97 1000 l 474 1000 q 506 999 489 1000 q 542 994 523 998 q 670 941 617 983 q 753 835 724 899 q 781 695 781 772 q 722 503 781 585 q 558 399 663 421 l 535 390 l 177 390 l 177 0 l 97 0 m 713 0 l 516 407 l 590 444 l 807 0 l 713 0 m 177 468 l 473 468 q 502 469 485 468 q 535 474 518 471 q 625 518 589 485 q 679 597 661 551 q 697 695 697 644 q 679 793 697 747 q 625 872 661 839 q 535 916 589 905 q 502 921 518 919 q 473 922 485 922 l 177 922 l 177 468 z "},"Ŗ":{"ha":863,"x_min":97,"x_max":807,"o":"m 369 -368 l 369 -320 q 390 -315 377 -320 q 414 -297 403 -310 q 422 -262 424 -285 l 369 -262 l 369 -163 l 469 -163 l 469 -262 q 436 -343 469 -318 q 369 -368 403 -368 m 97 0 l 97 1000 l 474 1000 q 506 999 489 1000 q 542 994 523 998 q 670 941 617 983 q 753 835 724 899 q 781 695 781 772 q 722 503 781 585 q 558 399 663 421 l 535 390 l 177 390 l 177 0 l 97 0 m 713 0 l 516 407 l 590 444 l 807 0 l 713 0 m 177 468 l 473 468 q 502 469 485 468 q 535 474 518 471 q 625 518 589 485 q 679 597 661 551 q 697 695 697 644 q 679 793 697 747 q 625 872 661 839 q 535 916 589 905 q 502 921 518 919 q 473 922 485 922 l 177 922 l 177 468 z "},"S":{"ha":837,"x_min":44,"x_max":793,"o":"m 437 -21 q 252 13 334 -21 q 116 110 169 47 q 44 258 62 172 l 126 272 q 236 115 151 172 q 439 57 320 57 q 581 83 519 57 q 678 155 643 108 q 713 265 713 202 q 696 340 713 310 q 654 391 680 371 q 599 423 628 410 q 544 442 570 435 l 293 517 q 204 554 243 532 q 138 605 165 576 q 97 670 111 633 q 83 752 83 707 q 126 893 83 833 q 244 987 169 953 q 417 1021 319 1021 q 594 984 516 1020 q 723 883 673 949 q 788 728 774 818 l 706 714 q 656 834 696 783 q 554 914 616 885 q 417 942 492 942 q 288 918 344 943 q 200 851 232 893 q 168 755 168 808 q 198 666 168 699 q 273 615 228 633 q 357 584 317 596 l 558 524 q 626 501 587 516 q 704 457 666 485 q 768 383 742 429 q 793 267 793 337 q 767 147 793 200 q 694 56 742 93 q 581 -1 646 19 q 437 -21 515 -21 z "},"Ś":{"ha":837,"x_min":44,"x_max":793,"o":"m 461 1122 l 387 1122 l 462 1323 l 536 1323 l 461 1122 m 437 -21 q 252 13 334 -21 q 116 110 169 47 q 44 258 62 172 l 126 272 q 236 115 151 172 q 439 57 320 57 q 581 83 519 57 q 678 155 643 108 q 713 265 713 202 q 696 340 713 310 q 654 391 680 371 q 599 423 628 410 q 544 442 570 435 l 293 517 q 204 554 243 532 q 138 605 165 576 q 97 670 111 633 q 83 752 83 707 q 126 893 83 833 q 244 987 169 953 q 417 1021 319 1021 q 594 984 516 1020 q 723 883 673 949 q 788 728 774 818 l 706 714 q 656 834 696 783 q 554 914 616 885 q 417 942 492 942 q 288 918 344 943 q 200 851 232 893 q 168 755 168 808 q 198 666 168 699 q 273 615 228 633 q 357 584 317 596 l 558 524 q 626 501 587 516 q 704 457 666 485 q 768 383 742 429 q 793 267 793 337 q 767 147 793 200 q 694 56 742 93 q 581 -1 646 19 q 437 -21 515 -21 z "},"Š":{"ha":837,"x_min":44,"x_max":793,"o":"m 248 1299 l 335 1299 l 437 1179 l 539 1299 l 626 1299 l 476 1122 l 397 1122 l 248 1299 m 437 -21 q 252 13 334 -21 q 116 110 169 47 q 44 258 62 172 l 126 272 q 236 115 151 172 q 439 57 320 57 q 581 83 519 57 q 678 155 643 108 q 713 265 713 202 q 696 340 713 310 q 654 391 680 371 q 599 423 628 410 q 544 442 570 435 l 293 517 q 204 554 243 532 q 138 605 165 576 q 97 670 111 633 q 83 752 83 707 q 126 893 83 833 q 244 987 169 953 q 417 1021 319 1021 q 594 984 516 1020 q 723 883 673 949 q 788 728 774 818 l 706 714 q 656 834 696 783 q 554 914 616 885 q 417 942 492 942 q 288 918 344 943 q 200 851 232 893 q 168 755 168 808 q 198 666 168 699 q 273 615 228 633 q 357 584 317 596 l 558 524 q 626 501 587 516 q 704 457 666 485 q 768 383 742 429 q 793 267 793 337 q 767 147 793 200 q 694 56 742 93 q 581 -1 646 19 q 437 -21 515 -21 z "},"Ş":{"ha":837,"x_min":44,"x_max":793,"o":"m 410 -333 q 365 -327 386 -333 q 324 -312 344 -321 l 347 -251 q 404 -264 381 -264 q 449 -245 433 -264 q 465 -204 465 -227 q 436 -156 465 -171 q 372 -131 408 -142 l 424 12 l 491 13 l 453 -90 q 513 -134 490 -106 q 537 -208 537 -162 q 499 -297 537 -260 q 410 -333 462 -333 m 437 -21 q 252 13 334 -21 q 116 110 169 47 q 44 258 62 172 l 126 272 q 236 115 151 172 q 439 57 320 57 q 581 83 519 57 q 678 155 643 108 q 713 265 713 202 q 696 340 713 310 q 654 391 680 371 q 599 423 628 410 q 544 442 570 435 l 293 517 q 204 554 243 532 q 138 605 165 576 q 97 670 111 633 q 83 752 83 707 q 126 893 83 833 q 244 987 169 953 q 417 1021 319 1021 q 594 984 516 1020 q 723 883 673 949 q 788 728 774 818 l 706 714 q 656 834 696 783 q 554 914 616 885 q 417 942 492 942 q 288 918 344 943 q 200 851 232 893 q 168 755 168 808 q 198 666 168 699 q 273 615 228 633 q 357 584 317 596 l 558 524 q 626 501 587 516 q 704 457 666 485 q 768 383 742 429 q 793 267 793 337 q 767 147 793 200 q 694 56 742 93 q 581 -1 646 19 q 437 -21 515 -21 z "},"Ŝ":{"ha":837,"x_min":44,"x_max":793,"o":"m 240 1122 l 390 1299 l 469 1299 l 618 1122 l 531 1122 l 429 1241 l 327 1122 l 240 1122 m 437 -21 q 252 13 334 -21 q 116 110 169 47 q 44 258 62 172 l 126 272 q 236 115 151 172 q 439 57 320 57 q 581 83 519 57 q 678 155 643 108 q 713 265 713 202 q 696 340 713 310 q 654 391 680 371 q 599 423 628 410 q 544 442 570 435 l 293 517 q 204 554 243 532 q 138 605 165 576 q 97 670 111 633 q 83 752 83 707 q 126 893 83 833 q 244 987 169 953 q 417 1021 319 1021 q 594 984 516 1020 q 723 883 673 949 q 788 728 774 818 l 706 714 q 656 834 696 783 q 554 914 616 885 q 417 942 492 942 q 288 918 344 943 q 200 851 232 893 q 168 755 168 808 q 198 666 168 699 q 273 615 228 633 q 357 584 317 596 l 558 524 q 626 501 587 516 q 704 457 666 485 q 768 383 742 429 q 793 267 793 337 q 767 147 793 200 q 694 56 742 93 q 581 -1 646 19 q 437 -21 515 -21 z "},"Ș":{"ha":837,"x_min":44,"x_max":793,"o":"m 405 -368 l 405 -320 q 426 -315 413 -320 q 449 -297 439 -310 q 457 -262 459 -285 l 405 -262 l 405 -163 l 503 -163 l 503 -262 q 471 -343 503 -318 q 405 -368 439 -368 m 437 -21 q 252 13 334 -21 q 116 110 169 47 q 44 258 62 172 l 126 272 q 236 115 151 172 q 439 57 320 57 q 581 83 519 57 q 678 155 643 108 q 713 265 713 202 q 696 340 713 310 q 654 391 680 371 q 599 423 628 410 q 544 442 570 435 l 293 517 q 204 554 243 532 q 138 605 165 576 q 97 670 111 633 q 83 752 83 707 q 126 893 83 833 q 244 987 169 953 q 417 1021 319 1021 q 594 984 516 1020 q 723 883 673 949 q 788 728 774 818 l 706 714 q 656 834 696 783 q 554 914 616 885 q 417 942 492 942 q 288 918 344 943 q 200 851 232 893 q 168 755 168 808 q 198 666 168 699 q 273 615 228 633 q 357 584 317 596 l 558 524 q 626 501 587 516 q 704 457 666 485 q 768 383 742 429 q 793 267 793 337 q 767 147 793 200 q 694 56 742 93 q 581 -1 646 19 q 437 -21 515 -21 z "},"ẞ":{"ha":963,"x_min":97,"x_max":880,"o":"m 564 -21 q 494 -15 522 -21 q 435 0 465 -9 l 435 79 q 499 65 470 69 q 561 61 528 61 q 682 86 628 61 q 767 160 735 111 q 798 281 798 209 q 765 393 798 345 q 670 468 733 440 q 519 498 608 495 l 513 563 l 694 876 q 608 919 660 898 q 478 940 557 940 q 287 883 357 940 q 197 738 217 825 q 185 648 188 694 q 182 556 182 601 l 182 0 l 97 0 l 97 610 q 101 699 97 661 q 113 768 106 738 q 196 922 138 867 q 329 999 254 976 q 482 1021 404 1021 q 614 1002 554 1021 q 722 958 674 984 q 801 908 769 932 l 610 566 q 737 526 675 559 q 840 431 799 492 q 880 280 880 370 q 796 59 880 139 q 564 -21 712 -21 z "},"T":{"ha":824,"x_min":14,"x_max":810,"o":"m 372 0 l 372 922 l 14 922 l 14 1000 l 810 1000 l 810 922 l 452 922 l 452 0 l 372 0 z "},"Ŧ":{"ha":824,"x_min":14,"x_max":810,"o":"m 113 460 l 113 540 l 710 540 l 710 460 l 113 460 m 372 0 l 372 922 l 14 922 l 14 1000 l 810 1000 l 810 922 l 452 922 l 452 0 l 372 0 z "},"Ť":{"ha":824,"x_min":14,"x_max":810,"o":"m 223 1299 l 310 1299 l 412 1179 l 513 1299 l 600 1299 l 451 1122 l 372 1122 l 223 1299 m 372 0 l 372 922 l 14 922 l 14 1000 l 810 1000 l 810 922 l 452 922 l 452 0 l 372 0 z "},"Ţ":{"ha":824,"x_min":14,"x_max":810,"o":"m 372 0 l 372 922 l 14 922 l 14 1000 l 810 1000 l 810 922 l 452 922 l 452 0 l 372 0 m 365 -341 q 320 -335 341 -341 q 279 -320 299 -329 l 302 -260 q 359 -272 335 -272 q 404 -254 388 -272 q 419 -212 419 -235 q 391 -165 419 -179 q 327 -139 362 -150 l 379 3 l 446 4 l 408 -99 q 468 -143 444 -115 q 492 -216 492 -171 q 454 -305 492 -269 q 365 -341 417 -341 z "},"Ț":{"ha":824,"x_min":14,"x_max":810,"o":"m 363 -368 l 363 -320 q 383 -315 370 -320 q 407 -297 397 -310 q 415 -262 417 -285 l 363 -262 l 363 -163 l 462 -163 l 462 -262 q 429 -343 462 -318 q 363 -368 397 -368 m 372 0 l 372 922 l 14 922 l 14 1000 l 810 1000 l 810 922 l 452 922 l 452 0 l 372 0 z "},"U":{"ha":967,"x_min":97,"x_max":869,"o":"m 483 -21 q 284 26 371 -21 q 147 158 197 73 q 97 358 97 243 l 97 1000 l 178 1000 l 178 374 q 207 228 178 289 q 282 129 235 167 q 381 73 328 91 q 483 55 434 55 q 586 73 533 55 q 685 129 640 91 q 760 228 731 167 q 789 374 789 289 l 789 1000 l 869 1000 l 869 358 q 820 159 869 244 q 683 26 770 74 q 483 -21 596 -21 z "},"Ú":{"ha":967,"x_min":97,"x_max":869,"o":"m 507 1122 l 433 1122 l 508 1323 l 582 1323 l 507 1122 m 483 -21 q 284 26 371 -21 q 147 158 197 73 q 97 358 97 243 l 97 1000 l 178 1000 l 178 374 q 207 228 178 289 q 282 129 235 167 q 381 73 328 91 q 483 55 434 55 q 586 73 533 55 q 685 129 640 91 q 760 228 731 167 q 789 374 789 289 l 789 1000 l 869 1000 l 869 358 q 820 159 869 244 q 683 26 770 74 q 483 -21 596 -21 z "},"Ŭ":{"ha":967,"x_min":97,"x_max":869,"o":"m 483 1090 q 399 1113 437 1090 q 338 1174 360 1136 q 315 1259 315 1213 l 384 1259 q 414 1189 384 1219 q 483 1160 443 1160 q 554 1189 525 1160 q 583 1259 583 1219 l 652 1259 q 630 1174 652 1213 q 568 1113 607 1136 q 483 1090 530 1090 m 483 -21 q 284 26 371 -21 q 147 158 197 73 q 97 358 97 243 l 97 1000 l 178 1000 l 178 374 q 207 228 178 289 q 282 129 235 167 q 381 73 328 91 q 483 55 434 55 q 586 73 533 55 q 685 129 640 91 q 760 228 731 167 q 789 374 789 289 l 789 1000 l 869 1000 l 869 358 q 820 159 869 244 q 683 26 770 74 q 483 -21 596 -21 z "},"Û":{"ha":967,"x_min":97,"x_max":869,"o":"m 294 1122 l 443 1299 l 522 1299 l 672 1122 l 585 1122 l 483 1241 l 381 1122 l 294 1122 m 483 -21 q 284 26 371 -21 q 147 158 197 73 q 97 358 97 243 l 97 1000 l 178 1000 l 178 374 q 207 228 178 289 q 282 129 235 167 q 381 73 328 91 q 483 55 434 55 q 586 73 533 55 q 685 129 640 91 q 760 228 731 167 q 789 374 789 289 l 789 1000 l 869 1000 l 869 358 q 820 159 869 244 q 683 26 770 74 q 483 -21 596 -21 z "},"Ü":{"ha":967,"x_min":97,"x_max":869,"o":"m 563 1156 l 563 1253 l 660 1253 l 660 1156 l 563 1156 m 306 1156 l 306 1253 l 403 1253 l 403 1156 l 306 1156 m 483 -21 q 284 26 371 -21 q 147 158 197 73 q 97 358 97 243 l 97 1000 l 178 1000 l 178 374 q 207 228 178 289 q 282 129 235 167 q 381 73 328 91 q 483 55 434 55 q 586 73 533 55 q 685 129 640 91 q 760 228 731 167 q 789 374 789 289 l 789 1000 l 869 1000 l 869 358 q 820 159 869 244 q 683 26 770 74 q 483 -21 596 -21 z "},"Ụ":{"ha":967,"x_min":97,"x_max":869,"o":"m 438 -265 l 438 -163 l 538 -163 l 538 -265 l 438 -265 m 483 -21 q 284 26 371 -21 q 147 158 197 73 q 97 358 97 243 l 97 1000 l 178 1000 l 178 374 q 207 228 178 289 q 282 129 235 167 q 381 73 328 91 q 483 55 434 55 q 586 73 533 55 q 685 129 640 91 q 760 228 731 167 q 789 374 789 289 l 789 1000 l 869 1000 l 869 358 q 820 159 869 244 q 683 26 770 74 q 483 -21 596 -21 z "},"Ù":{"ha":967,"x_min":97,"x_max":869,"o":"m 461 1122 l 387 1323 l 461 1323 l 536 1122 l 461 1122 m 483 -21 q 284 26 371 -21 q 147 158 197 73 q 97 358 97 243 l 97 1000 l 178 1000 l 178 374 q 207 228 178 289 q 282 129 235 167 q 381 73 328 91 q 483 55 434 55 q 586 73 533 55 q 685 129 640 91 q 760 228 731 167 q 789 374 789 289 l 789 1000 l 869 1000 l 869 358 q 820 159 869 244 q 683 26 770 74 q 483 -21 596 -21 z "},"Ủ":{"ha":967,"x_min":97,"x_max":869,"o":"m 418 1267 l 388 1310 q 448 1349 413 1337 q 516 1352 482 1360 q 574 1306 550 1343 q 593 1250 592 1278 q 582 1195 594 1222 q 550 1148 571 1169 q 501 1116 528 1128 l 467 1156 q 525 1210 510 1178 q 523 1270 540 1242 q 493 1293 511 1290 q 455 1290 474 1297 q 418 1267 435 1283 m 483 -21 q 284 26 371 -21 q 147 158 197 73 q 97 358 97 243 l 97 1000 l 178 1000 l 178 374 q 207 228 178 289 q 282 129 235 167 q 381 73 328 91 q 483 55 434 55 q 586 73 533 55 q 685 129 640 91 q 760 228 731 167 q 789 374 789 289 l 789 1000 l 869 1000 l 869 358 q 820 159 869 244 q 683 26 770 74 q 483 -21 596 -21 z "},"Ư":{"ha":967,"x_min":97,"x_max":1003,"o":"m 923 1125 l 995 1125 q 994 1031 1003 1074 q 948 961 985 988 q 882 939 919 941 q 804 943 845 937 l 804 1000 q 836 1001 819 1001 q 869 1005 853 1001 q 921 1050 915 1015 q 923 1125 927 1086 m 483 -21 q 284 26 371 -21 q 147 158 197 73 q 97 358 97 243 l 97 1000 l 178 1000 l 178 374 q 207 228 178 289 q 282 129 235 167 q 381 73 328 91 q 483 55 434 55 q 586 73 533 55 q 685 129 640 91 q 760 228 731 167 q 789 374 789 289 l 789 1000 l 869 1000 l 869 358 q 820 159 869 244 q 683 26 770 74 q 483 -21 596 -21 z "},"Ứ":{"ha":967,"x_min":97,"x_max":1003,"o":"m 923 1125 l 995 1125 q 994 1031 1003 1074 q 948 961 985 988 q 882 939 919 941 q 804 943 845 937 l 804 1000 q 836 1001 819 1001 q 869 1005 853 1001 q 921 1050 915 1015 q 923 1125 927 1086 m 507 1122 l 433 1122 l 508 1323 l 582 1323 l 507 1122 m 483 -21 q 284 26 371 -21 q 147 158 197 73 q 97 358 97 243 l 97 1000 l 178 1000 l 178 374 q 207 228 178 289 q 282 129 235 167 q 381 73 328 91 q 483 55 434 55 q 586 73 533 55 q 685 129 640 91 q 760 228 731 167 q 789 374 789 289 l 789 1000 l 869 1000 l 869 358 q 820 159 869 244 q 683 26 770 74 q 483 -21 596 -21 z "},"Ự":{"ha":967,"x_min":97,"x_max":1003,"o":"m 442 -265 l 442 -163 l 543 -163 l 543 -265 l 442 -265 m 923 1125 l 995 1125 q 994 1031 1003 1074 q 948 961 985 988 q 882 939 919 941 q 804 943 845 937 l 804 1000 q 836 1001 819 1001 q 869 1005 853 1001 q 921 1050 915 1015 q 923 1125 927 1086 m 483 -21 q 284 26 371 -21 q 147 158 197 73 q 97 358 97 243 l 97 1000 l 178 1000 l 178 374 q 207 228 178 289 q 282 129 235 167 q 381 73 328 91 q 483 55 434 55 q 586 73 533 55 q 685 129 640 91 q 760 228 731 167 q 789 374 789 289 l 789 1000 l 869 1000 l 869 358 q 820 159 869 244 q 683 26 770 74 q 483 -21 596 -21 z "},"Ừ":{"ha":967,"x_min":97,"x_max":1003,"o":"m 923 1125 l 995 1125 q 994 1031 1003 1074 q 948 961 985 988 q 882 939 919 941 q 804 943 845 937 l 804 1000 q 836 1001 819 1001 q 869 1005 853 1001 q 921 1050 915 1015 q 923 1125 927 1086 m 461 1122 l 387 1323 l 461 1323 l 536 1122 l 461 1122 m 483 -21 q 284 26 371 -21 q 147 158 197 73 q 97 358 97 243 l 97 1000 l 178 1000 l 178 374 q 207 228 178 289 q 282 129 235 167 q 381 73 328 91 q 483 55 434 55 q 586 73 533 55 q 685 129 640 91 q 760 228 731 167 q 789 374 789 289 l 789 1000 l 869 1000 l 869 358 q 820 159 869 244 q 683 26 770 74 q 483 -21 596 -21 z "},"Ử":{"ha":967,"x_min":97,"x_max":1003,"o":"m 923 1125 l 995 1125 q 994 1031 1003 1074 q 948 961 985 988 q 882 939 919 941 q 804 943 845 937 l 804 1000 q 836 1001 819 1001 q 869 1005 853 1001 q 921 1050 915 1015 q 923 1125 927 1086 m 418 1267 l 388 1310 q 448 1349 413 1337 q 516 1352 482 1360 q 574 1306 550 1343 q 593 1250 592 1278 q 582 1195 594 1222 q 550 1148 571 1169 q 501 1116 528 1128 l 467 1156 q 525 1210 510 1178 q 523 1270 540 1242 q 493 1293 511 1290 q 455 1290 474 1297 q 418 1267 435 1283 m 483 -21 q 284 26 371 -21 q 147 158 197 73 q 97 358 97 243 l 97 1000 l 178 1000 l 178 374 q 207 228 178 289 q 282 129 235 167 q 381 73 328 91 q 483 55 434 55 q 586 73 533 55 q 685 129 640 91 q 760 228 731 167 q 789 374 789 289 l 789 1000 l 869 1000 l 869 358 q 820 159 869 244 q 683 26 770 74 q 483 -21 596 -21 z "},"Ữ":{"ha":967,"x_min":97,"x_max":1003,"o":"m 923 1125 l 995 1125 q 994 1031 1003 1074 q 948 961 985 988 q 882 939 919 941 q 804 943 845 937 l 804 1000 q 836 1001 819 1001 q 869 1005 853 1001 q 921 1050 915 1015 q 923 1125 927 1086 m 483 -21 q 284 26 371 -21 q 147 158 197 73 q 97 358 97 243 l 97 1000 l 178 1000 l 178 374 q 207 228 178 289 q 282 129 235 167 q 381 73 328 91 q 483 55 434 55 q 586 73 533 55 q 685 129 640 91 q 760 228 731 167 q 789 374 789 289 l 789 1000 l 869 1000 l 869 358 q 820 159 869 244 q 683 26 770 74 q 483 -21 596 -21 m 588 1122 q 532 1133 559 1122 q 480 1159 506 1144 q 431 1184 454 1173 q 388 1195 408 1195 q 351 1174 359 1195 q 351 1131 344 1153 l 290 1131 q 303 1225 276 1187 q 385 1264 331 1264 q 441 1253 414 1264 q 494 1227 469 1242 q 543 1202 519 1213 q 587 1191 566 1191 q 622 1211 612 1191 q 622 1257 631 1231 l 683 1257 q 671 1163 698 1203 q 588 1122 644 1122 z "},"Ű":{"ha":967,"x_min":97,"x_max":869,"o":"m 636 1122 l 562 1122 l 637 1323 l 711 1323 l 636 1122 m 385 1122 l 310 1122 l 385 1323 l 459 1323 l 385 1122 m 483 -21 q 284 26 371 -21 q 147 158 197 73 q 97 358 97 243 l 97 1000 l 178 1000 l 178 374 q 207 228 178 289 q 282 129 235 167 q 381 73 328 91 q 483 55 434 55 q 586 73 533 55 q 685 129 640 91 q 760 228 731 167 q 789 374 789 289 l 789 1000 l 869 1000 l 869 358 q 820 159 869 244 q 683 26 770 74 q 483 -21 596 -21 z "},"Ū":{"ha":967,"x_min":97,"x_max":869,"o":"m 313 1167 l 313 1240 l 653 1240 l 653 1167 l 313 1167 m 483 -21 q 284 26 371 -21 q 147 158 197 73 q 97 358 97 243 l 97 1000 l 178 1000 l 178 374 q 207 228 178 289 q 282 129 235 167 q 381 73 328 91 q 483 55 434 55 q 586 73 533 55 q 685 129 640 91 q 760 228 731 167 q 789 374 789 289 l 789 1000 l 869 1000 l 869 358 q 820 159 869 244 q 683 26 770 74 q 483 -21 596 -21 z "},"Ų":{"ha":967,"x_min":97,"x_max":869,"o":"m 483 -21 q 284 26 371 -21 q 147 158 197 73 q 97 358 97 243 l 97 1000 l 178 1000 l 178 374 q 207 228 178 289 q 282 129 235 167 q 381 73 328 91 q 483 55 434 55 q 586 73 533 55 q 685 129 640 91 q 760 228 731 167 q 789 374 789 289 l 789 1000 l 869 1000 l 869 358 q 820 159 869 244 q 683 26 770 74 q 483 -21 596 -21 m 611 -287 q 548 -269 576 -287 q 501 -222 519 -251 q 484 -157 484 -192 q 509 -68 484 -114 q 576 22 534 -22 q 668 101 617 65 l 717 48 q 639 -14 675 22 q 581 -86 603 -49 q 559 -155 559 -123 q 576 -201 559 -183 q 616 -218 594 -218 q 651 -208 633 -218 q 684 -181 669 -197 l 724 -228 q 671 -273 701 -258 q 611 -287 642 -287 z "},"Ů":{"ha":967,"x_min":97,"x_max":869,"o":"m 484 1082 q 413 1101 445 1082 q 360 1153 380 1121 q 341 1226 341 1186 q 360 1298 341 1265 q 413 1350 380 1330 q 484 1369 445 1369 q 557 1350 524 1369 q 609 1298 590 1330 q 628 1226 628 1265 q 609 1153 628 1186 q 557 1101 590 1121 q 484 1082 524 1082 m 484 1149 q 539 1172 517 1149 q 560 1226 560 1194 q 539 1280 560 1258 q 484 1302 517 1302 q 430 1280 453 1302 q 408 1226 408 1258 q 430 1172 408 1194 q 484 1149 453 1149 m 483 -21 q 284 26 371 -21 q 147 158 197 73 q 97 358 97 243 l 97 1000 l 178 1000 l 178 374 q 207 228 178 289 q 282 129 235 167 q 381 73 328 91 q 483 55 434 55 q 586 73 533 55 q 685 129 640 91 q 760 228 731 167 q 789 374 789 289 l 789 1000 l 869 1000 l 869 358 q 820 159 869 244 q 683 26 770 74 q 483 -21 596 -21 z "},"Ũ":{"ha":967,"x_min":97,"x_max":869,"o":"m 483 -21 q 284 26 371 -21 q 147 158 197 73 q 97 358 97 243 l 97 1000 l 178 1000 l 178 374 q 207 228 178 289 q 282 129 235 167 q 381 73 328 91 q 483 55 434 55 q 586 73 533 55 q 685 129 640 91 q 760 228 731 167 q 789 374 789 289 l 789 1000 l 869 1000 l 869 358 q 820 159 869 244 q 683 26 770 74 q 483 -21 596 -21 m 589 1122 q 534 1133 560 1122 q 482 1159 507 1144 q 433 1184 456 1173 q 389 1195 410 1195 q 353 1174 360 1195 q 353 1131 346 1153 l 292 1131 q 305 1225 278 1187 q 387 1264 333 1264 q 443 1253 416 1264 q 496 1227 470 1242 q 544 1202 522 1213 q 588 1191 567 1191 q 623 1211 614 1191 q 624 1257 633 1231 l 685 1257 q 672 1163 699 1203 q 589 1122 645 1122 z "},"V":{"ha":822,"x_min":7,"x_max":815,"o":"m 361 0 l 7 1000 l 92 1000 l 410 100 l 730 1000 l 815 1000 l 460 0 l 361 0 z "},"W":{"ha":1281,"x_min":26,"x_max":1256,"o":"m 313 0 l 26 1000 l 108 1000 l 353 140 l 598 1000 l 682 1000 l 927 140 l 1172 1000 l 1256 1000 l 968 0 l 886 0 l 640 857 l 394 0 l 313 0 z "},"Ẃ":{"ha":1281,"x_min":26,"x_max":1256,"o":"m 683 1122 l 609 1122 l 684 1323 l 758 1323 l 683 1122 m 313 0 l 26 1000 l 108 1000 l 353 140 l 598 1000 l 682 1000 l 927 140 l 1172 1000 l 1256 1000 l 968 0 l 886 0 l 640 857 l 394 0 l 313 0 z "},"Ŵ":{"ha":1281,"x_min":26,"x_max":1256,"o":"m 452 1122 l 601 1299 l 681 1299 l 829 1122 l 742 1122 l 641 1241 l 539 1122 l 452 1122 m 313 0 l 26 1000 l 108 1000 l 353 140 l 598 1000 l 682 1000 l 927 140 l 1172 1000 l 1256 1000 l 968 0 l 886 0 l 640 857 l 394 0 l 313 0 z "},"Ẅ":{"ha":1281,"x_min":26,"x_max":1256,"o":"m 722 1156 l 722 1253 l 819 1253 l 819 1156 l 722 1156 m 464 1156 l 464 1253 l 561 1253 l 561 1156 l 464 1156 m 313 0 l 26 1000 l 108 1000 l 353 140 l 598 1000 l 682 1000 l 927 140 l 1172 1000 l 1256 1000 l 968 0 l 886 0 l 640 857 l 394 0 l 313 0 z "},"Ẁ":{"ha":1281,"x_min":26,"x_max":1256,"o":"m 598 1122 l 523 1323 l 597 1323 l 672 1122 l 598 1122 m 313 0 l 26 1000 l 108 1000 l 353 140 l 598 1000 l 682 1000 l 927 140 l 1172 1000 l 1256 1000 l 968 0 l 886 0 l 640 857 l 394 0 l 313 0 z "},"X":{"ha":819,"x_min":14,"x_max":805,"o":"m 14 0 l 363 507 l 22 1000 l 119 1000 l 409 573 l 700 1000 l 797 1000 l 456 507 l 805 0 l 708 0 l 409 440 l 110 0 l 14 0 z "},"Y":{"ha":747,"x_min":0,"x_max":747,"o":"m 333 0 l 333 422 l 0 1000 l 92 1000 l 374 514 l 654 1000 l 747 1000 l 414 422 l 414 0 l 333 0 z "},"Ý":{"ha":747,"x_min":0,"x_max":747,"o":"m 394 1122 l 320 1122 l 394 1323 l 469 1323 l 394 1122 m 333 0 l 333 422 l 0 1000 l 92 1000 l 374 514 l 654 1000 l 747 1000 l 414 422 l 414 0 l 333 0 z "},"Ŷ":{"ha":747,"x_min":0,"x_max":747,"o":"m 185 1122 l 334 1299 l 413 1299 l 562 1122 l 475 1122 l 374 1241 l 272 1122 l 185 1122 m 333 0 l 333 422 l 0 1000 l 92 1000 l 374 514 l 654 1000 l 747 1000 l 414 422 l 414 0 l 333 0 z "},"Ÿ":{"ha":747,"x_min":0,"x_max":747,"o":"m 454 1156 l 454 1253 l 551 1253 l 551 1156 l 454 1156 m 197 1156 l 197 1253 l 294 1253 l 294 1156 l 197 1156 m 333 0 l 333 422 l 0 1000 l 92 1000 l 374 514 l 654 1000 l 747 1000 l 414 422 l 414 0 l 333 0 z "},"Ỵ":{"ha":747,"x_min":0,"x_max":747,"o":"m 323 -265 l 323 -163 l 424 -163 l 424 -265 l 323 -265 m 333 0 l 333 422 l 0 1000 l 92 1000 l 374 514 l 654 1000 l 747 1000 l 414 422 l 414 0 l 333 0 z "},"Ỳ":{"ha":747,"x_min":0,"x_max":747,"o":"m 341 1122 l 266 1323 l 340 1323 l 415 1122 l 341 1122 m 333 0 l 333 422 l 0 1000 l 92 1000 l 374 514 l 654 1000 l 747 1000 l 414 422 l 414 0 l 333 0 z "},"Ỷ":{"ha":747,"x_min":0,"x_max":747,"o":"m 301 1267 l 271 1310 q 330 1349 296 1337 q 398 1352 364 1360 q 456 1306 433 1343 q 475 1250 474 1278 q 465 1195 476 1222 q 432 1148 453 1169 q 384 1116 411 1128 l 349 1156 q 407 1210 392 1178 q 406 1270 422 1242 q 375 1293 394 1290 q 338 1290 357 1297 q 301 1267 318 1283 m 333 0 l 333 422 l 0 1000 l 92 1000 l 374 514 l 654 1000 l 747 1000 l 414 422 l 414 0 l 333 0 z "},"Ỹ":{"ha":747,"x_min":0,"x_max":747,"o":"m 483 1122 q 428 1133 456 1122 q 376 1159 401 1144 q 327 1184 351 1173 q 283 1195 304 1195 q 248 1174 255 1195 q 248 1131 240 1153 l 187 1131 q 200 1225 172 1187 q 282 1264 227 1264 q 338 1253 310 1264 q 390 1227 365 1242 q 439 1202 416 1213 q 483 1191 462 1191 q 518 1211 508 1191 q 519 1257 527 1231 l 580 1257 q 567 1163 594 1203 q 483 1122 540 1122 m 333 0 l 333 422 l 0 1000 l 92 1000 l 374 514 l 654 1000 l 747 1000 l 414 422 l 414 0 l 333 0 z "},"Z":{"ha":830,"x_min":69,"x_max":760,"o":"m 69 0 l 69 22 l 633 922 l 76 922 l 76 1000 l 760 1000 l 760 976 l 199 77 l 758 77 l 758 0 l 69 0 z "},"Ź":{"ha":830,"x_min":69,"x_max":760,"o":"m 443 1122 l 369 1122 l 444 1323 l 518 1323 l 443 1122 m 69 0 l 69 22 l 633 922 l 76 922 l 76 1000 l 760 1000 l 760 976 l 199 77 l 758 77 l 758 0 l 69 0 z "},"Ž":{"ha":830,"x_min":69,"x_max":760,"o":"m 256 1299 l 343 1299 l 445 1179 l 547 1299 l 634 1299 l 485 1122 l 406 1122 l 256 1299 m 69 0 l 69 22 l 633 922 l 76 922 l 76 1000 l 760 1000 l 760 976 l 199 77 l 758 77 l 758 0 l 69 0 z "},"Ż":{"ha":830,"x_min":69,"x_max":760,"o":"m 399 1163 l 399 1264 l 499 1264 l 499 1163 l 399 1163 m 69 0 l 69 22 l 633 922 l 76 922 l 76 1000 l 760 1000 l 760 976 l 199 77 l 758 77 l 758 0 l 69 0 z "},"a":{"ha":763,"x_min":56,"x_max":679,"o":"m 314 -21 q 170 10 227 -21 q 84 91 113 40 q 56 200 56 141 q 82 307 56 264 q 154 376 109 350 q 253 416 199 403 q 386 440 315 430 q 523 458 458 450 q 628 471 588 465 l 599 453 q 554 634 602 575 q 384 694 506 694 q 243 655 299 694 q 166 536 188 617 l 84 559 q 188 716 110 661 q 387 771 265 771 q 561 731 490 771 q 659 617 631 690 q 675 548 671 588 q 679 467 679 508 l 679 0 l 606 0 l 606 197 l 633 190 q 515 34 599 89 q 314 -21 430 -21 m 318 53 q 452 80 394 53 q 545 157 510 108 q 591 274 581 207 q 599 356 598 312 q 599 420 599 399 l 634 398 q 526 386 589 392 q 398 371 463 380 q 280 348 333 362 q 214 322 247 339 q 159 275 181 305 q 138 199 138 245 q 155 131 138 165 q 211 75 172 97 q 318 53 251 53 z "},"á":{"ha":763,"x_min":56,"x_max":679,"o":"m 425 872 l 351 872 l 425 1073 l 499 1073 l 425 872 m 314 -21 q 170 10 227 -21 q 84 91 113 40 q 56 200 56 141 q 82 307 56 264 q 154 376 109 350 q 253 416 199 403 q 386 440 315 430 q 523 458 458 450 q 628 471 588 465 l 599 453 q 554 634 602 575 q 384 694 506 694 q 243 655 299 694 q 166 536 188 617 l 84 559 q 188 716 110 661 q 387 771 265 771 q 561 731 490 771 q 659 617 631 690 q 675 548 671 588 q 679 467 679 508 l 679 0 l 606 0 l 606 197 l 633 190 q 515 34 599 89 q 314 -21 430 -21 m 318 53 q 452 80 394 53 q 545 157 510 108 q 591 274 581 207 q 599 356 598 312 q 599 420 599 399 l 634 398 q 526 386 589 392 q 398 371 463 380 q 280 348 333 362 q 214 322 247 339 q 159 275 181 305 q 138 199 138 245 q 155 131 138 165 q 211 75 172 97 q 318 53 251 53 z "},"ă":{"ha":763,"x_min":56,"x_max":679,"o":"m 392 840 q 307 863 346 840 q 246 924 269 886 q 224 1009 224 963 l 293 1009 q 323 939 293 969 q 392 910 352 910 q 463 939 434 910 q 492 1009 492 969 l 561 1009 q 539 924 561 963 q 478 863 516 886 q 392 840 440 840 m 314 -21 q 170 10 227 -21 q 84 91 113 40 q 56 200 56 141 q 82 307 56 264 q 154 376 109 350 q 253 416 199 403 q 386 440 315 430 q 523 458 458 450 q 628 471 588 465 l 599 453 q 554 634 602 575 q 384 694 506 694 q 243 655 299 694 q 166 536 188 617 l 84 559 q 188 716 110 661 q 387 771 265 771 q 561 731 490 771 q 659 617 631 690 q 675 548 671 588 q 679 467 679 508 l 679 0 l 606 0 l 606 197 l 633 190 q 515 34 599 89 q 314 -21 430 -21 m 318 53 q 452 80 394 53 q 545 157 510 108 q 591 274 581 207 q 599 356 598 312 q 599 420 599 399 l 634 398 q 526 386 589 392 q 398 371 463 380 q 280 348 333 362 q 214 322 247 339 q 159 275 181 305 q 138 199 138 245 q 155 131 138 165 q 211 75 172 97 q 318 53 251 53 z "},"ắ":{"ha":763,"x_min":56,"x_max":679,"o":"m 392 840 q 307 863 345 840 q 245 924 268 886 q 223 1009 223 963 l 292 1009 q 322 939 292 969 q 392 910 351 910 q 462 939 433 910 q 491 1009 491 969 l 560 1009 q 538 924 560 963 q 477 863 515 886 q 392 840 438 840 m 426 1038 l 351 1038 l 426 1240 l 501 1240 l 426 1038 m 314 -21 q 170 10 227 -21 q 84 91 113 40 q 56 200 56 141 q 82 307 56 264 q 154 376 109 350 q 253 416 199 403 q 386 440 315 430 q 523 458 458 450 q 628 471 588 465 l 599 453 q 554 634 602 575 q 384 694 506 694 q 243 655 299 694 q 166 536 188 617 l 84 559 q 188 716 110 661 q 387 771 265 771 q 561 731 490 771 q 659 617 631 690 q 675 548 671 588 q 679 467 679 508 l 679 0 l 606 0 l 606 197 l 633 190 q 515 34 599 89 q 314 -21 430 -21 m 318 53 q 452 80 394 53 q 545 157 510 108 q 591 274 581 207 q 599 356 598 312 q 599 420 599 399 l 634 398 q 526 386 589 392 q 398 371 463 380 q 280 348 333 362 q 214 322 247 339 q 159 275 181 305 q 138 199 138 245 q 155 131 138 165 q 211 75 172 97 q 318 53 251 53 z "},"ặ":{"ha":763,"x_min":56,"x_max":679,"o":"m 321 -265 l 321 -163 l 422 -163 l 422 -265 l 321 -265 m 392 840 q 307 863 346 840 q 246 924 269 886 q 224 1009 224 963 l 293 1009 q 323 939 293 969 q 392 910 352 910 q 463 939 434 910 q 492 1009 492 969 l 561 1009 q 539 924 561 963 q 478 863 516 886 q 392 840 440 840 m 314 -21 q 170 10 227 -21 q 84 91 113 40 q 56 200 56 141 q 82 307 56 264 q 154 376 109 350 q 253 416 199 403 q 386 440 315 430 q 523 458 458 450 q 628 471 588 465 l 599 453 q 554 634 602 575 q 384 694 506 694 q 243 655 299 694 q 166 536 188 617 l 84 559 q 188 716 110 661 q 387 771 265 771 q 561 731 490 771 q 659 617 631 690 q 675 548 671 588 q 679 467 679 508 l 679 0 l 606 0 l 606 197 l 633 190 q 515 34 599 89 q 314 -21 430 -21 m 318 53 q 452 80 394 53 q 545 157 510 108 q 591 274 581 207 q 599 356 598 312 q 599 420 599 399 l 634 398 q 526 386 589 392 q 398 371 463 380 q 280 348 333 362 q 214 322 247 339 q 159 275 181 305 q 138 199 138 245 q 155 131 138 165 q 211 75 172 97 q 318 53 251 53 z "},"ằ":{"ha":763,"x_min":56,"x_max":679,"o":"m 397 840 q 311 863 350 840 q 250 924 273 886 q 228 1009 228 963 l 297 1009 q 326 939 297 969 q 397 910 355 910 q 467 939 438 910 q 496 1009 496 969 l 565 1009 q 543 924 565 963 q 482 863 520 886 q 397 840 444 840 m 363 1038 l 288 1240 l 362 1240 l 437 1038 l 363 1038 m 314 -21 q 170 10 227 -21 q 84 91 113 40 q 56 200 56 141 q 82 307 56 264 q 154 376 109 350 q 253 416 199 403 q 386 440 315 430 q 523 458 458 450 q 628 471 588 465 l 599 453 q 554 634 602 575 q 384 694 506 694 q 243 655 299 694 q 166 536 188 617 l 84 559 q 188 716 110 661 q 387 771 265 771 q 561 731 490 771 q 659 617 631 690 q 675 548 671 588 q 679 467 679 508 l 679 0 l 606 0 l 606 197 l 633 190 q 515 34 599 89 q 314 -21 430 -21 m 318 53 q 452 80 394 53 q 545 157 510 108 q 591 274 581 207 q 599 356 598 312 q 599 420 599 399 l 634 398 q 526 386 589 392 q 398 371 463 380 q 280 348 333 362 q 214 322 247 339 q 159 275 181 305 q 138 199 138 245 q 155 131 138 165 q 211 75 172 97 q 318 53 251 53 z "},"ẳ":{"ha":763,"x_min":56,"x_max":679,"o":"m 403 840 q 318 863 357 840 q 257 924 280 886 q 235 1009 235 963 l 304 1009 q 334 939 304 969 q 403 910 363 910 q 474 939 445 910 q 503 1009 503 969 l 572 1009 q 550 924 572 963 q 489 863 527 886 q 403 840 451 840 m 312 1174 l 282 1218 q 341 1257 306 1245 q 409 1260 375 1269 q 467 1214 443 1251 q 486 1158 485 1186 q 476 1103 488 1129 q 443 1057 465 1077 q 395 1024 422 1036 l 360 1065 q 418 1118 403 1086 q 416 1178 433 1149 q 386 1202 404 1198 q 348 1198 368 1206 q 312 1174 328 1190 m 314 -21 q 170 10 227 -21 q 84 91 113 40 q 56 200 56 141 q 82 307 56 264 q 154 376 109 350 q 253 416 199 403 q 386 440 315 430 q 523 458 458 450 q 628 471 588 465 l 599 453 q 554 634 602 575 q 384 694 506 694 q 243 655 299 694 q 166 536 188 617 l 84 559 q 188 716 110 661 q 387 771 265 771 q 561 731 490 771 q 659 617 631 690 q 675 548 671 588 q 679 467 679 508 l 679 0 l 606 0 l 606 197 l 633 190 q 515 34 599 89 q 314 -21 430 -21 m 318 53 q 452 80 394 53 q 545 157 510 108 q 591 274 581 207 q 599 356 598 312 q 599 420 599 399 l 634 398 q 526 386 589 392 q 398 371 463 380 q 280 348 333 362 q 214 322 247 339 q 159 275 181 305 q 138 199 138 245 q 155 131 138 165 q 211 75 172 97 q 318 53 251 53 z "},"ẵ":{"ha":763,"x_min":56,"x_max":679,"o":"m 475 1047 q 420 1057 447 1047 q 367 1083 393 1068 q 319 1108 342 1097 q 275 1119 296 1119 q 239 1098 247 1119 q 239 1056 232 1077 l 178 1056 q 191 1149 164 1110 q 273 1188 219 1188 q 329 1177 302 1188 q 382 1151 356 1166 q 430 1126 407 1137 q 474 1115 453 1115 q 509 1135 500 1115 q 510 1181 519 1156 l 572 1181 q 558 1087 585 1127 q 475 1047 531 1047 m 373 840 q 288 863 326 840 q 227 924 249 886 q 204 1009 204 963 l 274 1009 q 303 939 274 969 q 373 910 333 910 q 443 939 415 910 q 472 1009 472 969 l 542 1009 q 519 924 542 963 q 458 863 497 886 q 373 840 419 840 m 314 -21 q 170 10 227 -21 q 84 91 113 40 q 56 200 56 141 q 82 307 56 264 q 154 376 109 350 q 253 416 199 403 q 386 440 315 430 q 523 458 458 450 q 628 471 588 465 l 599 453 q 554 634 602 575 q 384 694 506 694 q 243 655 299 694 q 166 536 188 617 l 84 559 q 188 716 110 661 q 387 771 265 771 q 561 731 490 771 q 659 617 631 690 q 675 548 671 588 q 679 467 679 508 l 679 0 l 606 0 l 606 197 l 633 190 q 515 34 599 89 q 314 -21 430 -21 m 318 53 q 452 80 394 53 q 545 157 510 108 q 591 274 581 207 q 599 356 598 312 q 599 420 599 399 l 634 398 q 526 386 589 392 q 398 371 463 380 q 280 348 333 362 q 214 322 247 339 q 159 275 181 305 q 138 199 138 245 q 155 131 138 165 q 211 75 172 97 q 318 53 251 53 z "},"â":{"ha":763,"x_min":56,"x_max":679,"o":"m 203 872 l 352 1049 l 431 1049 l 581 872 l 494 872 l 392 991 l 290 872 l 203 872 m 314 -21 q 170 10 227 -21 q 84 91 113 40 q 56 200 56 141 q 82 307 56 264 q 154 376 109 350 q 253 416 199 403 q 386 440 315 430 q 523 458 458 450 q 628 471 588 465 l 599 453 q 554 634 602 575 q 384 694 506 694 q 243 655 299 694 q 166 536 188 617 l 84 559 q 188 716 110 661 q 387 771 265 771 q 561 731 490 771 q 659 617 631 690 q 675 548 671 588 q 679 467 679 508 l 679 0 l 606 0 l 606 197 l 633 190 q 515 34 599 89 q 314 -21 430 -21 m 318 53 q 452 80 394 53 q 545 157 510 108 q 591 274 581 207 q 599 356 598 312 q 599 420 599 399 l 634 398 q 526 386 589 392 q 398 371 463 380 q 280 348 333 362 q 214 322 247 339 q 159 275 181 305 q 138 199 138 245 q 155 131 138 165 q 211 75 172 97 q 318 53 251 53 z "},"ấ":{"ha":763,"x_min":56,"x_max":714,"o":"m 208 872 l 358 1049 l 437 1049 l 585 872 l 499 872 l 397 991 l 295 872 l 208 872 m 640 1017 l 565 1017 l 640 1219 l 714 1219 l 640 1017 m 314 -21 q 170 10 227 -21 q 84 91 113 40 q 56 200 56 141 q 82 307 56 264 q 154 376 109 350 q 253 416 199 403 q 386 440 315 430 q 523 458 458 450 q 628 471 588 465 l 599 453 q 554 634 602 575 q 384 694 506 694 q 243 655 299 694 q 166 536 188 617 l 84 559 q 188 716 110 661 q 387 771 265 771 q 561 731 490 771 q 659 617 631 690 q 675 548 671 588 q 679 467 679 508 l 679 0 l 606 0 l 606 197 l 633 190 q 515 34 599 89 q 314 -21 430 -21 m 318 53 q 452 80 394 53 q 545 157 510 108 q 591 274 581 207 q 599 356 598 312 q 599 420 599 399 l 634 398 q 526 386 589 392 q 398 371 463 380 q 280 348 333 362 q 214 322 247 339 q 159 275 181 305 q 138 199 138 245 q 155 131 138 165 q 211 75 172 97 q 318 53 251 53 z "},"ậ":{"ha":763,"x_min":56,"x_max":679,"o":"m 321 -265 l 321 -163 l 422 -163 l 422 -265 l 321 -265 m 203 872 l 352 1049 l 431 1049 l 581 872 l 494 872 l 392 991 l 290 872 l 203 872 m 314 -21 q 170 10 227 -21 q 84 91 113 40 q 56 200 56 141 q 82 307 56 264 q 154 376 109 350 q 253 416 199 403 q 386 440 315 430 q 523 458 458 450 q 628 471 588 465 l 599 453 q 554 634 602 575 q 384 694 506 694 q 243 655 299 694 q 166 536 188 617 l 84 559 q 188 716 110 661 q 387 771 265 771 q 561 731 490 771 q 659 617 631 690 q 675 548 671 588 q 679 467 679 508 l 679 0 l 606 0 l 606 197 l 633 190 q 515 34 599 89 q 314 -21 430 -21 m 318 53 q 452 80 394 53 q 545 157 510 108 q 591 274 581 207 q 599 356 598 312 q 599 420 599 399 l 634 398 q 526 386 589 392 q 398 371 463 380 q 280 348 333 362 q 214 322 247 339 q 159 275 181 305 q 138 199 138 245 q 155 131 138 165 q 211 75 172 97 q 318 53 251 53 z "},"ầ":{"ha":763,"x_min":56,"x_max":679,"o":"m 214 872 l 363 1049 l 442 1049 l 592 872 l 505 872 l 403 991 l 301 872 l 214 872 m 565 1017 l 490 1219 l 565 1219 l 640 1017 l 565 1017 m 314 -21 q 170 10 227 -21 q 84 91 113 40 q 56 200 56 141 q 82 307 56 264 q 154 376 109 350 q 253 416 199 403 q 386 440 315 430 q 523 458 458 450 q 628 471 588 465 l 599 453 q 554 634 602 575 q 384 694 506 694 q 243 655 299 694 q 166 536 188 617 l 84 559 q 188 716 110 661 q 387 771 265 771 q 561 731 490 771 q 659 617 631 690 q 675 548 671 588 q 679 467 679 508 l 679 0 l 606 0 l 606 197 l 633 190 q 515 34 599 89 q 314 -21 430 -21 m 318 53 q 452 80 394 53 q 545 157 510 108 q 591 274 581 207 q 599 356 598 312 q 599 420 599 399 l 634 398 q 526 386 589 392 q 398 371 463 380 q 280 348 333 362 q 214 322 247 339 q 159 275 181 305 q 138 199 138 245 q 155 131 138 165 q 211 75 172 97 q 318 53 251 53 z "},"ẩ":{"ha":763,"x_min":56,"x_max":751,"o":"m 194 872 l 342 1049 l 422 1049 l 571 872 l 484 872 l 382 991 l 281 872 l 194 872 m 576 1017 l 546 1060 q 605 1099 571 1087 q 673 1102 639 1110 q 731 1056 708 1093 q 750 1000 749 1028 q 740 945 751 972 q 707 898 728 919 q 659 866 686 878 l 624 906 q 682 960 667 928 q 681 1020 697 992 q 650 1043 669 1040 q 613 1040 632 1047 q 576 1017 593 1033 m 314 -21 q 170 10 227 -21 q 84 91 113 40 q 56 200 56 141 q 82 307 56 264 q 154 376 109 350 q 253 416 199 403 q 386 440 315 430 q 523 458 458 450 q 628 471 588 465 l 599 453 q 554 634 602 575 q 384 694 506 694 q 243 655 299 694 q 166 536 188 617 l 84 559 q 188 716 110 661 q 387 771 265 771 q 561 731 490 771 q 659 617 631 690 q 675 548 671 588 q 679 467 679 508 l 679 0 l 606 0 l 606 197 l 633 190 q 515 34 599 89 q 314 -21 430 -21 m 318 53 q 452 80 394 53 q 545 157 510 108 q 591 274 581 207 q 599 356 598 312 q 599 420 599 399 l 634 398 q 526 386 589 392 q 398 371 463 380 q 280 348 333 362 q 214 322 247 339 q 159 275 181 305 q 138 199 138 245 q 155 131 138 165 q 211 75 172 97 q 318 53 251 53 z "},"ẫ":{"ha":763,"x_min":56,"x_max":679,"o":"m 203 872 l 353 1049 l 432 1049 l 581 872 l 494 872 l 392 991 l 290 872 l 203 872 m 497 1083 q 442 1094 469 1083 q 390 1120 415 1106 q 341 1145 364 1134 q 297 1156 318 1156 q 261 1135 269 1156 q 261 1092 254 1114 l 200 1092 q 213 1186 186 1148 q 295 1225 240 1225 q 351 1214 324 1225 q 404 1189 378 1203 q 452 1163 429 1174 q 497 1152 476 1152 q 531 1172 522 1152 q 532 1218 541 1192 l 593 1218 q 581 1124 608 1164 q 497 1083 553 1083 m 314 -21 q 170 10 227 -21 q 84 91 113 40 q 56 200 56 141 q 82 307 56 264 q 154 376 109 350 q 253 416 199 403 q 386 440 315 430 q 523 458 458 450 q 628 471 588 465 l 599 453 q 554 634 602 575 q 384 694 506 694 q 243 655 299 694 q 166 536 188 617 l 84 559 q 188 716 110 661 q 387 771 265 771 q 561 731 490 771 q 659 617 631 690 q 675 548 671 588 q 679 467 679 508 l 679 0 l 606 0 l 606 197 l 633 190 q 515 34 599 89 q 314 -21 430 -21 m 318 53 q 452 80 394 53 q 545 157 510 108 q 591 274 581 207 q 599 356 598 312 q 599 420 599 399 l 634 398 q 526 386 589 392 q 398 371 463 380 q 280 348 333 362 q 214 322 247 339 q 159 275 181 305 q 138 199 138 245 q 155 131 138 165 q 211 75 172 97 q 318 53 251 53 z "},"ä":{"ha":763,"x_min":56,"x_max":679,"o":"m 478 906 l 478 1003 l 576 1003 l 576 906 l 478 906 m 221 906 l 221 1003 l 318 1003 l 318 906 l 221 906 m 314 -21 q 170 10 227 -21 q 84 91 113 40 q 56 200 56 141 q 82 307 56 264 q 154 376 109 350 q 253 416 199 403 q 386 440 315 430 q 523 458 458 450 q 628 471 588 465 l 599 453 q 554 634 602 575 q 384 694 506 694 q 243 655 299 694 q 166 536 188 617 l 84 559 q 188 716 110 661 q 387 771 265 771 q 561 731 490 771 q 659 617 631 690 q 675 548 671 588 q 679 467 679 508 l 679 0 l 606 0 l 606 197 l 633 190 q 515 34 599 89 q 314 -21 430 -21 m 318 53 q 452 80 394 53 q 545 157 510 108 q 591 274 581 207 q 599 356 598 312 q 599 420 599 399 l 634 398 q 526 386 589 392 q 398 371 463 380 q 280 348 333 362 q 214 322 247 339 q 159 275 181 305 q 138 199 138 245 q 155 131 138 165 q 211 75 172 97 q 318 53 251 53 z "},"ạ":{"ha":763,"x_min":56,"x_max":679,"o":"m 321 -265 l 321 -163 l 422 -163 l 422 -265 l 321 -265 m 314 -21 q 170 10 227 -21 q 84 91 113 40 q 56 200 56 141 q 82 307 56 264 q 154 376 109 350 q 253 416 199 403 q 386 440 315 430 q 523 458 458 450 q 628 471 588 465 l 599 453 q 554 634 602 575 q 384 694 506 694 q 243 655 299 694 q 166 536 188 617 l 84 559 q 188 716 110 661 q 387 771 265 771 q 561 731 490 771 q 659 617 631 690 q 675 548 671 588 q 679 467 679 508 l 679 0 l 606 0 l 606 197 l 633 190 q 515 34 599 89 q 314 -21 430 -21 m 318 53 q 452 80 394 53 q 545 157 510 108 q 591 274 581 207 q 599 356 598 312 q 599 420 599 399 l 634 398 q 526 386 589 392 q 398 371 463 380 q 280 348 333 362 q 214 322 247 339 q 159 275 181 305 q 138 199 138 245 q 155 131 138 165 q 211 75 172 97 q 318 53 251 53 z "},"à":{"ha":763,"x_min":56,"x_max":679,"o":"m 356 872 l 281 1073 l 356 1073 l 430 872 l 356 872 m 314 -21 q 170 10 227 -21 q 84 91 113 40 q 56 200 56 141 q 82 307 56 264 q 154 376 109 350 q 253 416 199 403 q 386 440 315 430 q 523 458 458 450 q 628 471 588 465 l 599 453 q 554 634 602 575 q 384 694 506 694 q 243 655 299 694 q 166 536 188 617 l 84 559 q 188 716 110 661 q 387 771 265 771 q 561 731 490 771 q 659 617 631 690 q 675 548 671 588 q 679 467 679 508 l 679 0 l 606 0 l 606 197 l 633 190 q 515 34 599 89 q 314 -21 430 -21 m 318 53 q 452 80 394 53 q 545 157 510 108 q 591 274 581 207 q 599 356 598 312 q 599 420 599 399 l 634 398 q 526 386 589 392 q 398 371 463 380 q 280 348 333 362 q 214 322 247 339 q 159 275 181 305 q 138 199 138 245 q 155 131 138 165 q 211 75 172 97 q 318 53 251 53 z "},"ả":{"ha":763,"x_min":56,"x_max":679,"o":"m 317 1017 l 287 1061 q 345 1100 311 1088 q 414 1102 380 1111 q 472 1057 448 1094 q 491 1001 490 1029 q 481 946 492 972 q 448 900 469 920 q 400 867 426 879 l 365 908 q 423 961 408 929 q 421 1021 438 992 q 391 1045 409 1041 q 353 1041 372 1049 q 317 1017 333 1033 m 314 -21 q 170 10 227 -21 q 84 91 113 40 q 56 200 56 141 q 82 307 56 264 q 154 376 109 350 q 253 416 199 403 q 386 440 315 430 q 523 458 458 450 q 628 471 588 465 l 599 453 q 554 634 602 575 q 384 694 506 694 q 243 655 299 694 q 166 536 188 617 l 84 559 q 188 716 110 661 q 387 771 265 771 q 561 731 490 771 q 659 617 631 690 q 675 548 671 588 q 679 467 679 508 l 679 0 l 606 0 l 606 197 l 633 190 q 515 34 599 89 q 314 -21 430 -21 m 318 53 q 452 80 394 53 q 545 157 510 108 q 591 274 581 207 q 599 356 598 312 q 599 420 599 399 l 634 398 q 526 386 589 392 q 398 371 463 380 q 280 348 333 362 q 214 322 247 339 q 159 275 181 305 q 138 199 138 245 q 155 131 138 165 q 211 75 172 97 q 318 53 251 53 z "},"ā":{"ha":763,"x_min":56,"x_max":679,"o":"m 242 917 l 242 990 l 583 990 l 583 917 l 242 917 m 314 -21 q 170 10 227 -21 q 84 91 113 40 q 56 200 56 141 q 82 307 56 264 q 154 376 109 350 q 253 416 199 403 q 386 440 315 430 q 523 458 458 450 q 628 471 588 465 l 599 453 q 554 634 602 575 q 384 694 506 694 q 243 655 299 694 q 166 536 188 617 l 84 559 q 188 716 110 661 q 387 771 265 771 q 561 731 490 771 q 659 617 631 690 q 675 548 671 588 q 679 467 679 508 l 679 0 l 606 0 l 606 197 l 633 190 q 515 34 599 89 q 314 -21 430 -21 m 318 53 q 452 80 394 53 q 545 157 510 108 q 591 274 581 207 q 599 356 598 312 q 599 420 599 399 l 634 398 q 526 386 589 392 q 398 371 463 380 q 280 348 333 362 q 214 322 247 339 q 159 275 181 305 q 138 199 138 245 q 155 131 138 165 q 211 75 172 97 q 318 53 251 53 z "},"ą":{"ha":763,"x_min":56,"x_max":685,"o":"m 573 -335 q 509 -317 538 -335 q 463 -269 480 -299 q 445 -205 445 -240 q 470 -116 445 -162 q 537 -26 495 -70 q 630 53 579 17 l 679 0 q 601 -61 637 -26 q 542 -134 565 -97 q 520 -203 520 -171 q 538 -249 520 -231 q 577 -266 555 -266 q 613 -256 594 -266 q 645 -229 631 -245 l 685 -276 q 633 -320 662 -306 q 573 -335 603 -335 m 314 -21 q 170 10 227 -21 q 84 91 113 40 q 56 200 56 141 q 82 307 56 264 q 154 376 109 350 q 253 416 199 403 q 386 440 315 430 q 523 458 458 450 q 628 471 588 465 l 599 453 q 554 634 602 575 q 384 694 506 694 q 243 655 299 694 q 166 536 188 617 l 84 559 q 188 716 110 661 q 387 771 265 771 q 561 731 490 771 q 659 617 631 690 q 675 548 671 588 q 679 467 679 508 l 679 0 l 606 0 l 606 197 l 633 190 q 515 34 599 89 q 314 -21 430 -21 m 318 53 q 452 80 394 53 q 545 157 510 108 q 591 274 581 207 q 599 356 598 312 q 599 420 599 399 l 634 398 q 526 386 589 392 q 398 371 463 380 q 280 348 333 362 q 214 322 247 339 q 159 275 181 305 q 138 199 138 245 q 155 131 138 165 q 211 75 172 97 q 318 53 251 53 z "},"å":{"ha":763,"x_min":56,"x_max":679,"o":"m 392 832 q 319 851 352 832 q 267 903 287 871 q 248 976 248 936 q 267 1048 248 1015 q 319 1100 287 1080 q 392 1119 352 1119 q 464 1100 431 1119 q 516 1048 497 1080 q 535 976 535 1015 q 516 903 535 936 q 464 851 497 871 q 392 832 431 832 m 392 899 q 446 922 424 899 q 468 976 468 944 q 446 1030 468 1008 q 392 1052 424 1052 q 338 1030 360 1052 q 315 976 315 1008 q 338 922 315 944 q 392 899 360 899 m 314 -21 q 170 10 227 -21 q 84 91 113 40 q 56 200 56 141 q 82 307 56 264 q 154 376 109 350 q 253 416 199 403 q 386 440 315 430 q 523 458 458 450 q 628 471 588 465 l 599 453 q 554 634 602 575 q 384 694 506 694 q 243 655 299 694 q 166 536 188 617 l 84 559 q 188 716 110 661 q 387 771 265 771 q 561 731 490 771 q 659 617 631 690 q 675 548 671 588 q 679 467 679 508 l 679 0 l 606 0 l 606 197 l 633 190 q 515 34 599 89 q 314 -21 430 -21 m 318 53 q 452 80 394 53 q 545 157 510 108 q 591 274 581 207 q 599 356 598 312 q 599 420 599 399 l 634 398 q 526 386 589 392 q 398 371 463 380 q 280 348 333 362 q 214 322 247 339 q 159 275 181 305 q 138 199 138 245 q 155 131 138 165 q 211 75 172 97 q 318 53 251 53 z "},"ã":{"ha":763,"x_min":56,"x_max":679,"o":"m 498 872 q 443 883 469 872 q 390 909 416 894 q 342 934 365 923 q 298 945 319 945 q 262 924 269 945 q 262 881 255 903 l 201 881 q 214 975 187 937 q 296 1014 241 1014 q 352 1003 325 1014 q 405 977 379 992 q 453 952 430 963 q 497 941 476 941 q 532 961 522 941 q 533 1007 542 981 l 594 1007 q 581 913 608 953 q 498 872 554 872 m 314 -21 q 170 10 227 -21 q 84 91 113 40 q 56 200 56 141 q 82 307 56 264 q 154 376 109 350 q 253 416 199 403 q 386 440 315 430 q 523 458 458 450 q 628 471 588 465 l 599 453 q 554 634 602 575 q 384 694 506 694 q 243 655 299 694 q 166 536 188 617 l 84 559 q 188 716 110 661 q 387 771 265 771 q 561 731 490 771 q 659 617 631 690 q 675 548 671 588 q 679 467 679 508 l 679 0 l 606 0 l 606 197 l 633 190 q 515 34 599 89 q 314 -21 430 -21 m 318 53 q 452 80 394 53 q 545 157 510 108 q 591 274 581 207 q 599 356 598 312 q 599 420 599 399 l 634 398 q 526 386 589 392 q 398 371 463 380 q 280 348 333 362 q 214 322 247 339 q 159 275 181 305 q 138 199 138 245 q 155 131 138 165 q 211 75 172 97 q 318 53 251 53 z "},"æ":{"ha":1311,"x_min":56,"x_max":1257,"o":"m 933 -21 q 752 30 826 -21 q 639 170 678 81 q 601 374 601 259 q 640 582 601 492 q 753 721 678 671 q 933 771 828 771 q 1114 718 1042 771 q 1222 571 1186 665 q 1255 352 1257 477 l 1176 352 l 1176 380 q 1114 610 1172 526 q 931 695 1056 695 q 791 655 847 695 q 708 542 735 614 q 681 375 681 469 q 744 144 681 231 q 931 57 808 57 q 1072 96 1010 57 q 1171 214 1135 135 l 1239 182 q 1165 71 1211 116 q 1060 2 1119 26 q 933 -21 1001 -21 m 318 52 q 471 91 404 52 q 567 191 538 130 q 591 269 585 228 q 599 344 598 311 q 599 385 599 376 l 613 358 l 384 356 q 310 351 352 355 q 229 334 268 348 q 164 289 190 320 q 138 203 138 258 q 186 91 138 130 q 318 52 235 52 m 320 -21 q 126 39 196 -21 q 56 203 56 99 q 80 307 56 266 q 142 370 103 347 q 224 405 181 394 q 309 418 268 415 q 378 422 349 422 l 608 426 l 599 413 q 583 567 603 505 q 515 662 563 630 q 388 694 467 694 q 247 660 308 694 q 163 544 185 626 l 84 569 q 144 680 101 635 q 251 748 188 725 q 388 771 314 771 q 572 720 503 771 q 666 580 642 670 q 677 522 674 551 q 679 466 679 493 l 648 198 q 567 66 619 114 q 450 -1 515 18 q 320 -21 385 -21 m 652 352 l 652 425 l 1212 425 l 1212 352 l 652 352 z "},"b":{"ha":811,"x_min":97,"x_max":756,"o":"m 426 -21 q 254 32 324 -21 q 147 174 184 85 q 110 376 110 264 q 147 579 110 490 q 256 719 184 668 q 433 771 328 771 q 608 719 535 771 q 718 577 680 667 q 756 376 756 488 q 717 174 756 264 q 605 32 678 84 q 426 -21 532 -21 m 97 0 l 97 1000 l 177 1000 l 177 578 l 170 578 l 170 0 l 97 0 m 421 56 q 559 98 503 56 q 642 213 614 140 q 670 376 670 285 q 643 539 670 467 q 560 652 615 610 q 419 694 505 694 q 281 654 337 694 q 198 541 226 613 q 170 376 170 469 q 198 212 170 285 q 281 98 225 140 q 421 56 337 56 z "},"c":{"ha":759,"x_min":56,"x_max":711,"o":"m 403 -21 q 214 30 291 -21 q 97 169 137 80 q 56 375 57 258 q 98 583 57 494 q 215 722 138 672 q 404 771 292 771 q 596 718 513 771 q 711 574 679 666 l 633 546 q 544 655 605 616 q 403 693 483 693 q 257 652 315 693 q 171 540 199 612 q 141 375 142 469 q 209 144 143 231 q 403 57 274 57 q 542 94 483 57 q 632 201 601 131 l 711 174 q 589 29 667 78 q 403 -21 510 -21 z "},"ć":{"ha":759,"x_min":56,"x_max":711,"o":"m 453 872 l 379 872 l 454 1073 l 528 1073 l 453 872 m 403 -21 q 214 30 291 -21 q 97 169 137 80 q 56 375 57 258 q 98 583 57 494 q 215 722 138 672 q 404 771 292 771 q 596 718 513 771 q 711 574 679 666 l 633 546 q 544 655 605 616 q 403 693 483 693 q 257 652 315 693 q 171 540 199 612 q 141 375 142 469 q 209 144 143 231 q 403 57 274 57 q 542 94 483 57 q 632 201 601 131 l 711 174 q 589 29 667 78 q 403 -21 510 -21 z "},"č":{"ha":759,"x_min":56,"x_max":711,"o":"m 215 1049 l 301 1049 l 403 929 l 506 1049 l 592 1049 l 443 872 l 364 872 l 215 1049 m 403 -21 q 214 30 291 -21 q 97 169 137 80 q 56 375 57 258 q 98 583 57 494 q 215 722 138 672 q 404 771 292 771 q 596 718 513 771 q 711 574 679 666 l 633 546 q 544 655 605 616 q 403 693 483 693 q 257 652 315 693 q 171 540 199 612 q 141 375 142 469 q 209 144 143 231 q 403 57 274 57 q 542 94 483 57 q 632 201 601 131 l 711 174 q 589 29 667 78 q 403 -21 510 -21 z "},"ç":{"ha":759,"x_min":56,"x_max":711,"o":"m 367 -333 q 321 -327 342 -333 q 281 -312 300 -321 l 303 -251 q 360 -264 337 -264 q 405 -245 390 -264 q 421 -204 421 -227 q 392 -156 421 -171 q 328 -131 364 -142 l 381 12 l 447 13 l 410 -90 q 469 -134 446 -106 q 493 -208 493 -162 q 456 -297 493 -260 q 367 -333 418 -333 m 403 -21 q 214 30 291 -21 q 97 169 137 80 q 56 375 57 258 q 98 583 57 494 q 215 722 138 672 q 404 771 292 771 q 596 718 513 771 q 711 574 679 666 l 633 546 q 544 655 605 616 q 403 693 483 693 q 257 652 315 693 q 171 540 199 612 q 141 375 142 469 q 209 144 143 231 q 403 57 274 57 q 542 94 483 57 q 632 201 601 131 l 711 174 q 589 29 667 78 q 403 -21 510 -21 z "},"ĉ":{"ha":759,"x_min":56,"x_max":711,"o":"m 216 872 l 365 1049 l 444 1049 l 593 872 l 506 872 l 404 991 l 303 872 l 216 872 m 403 -21 q 214 30 291 -21 q 97 169 137 80 q 56 375 57 258 q 98 583 57 494 q 215 722 138 672 q 404 771 292 771 q 596 718 513 771 q 711 574 679 666 l 633 546 q 544 655 605 616 q 403 693 483 693 q 257 652 315 693 q 171 540 199 612 q 141 375 142 469 q 209 144 143 231 q 403 57 274 57 q 542 94 483 57 q 632 201 601 131 l 711 174 q 589 29 667 78 q 403 -21 510 -21 z "},"ċ":{"ha":759,"x_min":56,"x_max":711,"o":"m 363 913 l 363 1014 l 464 1014 l 464 913 l 363 913 m 403 -21 q 214 30 291 -21 q 97 169 137 80 q 56 375 57 258 q 98 583 57 494 q 215 722 138 672 q 404 771 292 771 q 596 718 513 771 q 711 574 679 666 l 633 546 q 544 655 605 616 q 403 693 483 693 q 257 652 315 693 q 171 540 199 612 q 141 375 142 469 q 209 144 143 231 q 403 57 274 57 q 542 94 483 57 q 632 201 601 131 l 711 174 q 589 29 667 78 q 403 -21 510 -21 z "},"d":{"ha":811,"x_min":56,"x_max":714,"o":"m 385 -21 q 206 32 279 -21 q 94 174 133 84 q 56 376 56 264 q 94 577 56 488 q 204 719 132 667 q 378 771 276 771 q 555 719 483 771 q 664 579 627 668 q 701 376 701 490 q 664 174 701 264 q 557 32 627 85 q 385 -21 487 -21 m 390 56 q 530 98 474 56 q 614 212 586 140 q 641 376 641 285 q 613 541 641 469 q 530 654 585 613 q 392 694 474 694 q 251 652 306 694 q 168 539 195 610 q 141 376 141 467 q 169 213 141 285 q 252 98 197 140 q 390 56 308 56 m 641 0 l 641 578 l 634 578 l 634 1000 l 714 1000 l 714 0 l 641 0 z "},"ð":{"ha":802,"x_min":56,"x_max":747,"o":"m 402 -21 q 217 24 294 -22 q 98 154 140 70 q 56 350 57 238 q 99 547 57 463 q 218 676 140 631 q 402 721 295 722 q 547 692 477 722 q 662 603 616 663 q 605 782 649 706 q 486 902 560 858 q 313 953 413 946 l 324 1024 q 532 964 443 1018 q 672 813 620 910 q 719 699 702 760 q 741 555 735 638 q 747 352 747 472 q 705 154 747 238 q 586 24 663 69 q 402 -21 508 -22 m 402 56 q 597 135 530 56 q 663 351 663 215 q 594 567 663 488 q 402 644 526 646 q 207 566 274 646 q 139 350 139 485 q 207 134 139 212 q 402 56 275 56 m 425 792 l 369 838 l 569 1086 l 624 1041 l 425 792 z "},"ď":{"ha":966,"x_min":56,"x_max":965,"o":"m 385 -21 q 206 32 279 -21 q 94 174 133 84 q 56 376 56 264 q 94 577 56 488 q 204 719 132 667 q 378 771 276 771 q 555 719 483 771 q 664 579 627 668 q 701 376 701 490 q 664 174 701 264 q 557 32 627 85 q 385 -21 487 -21 m 390 56 q 530 98 474 56 q 614 212 586 140 q 641 376 641 285 q 613 541 641 469 q 530 654 585 613 q 392 694 474 694 q 251 652 306 694 q 168 539 195 610 q 141 376 141 467 q 169 213 141 285 q 252 98 197 140 q 390 56 308 56 m 641 0 l 641 578 l 634 578 l 634 1000 l 714 1000 l 714 0 l 641 0 m 863 742 l 869 785 q 905 796 894 783 q 917 830 915 809 q 917 876 919 851 l 863 876 l 863 1011 l 964 1011 l 964 841 q 935 759 964 786 q 863 742 907 732 z "},"đ":{"ha":811,"x_min":56,"x_max":814,"o":"m 474 828 l 474 901 l 814 901 l 814 828 l 474 828 m 385 -21 q 206 32 279 -21 q 94 174 133 84 q 56 376 56 264 q 94 577 56 488 q 204 719 132 667 q 378 771 276 771 q 555 719 483 771 q 664 579 627 668 q 701 376 701 490 q 664 174 701 264 q 557 32 627 85 q 385 -21 487 -21 m 390 56 q 530 98 474 56 q 614 212 586 140 q 641 376 641 285 q 613 541 641 469 q 530 654 585 613 q 392 694 474 694 q 251 652 306 694 q 168 539 195 610 q 141 376 141 467 q 169 213 141 285 q 252 98 197 140 q 390 56 308 56 m 641 0 l 641 578 l 634 578 l 634 1000 l 714 1000 l 714 0 l 641 0 z "},"e":{"ha":804,"x_min":56,"x_max":750,"o":"m 406 -21 q 220 27 299 -21 q 99 164 142 76 q 56 374 56 253 q 98 586 56 497 q 219 723 141 675 q 405 771 297 771 q 591 721 514 771 q 709 578 669 672 q 748 352 750 484 l 665 352 l 665 380 q 595 615 661 534 q 406 695 529 695 q 210 611 279 695 q 141 375 141 528 q 210 140 141 224 q 405 57 279 57 q 557 98 492 57 q 660 214 622 138 l 732 182 q 601 32 687 85 q 406 -21 516 -21 m 110 352 l 110 424 l 703 424 l 703 352 l 110 352 z "},"é":{"ha":804,"x_min":56,"x_max":750,"o":"m 456 872 l 382 872 l 457 1073 l 531 1073 l 456 872 m 406 -21 q 220 27 299 -21 q 99 164 142 76 q 56 374 56 253 q 98 586 56 497 q 219 723 141 675 q 405 771 297 771 q 591 721 514 771 q 709 578 669 672 q 748 352 750 484 l 665 352 l 665 380 q 595 615 661 534 q 406 695 529 695 q 210 611 279 695 q 141 375 141 528 q 210 140 141 224 q 405 57 279 57 q 557 98 492 57 q 660 214 622 138 l 732 182 q 601 32 687 85 q 406 -21 516 -21 m 110 352 l 110 424 l 703 424 l 703 352 l 110 352 z "},"ě":{"ha":804,"x_min":56,"x_max":750,"o":"m 215 1049 l 302 1049 l 404 929 l 506 1049 l 593 1049 l 444 872 l 365 872 l 215 1049 m 406 -21 q 220 27 299 -21 q 99 164 142 76 q 56 374 56 253 q 98 586 56 497 q 219 723 141 675 q 405 771 297 771 q 591 721 514 771 q 709 578 669 672 q 748 352 750 484 l 665 352 l 665 380 q 595 615 661 534 q 406 695 529 695 q 210 611 279 695 q 141 375 141 528 q 210 140 141 224 q 405 57 279 57 q 557 98 492 57 q 660 214 622 138 l 732 182 q 601 32 687 85 q 406 -21 516 -21 m 110 352 l 110 424 l 703 424 l 703 352 l 110 352 z "},"ê":{"ha":804,"x_min":56,"x_max":750,"o":"m 215 872 l 365 1049 l 444 1049 l 593 872 l 506 872 l 404 991 l 302 872 l 215 872 m 406 -21 q 220 27 299 -21 q 99 164 142 76 q 56 374 56 253 q 98 586 56 497 q 219 723 141 675 q 405 771 297 771 q 591 721 514 771 q 709 578 669 672 q 748 352 750 484 l 665 352 l 665 380 q 595 615 661 534 q 406 695 529 695 q 210 611 279 695 q 141 375 141 528 q 210 140 141 224 q 405 57 279 57 q 557 98 492 57 q 660 214 622 138 l 732 182 q 601 32 687 85 q 406 -21 516 -21 m 110 352 l 110 424 l 703 424 l 703 352 l 110 352 z "},"ế":{"ha":804,"x_min":56,"x_max":750,"o":"m 230 872 l 379 1049 l 458 1049 l 608 872 l 521 872 l 419 991 l 317 872 l 230 872 m 661 1017 l 587 1017 l 662 1219 l 736 1219 l 661 1017 m 406 -21 q 220 27 299 -21 q 99 164 142 76 q 56 374 56 253 q 98 586 56 497 q 219 723 141 675 q 405 771 297 771 q 591 721 514 771 q 709 578 669 672 q 748 352 750 484 l 665 352 l 665 380 q 595 615 661 534 q 406 695 529 695 q 210 611 279 695 q 141 375 141 528 q 210 140 141 224 q 405 57 279 57 q 557 98 492 57 q 660 214 622 138 l 732 182 q 601 32 687 85 q 406 -21 516 -21 m 110 352 l 110 424 l 703 424 l 703 352 l 110 352 z "},"ệ":{"ha":804,"x_min":56,"x_max":750,"o":"m 351 -265 l 351 -163 l 452 -163 l 452 -265 l 351 -265 m 215 872 l 365 1049 l 444 1049 l 593 872 l 506 872 l 404 991 l 302 872 l 215 872 m 406 -21 q 220 27 299 -21 q 99 164 142 76 q 56 374 56 253 q 98 586 56 497 q 219 723 141 675 q 405 771 297 771 q 591 721 514 771 q 709 578 669 672 q 748 352 750 484 l 665 352 l 665 380 q 595 615 661 534 q 406 695 529 695 q 210 611 279 695 q 141 375 141 528 q 210 140 141 224 q 405 57 279 57 q 557 98 492 57 q 660 214 622 138 l 732 182 q 601 32 687 85 q 406 -21 516 -21 m 110 352 l 110 424 l 703 424 l 703 352 l 110 352 z "},"ề":{"ha":804,"x_min":56,"x_max":750,"o":"m 215 872 l 364 1049 l 443 1049 l 592 872 l 506 872 l 403 991 l 302 872 l 215 872 m 566 1017 l 491 1219 l 565 1219 l 640 1017 l 566 1017 m 406 -21 q 220 27 299 -21 q 99 164 142 76 q 56 374 56 253 q 98 586 56 497 q 219 723 141 675 q 405 771 297 771 q 591 721 514 771 q 709 578 669 672 q 748 352 750 484 l 665 352 l 665 380 q 595 615 661 534 q 406 695 529 695 q 210 611 279 695 q 141 375 141 528 q 210 140 141 224 q 405 57 279 57 q 557 98 492 57 q 660 214 622 138 l 732 182 q 601 32 687 85 q 406 -21 516 -21 m 110 352 l 110 424 l 703 424 l 703 352 l 110 352 z "},"ể":{"ha":804,"x_min":56,"x_max":782,"o":"m 224 872 l 373 1049 l 452 1049 l 601 872 l 515 872 l 413 991 l 310 872 l 224 872 m 606 1017 l 576 1060 q 635 1099 601 1087 q 703 1102 669 1110 q 762 1056 738 1093 q 781 1000 779 1028 q 770 945 782 972 q 737 898 758 919 q 690 866 716 878 l 654 906 q 713 960 698 928 q 710 1020 728 992 q 680 1043 699 1040 q 642 1040 662 1047 q 606 1017 623 1033 m 406 -21 q 220 27 299 -21 q 99 164 142 76 q 56 374 56 253 q 98 586 56 497 q 219 723 141 675 q 405 771 297 771 q 591 721 514 771 q 709 578 669 672 q 748 352 750 484 l 665 352 l 665 380 q 595 615 661 534 q 406 695 529 695 q 210 611 279 695 q 141 375 141 528 q 210 140 141 224 q 405 57 279 57 q 557 98 492 57 q 660 214 622 138 l 732 182 q 601 32 687 85 q 406 -21 516 -21 m 110 352 l 110 424 l 703 424 l 703 352 l 110 352 z "},"ễ":{"ha":804,"x_min":56,"x_max":750,"o":"m 221 872 l 369 1049 l 449 1049 l 598 872 l 511 872 l 410 991 l 308 872 l 221 872 m 514 1083 q 459 1094 486 1083 q 407 1120 432 1106 q 358 1145 381 1134 q 314 1156 335 1156 q 278 1135 285 1156 q 278 1092 271 1114 l 217 1092 q 230 1186 203 1148 q 313 1225 258 1225 q 368 1214 341 1225 q 421 1189 395 1203 q 469 1163 447 1174 q 513 1152 492 1152 q 548 1172 539 1152 q 549 1218 558 1192 l 610 1218 q 597 1124 624 1164 q 514 1083 570 1083 m 406 -21 q 220 27 299 -21 q 99 164 142 76 q 56 374 56 253 q 98 586 56 497 q 219 723 141 675 q 405 771 297 771 q 591 721 514 771 q 709 578 669 672 q 748 352 750 484 l 665 352 l 665 380 q 595 615 661 534 q 406 695 529 695 q 210 611 279 695 q 141 375 141 528 q 210 140 141 224 q 405 57 279 57 q 557 98 492 57 q 660 214 622 138 l 732 182 q 601 32 687 85 q 406 -21 516 -21 m 110 352 l 110 424 l 703 424 l 703 352 l 110 352 z "},"ë":{"ha":804,"x_min":56,"x_max":750,"o":"m 485 906 l 485 1003 l 582 1003 l 582 906 l 485 906 m 227 906 l 227 1003 l 324 1003 l 324 906 l 227 906 m 406 -21 q 220 27 299 -21 q 99 164 142 76 q 56 374 56 253 q 98 586 56 497 q 219 723 141 675 q 405 771 297 771 q 591 721 514 771 q 709 578 669 672 q 748 352 750 484 l 665 352 l 665 380 q 595 615 661 534 q 406 695 529 695 q 210 611 279 695 q 141 375 141 528 q 210 140 141 224 q 405 57 279 57 q 557 98 492 57 q 660 214 622 138 l 732 182 q 601 32 687 85 q 406 -21 516 -21 m 110 352 l 110 424 l 703 424 l 703 352 l 110 352 z "},"ė":{"ha":804,"x_min":56,"x_max":750,"o":"m 354 913 l 354 1014 l 456 1014 l 456 913 l 354 913 m 406 -21 q 220 27 299 -21 q 99 164 142 76 q 56 374 56 253 q 98 586 56 497 q 219 723 141 675 q 405 771 297 771 q 591 721 514 771 q 709 578 669 672 q 748 352 750 484 l 665 352 l 665 380 q 595 615 661 534 q 406 695 529 695 q 210 611 279 695 q 141 375 141 528 q 210 140 141 224 q 405 57 279 57 q 557 98 492 57 q 660 214 622 138 l 732 182 q 601 32 687 85 q 406 -21 516 -21 m 110 352 l 110 424 l 703 424 l 703 352 l 110 352 z "},"ẹ":{"ha":804,"x_min":56,"x_max":750,"o":"m 356 -265 l 356 -163 l 457 -163 l 457 -265 l 356 -265 m 406 -21 q 220 27 299 -21 q 99 164 142 76 q 56 374 56 253 q 98 586 56 497 q 219 723 141 675 q 405 771 297 771 q 591 721 514 771 q 709 578 669 672 q 748 352 750 484 l 665 352 l 665 380 q 595 615 661 534 q 406 695 529 695 q 210 611 279 695 q 141 375 141 528 q 210 140 141 224 q 405 57 279 57 q 557 98 492 57 q 660 214 622 138 l 732 182 q 601 32 687 85 q 406 -21 516 -21 m 110 352 l 110 424 l 703 424 l 703 352 l 110 352 z "},"è":{"ha":804,"x_min":56,"x_max":750,"o":"m 380 872 l 305 1073 l 380 1073 l 454 872 l 380 872 m 406 -21 q 220 27 299 -21 q 99 164 142 76 q 56 374 56 253 q 98 586 56 497 q 219 723 141 675 q 405 771 297 771 q 591 721 514 771 q 709 578 669 672 q 748 352 750 484 l 665 352 l 665 380 q 595 615 661 534 q 406 695 529 695 q 210 611 279 695 q 141 375 141 528 q 210 140 141 224 q 405 57 279 57 q 557 98 492 57 q 660 214 622 138 l 732 182 q 601 32 687 85 q 406 -21 516 -21 m 110 352 l 110 424 l 703 424 l 703 352 l 110 352 z "},"ẻ":{"ha":833,"x_min":56,"x_max":750,"o":"m 338 1017 l 308 1061 q 366 1100 332 1088 q 435 1102 401 1111 q 493 1057 469 1094 q 512 1001 510 1029 q 501 946 513 972 q 468 900 490 920 q 421 867 447 879 l 385 908 q 444 961 429 929 q 442 1021 459 992 q 411 1045 430 1041 q 374 1041 393 1049 q 338 1017 354 1033 m 406 -21 q 220 27 299 -21 q 99 164 142 76 q 56 374 56 253 q 98 586 56 497 q 219 723 141 675 q 405 771 297 771 q 591 721 514 771 q 709 578 669 672 q 748 352 750 484 l 665 352 l 665 380 q 595 615 661 534 q 406 695 529 695 q 210 611 279 695 q 141 375 141 528 q 210 140 141 224 q 405 57 279 57 q 557 98 492 57 q 660 214 622 138 l 732 182 q 601 32 687 85 q 406 -21 516 -21 m 110 352 l 110 424 l 703 424 l 703 352 l 110 352 z "},"ē":{"ha":804,"x_min":56,"x_max":750,"o":"m 248 917 l 248 990 l 589 990 l 589 917 l 248 917 m 406 -21 q 220 27 299 -21 q 99 164 142 76 q 56 374 56 253 q 98 586 56 497 q 219 723 141 675 q 405 771 297 771 q 591 721 514 771 q 709 578 669 672 q 748 352 750 484 l 665 352 l 665 380 q 595 615 661 534 q 406 695 529 695 q 210 611 279 695 q 141 375 141 528 q 210 140 141 224 q 405 57 279 57 q 557 98 492 57 q 660 214 622 138 l 732 182 q 601 32 687 85 q 406 -21 516 -21 m 110 352 l 110 424 l 703 424 l 703 352 l 110 352 z "},"ę":{"ha":804,"x_min":56,"x_max":750,"o":"m 606 -322 q 528 -330 567 -338 q 464 -294 490 -321 q 432 -232 438 -267 q 438 -157 426 -196 q 464 -97 447 -126 q 501 -41 481 -67 q 543 10 514 -22 q 603 82 572 42 q 654 163 634 122 l 722 164 q 684 97 708 133 q 636 29 660 62 q 591 -30 611 -4 q 562 -69 571 -56 q 529 -124 544 -96 q 506 -178 514 -151 q 502 -212 502 -194 q 517 -244 503 -231 q 574 -260 542 -270 q 628 -228 605 -249 l 669 -276 q 642 -301 658 -290 q 606 -322 626 -313 m 406 -21 q 220 27 299 -21 q 99 164 142 76 q 56 374 56 253 q 98 586 56 497 q 219 723 141 675 q 405 771 297 771 q 591 721 514 771 q 709 578 669 672 q 748 352 750 484 l 665 352 l 665 380 q 595 615 661 534 q 406 695 529 695 q 210 611 279 695 q 141 375 141 528 q 210 140 141 224 q 405 57 279 57 q 557 98 492 57 q 660 214 622 138 l 732 182 q 601 32 687 85 q 406 -21 516 -21 m 110 352 l 110 424 l 703 424 l 703 352 l 110 352 z "},"ẽ":{"ha":804,"x_min":56,"x_max":750,"o":"m 507 872 q 452 883 478 872 q 400 909 425 894 q 351 934 374 923 q 307 945 328 945 q 271 924 278 945 q 271 881 264 903 l 210 881 q 223 975 196 937 q 305 1014 251 1014 q 361 1003 334 1014 q 414 977 388 992 q 463 952 440 963 q 506 941 485 941 q 541 961 532 941 q 542 1007 551 981 l 603 1007 q 590 913 617 953 q 507 872 563 872 m 406 -21 q 220 27 299 -21 q 99 164 142 76 q 56 374 56 253 q 98 586 56 497 q 219 723 141 675 q 405 771 297 771 q 591 721 514 771 q 709 578 669 672 q 748 352 750 484 l 665 352 l 665 380 q 595 615 661 534 q 406 695 529 695 q 210 611 279 695 q 141 375 141 528 q 210 140 141 224 q 405 57 279 57 q 557 98 492 57 q 660 214 622 138 l 732 182 q 601 32 687 85 q 406 -21 516 -21 m 110 352 l 110 424 l 703 424 l 703 352 l 110 352 z "},"ə":{"ha":804,"x_min":54,"x_max":749,"o":"m 397 771 q 584 723 506 771 q 706 586 663 674 q 749 376 749 497 q 706 165 749 253 q 585 27 663 76 q 399 -21 507 -21 q 213 29 290 -21 q 94 172 135 78 q 56 398 54 266 l 140 398 l 140 370 q 209 136 143 217 q 398 55 275 55 q 594 139 525 55 q 663 375 663 222 q 594 610 663 526 q 399 693 525 693 q 248 653 313 693 q 144 536 183 613 l 72 568 q 203 718 117 665 q 397 771 289 771 m 694 398 l 694 326 l 101 326 l 101 398 l 694 398 z "},"f":{"ha":482,"x_min":42,"x_max":468,"o":"m 175 0 l 175 820 q 178 876 175 849 q 191 926 181 902 q 220 970 201 949 q 264 1002 240 991 q 315 1017 288 1013 q 372 1021 342 1021 l 468 1021 l 468 951 l 378 951 q 286 922 317 951 q 255 823 255 892 l 255 0 l 175 0 m 42 677 l 42 750 l 468 750 l 468 677 l 42 677 z "},"g":{"ha":811,"x_min":56,"x_max":714,"o":"m 389 -354 q 278 -338 333 -354 q 175 -285 223 -322 q 94 -188 127 -249 l 166 -145 q 263 -244 200 -215 q 390 -274 325 -274 q 534 -241 481 -274 q 610 -140 587 -207 q 633 26 633 -73 l 633 223 l 641 223 l 641 750 l 714 750 l 714 26 q 713 -37 714 -7 q 706 -99 711 -68 q 655 -242 694 -185 q 550 -326 616 -299 q 389 -354 483 -354 m 385 -21 q 206 32 279 -21 q 94 174 133 84 q 56 376 56 264 q 94 577 56 488 q 204 719 132 667 q 378 771 276 771 q 555 719 483 771 q 664 579 627 668 q 701 376 701 490 q 664 174 701 264 q 557 32 627 85 q 385 -21 487 -21 m 390 56 q 530 98 474 56 q 614 212 586 140 q 641 376 641 285 q 613 541 641 469 q 530 654 585 613 q 392 694 474 694 q 251 652 306 694 q 168 539 195 610 q 141 376 141 467 q 169 213 141 285 q 252 98 197 140 q 390 56 308 56 z "},"ğ":{"ha":811,"x_min":56,"x_max":714,"o":"m 429 840 q 344 863 383 840 q 283 924 306 886 q 260 1009 260 963 l 330 1009 q 359 939 330 969 q 429 910 389 910 q 500 939 471 910 q 528 1009 528 969 l 598 1009 q 575 924 598 963 q 515 863 553 886 q 429 840 476 840 m 389 -354 q 278 -338 333 -354 q 175 -285 223 -322 q 94 -188 127 -249 l 166 -145 q 263 -244 200 -215 q 390 -274 325 -274 q 534 -241 481 -274 q 610 -140 587 -207 q 633 26 633 -73 l 633 223 l 641 223 l 641 750 l 714 750 l 714 26 q 713 -37 714 -7 q 706 -99 711 -68 q 655 -242 694 -185 q 550 -326 616 -299 q 389 -354 483 -354 m 385 -21 q 206 32 279 -21 q 94 174 133 84 q 56 376 56 264 q 94 577 56 488 q 204 719 132 667 q 378 771 276 771 q 555 719 483 771 q 664 579 627 668 q 701 376 701 490 q 664 174 701 264 q 557 32 627 85 q 385 -21 487 -21 m 390 56 q 530 98 474 56 q 614 212 586 140 q 641 376 641 285 q 613 541 641 469 q 530 654 585 613 q 392 694 474 694 q 251 652 306 694 q 168 539 195 610 q 141 376 141 467 q 169 213 141 285 q 252 98 197 140 q 390 56 308 56 z "},"ĝ":{"ha":811,"x_min":56,"x_max":714,"o":"m 201 872 l 350 1049 l 429 1049 l 578 872 l 492 872 l 390 991 l 288 872 l 201 872 m 389 -354 q 278 -338 333 -354 q 175 -285 223 -322 q 94 -188 127 -249 l 166 -145 q 263 -244 200 -215 q 390 -274 325 -274 q 534 -241 481 -274 q 610 -140 587 -207 q 633 26 633 -73 l 633 223 l 641 223 l 641 750 l 714 750 l 714 26 q 713 -37 714 -7 q 706 -99 711 -68 q 655 -242 694 -185 q 550 -326 616 -299 q 389 -354 483 -354 m 385 -21 q 206 32 279 -21 q 94 174 133 84 q 56 376 56 264 q 94 577 56 488 q 204 719 132 667 q 378 771 276 771 q 555 719 483 771 q 664 579 627 668 q 701 376 701 490 q 664 174 701 264 q 557 32 627 85 q 385 -21 487 -21 m 390 56 q 530 98 474 56 q 614 212 586 140 q 641 376 641 285 q 613 541 641 469 q 530 654 585 613 q 392 694 474 694 q 251 652 306 694 q 168 539 195 610 q 141 376 141 467 q 169 213 141 285 q 252 98 197 140 q 390 56 308 56 z "},"ģ":{"ha":811,"x_min":56,"x_max":714,"o":"m 463 1118 l 463 1070 q 442 1065 456 1070 q 419 1047 429 1060 q 411 1012 410 1035 l 463 1012 l 463 913 l 365 913 l 365 1012 q 397 1093 365 1068 q 463 1118 429 1118 m 389 -354 q 278 -338 333 -354 q 175 -285 223 -322 q 94 -188 127 -249 l 166 -145 q 263 -244 200 -215 q 390 -274 325 -274 q 534 -241 481 -274 q 610 -140 587 -207 q 633 26 633 -73 l 633 223 l 641 223 l 641 750 l 714 750 l 714 26 q 713 -37 714 -7 q 706 -99 711 -68 q 655 -242 694 -185 q 550 -326 616 -299 q 389 -354 483 -354 m 385 -21 q 206 32 279 -21 q 94 174 133 84 q 56 376 56 264 q 94 577 56 488 q 204 719 132 667 q 378 771 276 771 q 555 719 483 771 q 664 579 627 668 q 701 376 701 490 q 664 174 701 264 q 557 32 627 85 q 385 -21 487 -21 m 390 56 q 530 98 474 56 q 614 212 586 140 q 641 376 641 285 q 613 541 641 469 q 530 654 585 613 q 392 694 474 694 q 251 652 306 694 q 168 539 195 610 q 141 376 141 467 q 169 213 141 285 q 252 98 197 140 q 390 56 308 56 z "},"ġ":{"ha":811,"x_min":56,"x_max":714,"o":"m 378 913 l 378 1014 l 479 1014 l 479 913 l 378 913 m 389 -354 q 278 -338 333 -354 q 175 -285 223 -322 q 94 -188 127 -249 l 166 -145 q 263 -244 200 -215 q 390 -274 325 -274 q 534 -241 481 -274 q 610 -140 587 -207 q 633 26 633 -73 l 633 223 l 641 223 l 641 750 l 714 750 l 714 26 q 713 -37 714 -7 q 706 -99 711 -68 q 655 -242 694 -185 q 550 -326 616 -299 q 389 -354 483 -354 m 385 -21 q 206 32 279 -21 q 94 174 133 84 q 56 376 56 264 q 94 577 56 488 q 204 719 132 667 q 378 771 276 771 q 555 719 483 771 q 664 579 627 668 q 701 376 701 490 q 664 174 701 264 q 557 32 627 85 q 385 -21 487 -21 m 390 56 q 530 98 474 56 q 614 212 586 140 q 641 376 641 285 q 613 541 641 469 q 530 654 585 613 q 392 694 474 694 q 251 652 306 694 q 168 539 195 610 q 141 376 141 467 q 169 213 141 285 q 252 98 197 140 q 390 56 308 56 z "},"h":{"ha":810,"x_min":97,"x_max":727,"o":"m 647 0 l 647 390 q 632 517 647 461 q 589 611 618 572 q 517 670 560 650 q 415 690 474 690 q 309 669 353 690 q 235 610 264 648 q 192 519 206 572 q 178 405 178 467 l 115 413 q 156 613 115 534 q 267 730 197 692 q 425 767 338 767 q 536 749 487 767 q 621 698 585 731 q 681 620 657 665 q 716 522 704 576 q 727 410 727 469 l 727 0 l 647 0 m 97 0 l 97 1000 l 170 1000 l 170 422 l 178 422 l 178 0 l 97 0 z "},"ħ":{"ha":810,"x_min":4,"x_max":727,"o":"m 4 828 l 4 901 l 345 901 l 345 828 l 4 828 m 647 0 l 647 390 q 632 517 647 461 q 589 611 618 572 q 517 670 560 650 q 415 690 474 690 q 309 669 353 690 q 235 610 264 648 q 192 519 206 572 q 178 405 178 467 l 115 413 q 156 613 115 534 q 267 730 197 692 q 425 767 338 767 q 536 749 487 767 q 621 698 585 731 q 681 620 657 665 q 716 522 704 576 q 727 410 727 469 l 727 0 l 647 0 m 97 0 l 97 1000 l 170 1000 l 170 422 l 178 422 l 178 0 l 97 0 z "},"ĥ":{"ha":810,"x_min":-56,"x_max":727,"o":"m -56 1122 l 94 1299 l 173 1299 l 322 1122 l 235 1122 l 133 1241 l 31 1122 l -56 1122 m 647 0 l 647 390 q 632 517 647 461 q 589 611 618 572 q 517 670 560 650 q 415 690 474 690 q 309 669 353 690 q 235 610 264 648 q 192 519 206 572 q 178 405 178 467 l 115 413 q 156 613 115 534 q 267 730 197 692 q 425 767 338 767 q 536 749 487 767 q 621 698 585 731 q 681 620 657 665 q 716 522 704 576 q 727 410 727 469 l 727 0 l 647 0 m 97 0 l 97 1000 l 170 1000 l 170 422 l 178 422 l 178 0 l 97 0 z "},"i":{"ha":302,"x_min":111,"x_max":191,"o":"m 111 901 l 111 1003 l 191 1003 l 191 901 l 111 901 m 111 0 l 111 750 l 191 750 l 191 0 l 111 0 z "},"ı":{"ha":302,"x_min":111,"x_max":191,"o":"m 111 0 l 111 750 l 191 750 l 191 0 l 111 0 z "},"í":{"ha":302,"x_min":111,"x_max":265,"o":"m 190 872 l 116 872 l 190 1073 l 265 1073 l 190 872 m 111 0 l 111 750 l 191 750 l 191 0 l 111 0 z "},"î":{"ha":302,"x_min":-35,"x_max":342,"o":"m -35 872 l 113 1049 l 192 1049 l 342 872 l 255 872 l 153 991 l 51 872 l -35 872 m 111 0 l 111 750 l 191 750 l 191 0 l 111 0 z "},"ï":{"ha":302,"x_min":-26,"x_max":328,"o":"m 231 906 l 231 1003 l 328 1003 l 328 906 l 231 906 m -26 906 l -26 1003 l 71 1003 l 71 906 l -26 906 m 111 0 l 111 750 l 191 750 l 191 0 l 111 0 z "},"ị":{"ha":302,"x_min":101,"x_max":201,"o":"m 101 -265 l 101 -163 l 201 -163 l 201 -265 l 101 -265 m 111 901 l 111 1003 l 191 1003 l 191 901 l 111 901 m 111 0 l 111 750 l 191 750 l 191 0 l 111 0 z "},"ì":{"ha":302,"x_min":38,"x_max":191,"o":"m 113 872 l 38 1073 l 112 1073 l 187 872 l 113 872 m 111 0 l 111 750 l 191 750 l 191 0 l 111 0 z "},"ỉ":{"ha":302,"x_min":36,"x_max":242,"o":"m 66 1017 l 36 1061 q 95 1100 61 1088 q 164 1102 129 1111 q 222 1057 198 1094 q 241 1001 240 1029 q 230 946 242 972 q 198 900 219 920 q 149 867 176 879 l 115 908 q 173 961 158 929 q 171 1021 188 992 q 141 1045 159 1041 q 103 1041 122 1049 q 66 1017 83 1033 m 111 0 l 111 750 l 191 750 l 191 0 l 111 0 z "},"ī":{"ha":302,"x_min":-19,"x_max":322,"o":"m -19 917 l -19 990 l 322 990 l 322 917 l -19 917 m 111 0 l 111 750 l 191 750 l 191 0 l 111 0 z "},"į":{"ha":302,"x_min":-42,"x_max":197,"o":"m 85 -335 q 22 -317 51 -335 q -25 -269 -8 -299 q -42 -205 -42 -240 q -17 -116 -42 -162 q 50 -26 8 -70 q 142 53 92 17 l 191 0 q 113 -61 149 -26 q 55 -134 76 -97 q 33 -203 33 -171 q 50 -249 33 -231 q 90 -266 67 -266 q 125 -256 107 -266 q 158 -229 143 -245 l 197 -276 q 145 -320 174 -306 q 85 -335 115 -335 m 111 901 l 111 1003 l 191 1003 l 191 901 l 111 901 m 111 0 l 111 750 l 191 750 l 191 0 l 111 0 z "},"ĩ":{"ha":302,"x_min":-60,"x_max":362,"o":"m 251 872 q 197 883 224 872 q 144 909 169 894 q 95 934 119 923 q 51 945 72 945 q 16 924 23 945 q 16 881 8 903 l -45 881 q -32 975 -60 937 q 50 1014 -5 1014 q 106 1003 78 1014 q 158 977 133 992 q 207 952 184 963 q 251 941 230 941 q 286 961 276 941 q 287 1007 295 981 l 348 1007 q 335 913 362 953 q 251 872 308 872 m 111 0 l 111 750 l 191 750 l 191 0 l 111 0 z "},"j":{"ha":330,"x_min":-14,"x_max":222,"o":"m -14 -333 l -14 -254 l 31 -254 q 110 -229 78 -254 q 141 -140 141 -203 l 141 750 l 222 750 l 222 -150 q 180 -289 222 -244 q 46 -333 138 -333 l -14 -333 m 141 901 l 141 1003 l 222 1003 l 222 901 l 141 901 z "},"ĵ":{"ha":330,"x_min":-14,"x_max":369,"o":"m -14 -333 l -14 -254 l 31 -254 q 110 -229 78 -254 q 141 -140 141 -203 l 141 750 l 222 750 l 222 -150 q 180 -289 222 -244 q 46 -333 138 -333 l -14 -333 m -8 872 l 141 1049 l 220 1049 l 369 872 l 283 872 l 181 991 l 79 872 l -8 872 z "},"k":{"ha":669,"x_min":97,"x_max":697,"o":"m 97 0 l 97 1000 l 178 1000 l 178 389 l 533 750 l 644 750 l 273 375 l 697 0 l 573 0 l 178 361 l 178 0 l 97 0 z "},"ķ":{"ha":669,"x_min":97,"x_max":697,"o":"m 316 -368 l 316 -320 q 337 -315 324 -320 q 360 -297 350 -310 q 368 -262 370 -285 l 316 -262 l 316 -163 l 415 -163 l 415 -262 q 382 -343 415 -318 q 316 -368 350 -368 m 97 0 l 97 1000 l 178 1000 l 178 389 l 533 750 l 644 750 l 273 375 l 697 0 l 573 0 l 178 361 l 178 0 l 97 0 z "},"l":{"ha":302,"x_min":111,"x_max":191,"o":"m 111 0 l 111 1021 l 191 1021 l 191 0 l 111 0 z "},"ĺ":{"ha":302,"x_min":111,"x_max":265,"o":"m 190 1122 l 116 1122 l 190 1323 l 265 1323 l 190 1122 m 111 0 l 111 1021 l 191 1021 l 191 0 l 111 0 z "},"ľ":{"ha":410,"x_min":111,"x_max":409,"o":"m 111 0 l 111 1021 l 191 1021 l 191 0 l 111 0 m 308 742 l 314 785 q 350 796 340 783 q 362 830 360 809 q 363 876 364 851 l 308 876 l 308 1011 l 409 1011 l 409 841 q 381 759 409 786 q 308 742 352 732 z "},"ļ":{"ha":302,"x_min":101,"x_max":201,"o":"m 101 -368 l 101 -320 q 122 -315 109 -320 q 145 -297 135 -310 q 154 -262 156 -285 l 101 -262 l 101 -163 l 201 -163 l 201 -262 q 168 -343 201 -318 q 101 -368 135 -368 m 111 0 l 111 1021 l 191 1021 l 191 0 l 111 0 z "},"ł":{"ha":512,"x_min":62,"x_max":450,"o":"m 62 353 l 62 445 l 450 667 l 450 577 l 62 353 m 217 0 l 217 1021 l 297 1021 l 297 0 l 217 0 z "},"m":{"ha":1154,"x_min":97,"x_max":1071,"o":"m 990 0 l 991 504 q 939 647 991 595 q 810 699 888 699 q 724 678 767 699 q 653 613 681 658 q 624 491 624 568 l 568 500 q 598 643 565 582 q 690 737 631 703 q 824 770 749 770 q 1002 702 934 770 q 1071 516 1071 634 l 1069 0 l 990 0 m 97 0 l 97 750 l 170 750 l 170 581 l 177 581 l 177 0 l 97 0 m 544 0 l 545 497 q 494 644 545 590 q 363 699 444 699 q 228 642 280 699 q 177 491 177 585 l 122 519 q 155 648 122 592 q 246 738 188 705 q 379 770 304 770 q 502 742 447 770 q 591 656 558 713 q 624 513 624 599 l 623 0 l 544 0 z "},"n":{"ha":810,"x_min":97,"x_max":727,"o":"m 647 0 l 647 390 q 632 517 647 461 q 589 611 618 572 q 517 670 560 650 q 415 690 474 690 q 309 669 353 690 q 235 610 264 648 q 192 519 206 572 q 178 405 178 467 l 115 413 q 156 613 115 534 q 267 730 197 692 q 425 767 338 767 q 536 749 487 767 q 621 698 585 731 q 681 620 657 665 q 716 522 704 576 q 727 410 727 469 l 727 0 l 647 0 m 97 0 l 97 750 l 170 750 l 170 581 l 178 581 l 178 0 l 97 0 z "},"ń":{"ha":810,"x_min":97,"x_max":727,"o":"m 462 872 l 388 872 l 463 1073 l 537 1073 l 462 872 m 647 0 l 647 390 q 632 517 647 461 q 589 611 618 572 q 517 670 560 650 q 415 690 474 690 q 309 669 353 690 q 235 610 264 648 q 192 519 206 572 q 178 405 178 467 l 115 413 q 156 613 115 534 q 267 730 197 692 q 425 767 338 767 q 536 749 487 767 q 621 698 585 731 q 681 620 657 665 q 716 522 704 576 q 727 410 727 469 l 727 0 l 647 0 m 97 0 l 97 750 l 170 750 l 170 581 l 178 581 l 178 0 l 97 0 z "},"ň":{"ha":810,"x_min":97,"x_max":727,"o":"m 220 1049 l 307 1049 l 409 929 l 510 1049 l 597 1049 l 449 872 l 369 872 l 220 1049 m 647 0 l 647 390 q 632 517 647 461 q 589 611 618 572 q 517 670 560 650 q 415 690 474 690 q 309 669 353 690 q 235 610 264 648 q 192 519 206 572 q 178 405 178 467 l 115 413 q 156 613 115 534 q 267 730 197 692 q 425 767 338 767 q 536 749 487 767 q 621 698 585 731 q 681 620 657 665 q 716 522 704 576 q 727 410 727 469 l 727 0 l 647 0 m 97 0 l 97 750 l 170 750 l 170 581 l 178 581 l 178 0 l 97 0 z "},"ņ":{"ha":810,"x_min":97,"x_max":727,"o":"m 364 -368 l 364 -320 q 385 -315 372 -320 q 408 -297 398 -310 q 416 -262 418 -285 l 364 -262 l 364 -163 l 463 -163 l 463 -262 q 431 -343 463 -318 q 364 -368 398 -368 m 647 0 l 647 390 q 632 517 647 461 q 589 611 618 572 q 517 670 560 650 q 415 690 474 690 q 309 669 353 690 q 235 610 264 648 q 192 519 206 572 q 178 405 178 467 l 115 413 q 156 613 115 534 q 267 730 197 692 q 425 767 338 767 q 536 749 487 767 q 621 698 585 731 q 681 620 657 665 q 716 522 704 576 q 727 410 727 469 l 727 0 l 647 0 m 97 0 l 97 750 l 170 750 l 170 581 l 178 581 l 178 0 l 97 0 z "},"ŋ":{"ha":810,"x_min":97,"x_max":727,"o":"m 642 -260 q 586 -262 610 -265 q 538 -254 562 -260 l 538 -185 q 590 -187 569 -189 q 623 -174 611 -185 q 641 -140 635 -163 q 647 -79 647 -117 l 647 1 l 727 1 l 727 -131 q 703 -223 727 -193 q 642 -260 680 -253 m 647 0 l 647 390 q 632 517 647 461 q 589 611 618 572 q 517 670 560 650 q 415 690 474 690 q 309 669 353 690 q 235 610 264 648 q 192 519 206 572 q 178 405 178 467 l 115 413 q 156 613 115 534 q 267 730 197 692 q 425 767 338 767 q 536 749 487 767 q 621 698 585 731 q 681 620 657 665 q 716 522 704 576 q 727 410 727 469 l 727 0 l 647 0 m 97 0 l 97 750 l 170 750 l 170 581 l 178 581 l 178 0 l 97 0 z "},"ñ":{"ha":810,"x_min":97,"x_max":727,"o":"m 506 872 q 451 883 478 872 q 398 909 424 894 q 350 934 373 923 q 306 945 326 945 q 270 924 278 945 q 270 881 263 903 l 209 881 q 222 975 194 937 q 304 1014 249 1014 q 360 1003 333 1014 q 413 977 387 992 q 461 952 438 963 q 505 941 485 941 q 540 961 531 941 q 541 1007 549 981 l 602 1007 q 589 913 616 953 q 506 872 562 872 m 647 0 l 647 390 q 632 517 647 461 q 589 611 618 572 q 517 670 560 650 q 415 690 474 690 q 309 669 353 690 q 235 610 264 648 q 192 519 206 572 q 178 405 178 467 l 115 413 q 156 613 115 534 q 267 730 197 692 q 425 767 338 767 q 536 749 487 767 q 621 698 585 731 q 681 620 657 665 q 716 522 704 576 q 727 410 727 469 l 727 0 l 647 0 m 97 0 l 97 750 l 170 750 l 170 581 l 178 581 l 178 0 l 97 0 z "},"o":{"ha":810,"x_min":56,"x_max":754,"o":"m 405 -21 q 215 30 293 -21 q 97 170 138 81 q 56 376 56 260 q 97 583 56 494 q 217 722 139 672 q 405 771 295 771 q 595 720 517 771 q 714 581 673 670 q 754 376 754 492 q 713 168 754 258 q 594 29 672 79 q 405 -21 515 -21 m 405 57 q 603 146 538 57 q 669 376 669 235 q 603 607 669 521 q 405 693 537 693 q 257 652 315 693 q 170 541 199 612 q 141 376 141 469 q 208 144 141 232 q 405 57 275 57 z "},"ó":{"ha":810,"x_min":56,"x_max":754,"o":"m 440 872 l 366 872 l 441 1073 l 515 1073 l 440 872 m 405 -21 q 215 30 293 -21 q 97 170 138 81 q 56 376 56 260 q 97 583 56 494 q 217 722 139 672 q 405 771 295 771 q 595 720 517 771 q 714 581 673 670 q 754 376 754 492 q 713 168 754 258 q 594 29 672 79 q 405 -21 515 -21 m 405 57 q 603 146 538 57 q 669 376 669 235 q 603 607 669 521 q 405 693 537 693 q 257 652 315 693 q 170 541 199 612 q 141 376 141 469 q 208 144 141 232 q 405 57 275 57 z "},"ô":{"ha":810,"x_min":56,"x_max":754,"o":"m 216 872 l 365 1049 l 444 1049 l 593 872 l 506 872 l 404 991 l 303 872 l 216 872 m 405 -21 q 215 30 293 -21 q 97 170 138 81 q 56 376 56 260 q 97 583 56 494 q 217 722 139 672 q 405 771 295 771 q 595 720 517 771 q 714 581 673 670 q 754 376 754 492 q 713 168 754 258 q 594 29 672 79 q 405 -21 515 -21 m 405 57 q 603 146 538 57 q 669 376 669 235 q 603 607 669 521 q 405 693 537 693 q 257 652 315 693 q 170 541 199 612 q 141 376 141 469 q 208 144 141 232 q 405 57 275 57 z "},"ố":{"ha":810,"x_min":56,"x_max":754,"o":"m 223 872 l 372 1049 l 451 1049 l 601 872 l 514 872 l 412 991 l 310 872 l 223 872 m 654 1017 l 580 1017 l 655 1219 l 729 1219 l 654 1017 m 405 -21 q 215 30 293 -21 q 97 170 138 81 q 56 376 56 260 q 97 583 56 494 q 217 722 139 672 q 405 771 295 771 q 595 720 517 771 q 714 581 673 670 q 754 376 754 492 q 713 168 754 258 q 594 29 672 79 q 405 -21 515 -21 m 405 57 q 603 146 538 57 q 669 376 669 235 q 603 607 669 521 q 405 693 537 693 q 257 652 315 693 q 170 541 199 612 q 141 376 141 469 q 208 144 141 232 q 405 57 275 57 z "},"ộ":{"ha":810,"x_min":56,"x_max":754,"o":"m 357 -265 l 357 -163 l 458 -163 l 458 -265 l 357 -265 m 216 872 l 365 1049 l 444 1049 l 593 872 l 506 872 l 404 991 l 303 872 l 216 872 m 405 -21 q 215 30 293 -21 q 97 170 138 81 q 56 376 56 260 q 97 583 56 494 q 217 722 139 672 q 405 771 295 771 q 595 720 517 771 q 714 581 673 670 q 754 376 754 492 q 713 168 754 258 q 594 29 672 79 q 405 -21 515 -21 m 405 57 q 603 146 538 57 q 669 376 669 235 q 603 607 669 521 q 405 693 537 693 q 257 652 315 693 q 170 541 199 612 q 141 376 141 469 q 208 144 141 232 q 405 57 275 57 z "},"ồ":{"ha":810,"x_min":56,"x_max":754,"o":"m 232 872 l 381 1049 l 460 1049 l 609 872 l 522 872 l 421 991 l 319 872 l 232 872 m 583 1017 l 508 1219 l 582 1219 l 657 1017 l 583 1017 m 405 -21 q 215 30 293 -21 q 97 170 138 81 q 56 376 56 260 q 97 583 56 494 q 217 722 139 672 q 405 771 295 771 q 595 720 517 771 q 714 581 673 670 q 754 376 754 492 q 713 168 754 258 q 594 29 672 79 q 405 -21 515 -21 m 405 57 q 603 146 538 57 q 669 376 669 235 q 603 607 669 521 q 405 693 537 693 q 257 652 315 693 q 170 541 199 612 q 141 376 141 469 q 208 144 141 232 q 405 57 275 57 z "},"ổ":{"ha":810,"x_min":56,"x_max":773,"o":"m 215 872 l 364 1049 l 443 1049 l 592 872 l 506 872 l 403 991 l 302 872 l 215 872 m 597 1017 l 567 1060 q 626 1099 592 1087 q 695 1102 660 1110 q 753 1056 729 1093 q 772 1000 771 1028 q 761 945 773 972 q 729 898 750 919 q 681 866 708 878 l 646 906 q 704 960 689 928 q 702 1020 719 992 q 672 1043 690 1040 q 634 1040 653 1047 q 597 1017 615 1033 m 405 -21 q 215 30 293 -21 q 97 170 138 81 q 56 376 56 260 q 97 583 56 494 q 217 722 139 672 q 405 771 295 771 q 595 720 517 771 q 714 581 673 670 q 754 376 754 492 q 713 168 754 258 q 594 29 672 79 q 405 -21 515 -21 m 405 57 q 603 146 538 57 q 669 376 669 235 q 603 607 669 521 q 405 693 537 693 q 257 652 315 693 q 170 541 199 612 q 141 376 141 469 q 208 144 141 232 q 405 57 275 57 z "},"ỗ":{"ha":810,"x_min":56,"x_max":754,"o":"m 221 872 l 369 1049 l 449 1049 l 598 872 l 511 872 l 409 991 l 308 872 l 221 872 m 514 1083 q 459 1094 485 1083 q 407 1120 432 1106 q 358 1145 381 1134 q 314 1156 335 1156 q 278 1135 285 1156 q 278 1092 271 1114 l 217 1092 q 230 1186 203 1148 q 312 1225 258 1225 q 368 1214 341 1225 q 421 1189 395 1203 q 469 1163 447 1174 q 513 1152 492 1152 q 548 1172 539 1152 q 549 1218 558 1192 l 610 1218 q 597 1124 624 1164 q 514 1083 570 1083 m 405 -21 q 215 30 293 -21 q 97 170 138 81 q 56 376 56 260 q 97 583 56 494 q 217 722 139 672 q 405 771 295 771 q 595 720 517 771 q 714 581 673 670 q 754 376 754 492 q 713 168 754 258 q 594 29 672 79 q 405 -21 515 -21 m 405 57 q 603 146 538 57 q 669 376 669 235 q 603 607 669 521 q 405 693 537 693 q 257 652 315 693 q 170 541 199 612 q 141 376 141 469 q 208 144 141 232 q 405 57 275 57 z "},"ö":{"ha":810,"x_min":56,"x_max":754,"o":"m 485 906 l 485 1003 l 582 1003 l 582 906 l 485 906 m 228 906 l 228 1003 l 325 1003 l 325 906 l 228 906 m 405 -21 q 215 30 293 -21 q 97 170 138 81 q 56 376 56 260 q 97 583 56 494 q 217 722 139 672 q 405 771 295 771 q 595 720 517 771 q 714 581 673 670 q 754 376 754 492 q 713 168 754 258 q 594 29 672 79 q 405 -21 515 -21 m 405 57 q 603 146 538 57 q 669 376 669 235 q 603 607 669 521 q 405 693 537 693 q 257 652 315 693 q 170 541 199 612 q 141 376 141 469 q 208 144 141 232 q 405 57 275 57 z "},"ọ":{"ha":810,"x_min":56,"x_max":754,"o":"m 354 -265 l 354 -163 l 456 -163 l 456 -265 l 354 -265 m 405 -21 q 215 30 293 -21 q 97 170 138 81 q 56 376 56 260 q 97 583 56 494 q 217 722 139 672 q 405 771 295 771 q 595 720 517 771 q 714 581 673 670 q 754 376 754 492 q 713 168 754 258 q 594 29 672 79 q 405 -21 515 -21 m 405 57 q 603 146 538 57 q 669 376 669 235 q 603 607 669 521 q 405 693 537 693 q 257 652 315 693 q 170 541 199 612 q 141 376 141 469 q 208 144 141 232 q 405 57 275 57 z "},"ò":{"ha":810,"x_min":56,"x_max":754,"o":"m 362 872 l 288 1073 l 362 1073 l 436 872 l 362 872 m 405 -21 q 215 30 293 -21 q 97 170 138 81 q 56 376 56 260 q 97 583 56 494 q 217 722 139 672 q 405 771 295 771 q 595 720 517 771 q 714 581 673 670 q 754 376 754 492 q 713 168 754 258 q 594 29 672 79 q 405 -21 515 -21 m 405 57 q 603 146 538 57 q 669 376 669 235 q 603 607 669 521 q 405 693 537 693 q 257 652 315 693 q 170 541 199 612 q 141 376 141 469 q 208 144 141 232 q 405 57 275 57 z "},"ỏ":{"ha":810,"x_min":56,"x_max":754,"o":"m 338 1017 l 308 1061 q 366 1100 332 1088 q 435 1102 401 1111 q 493 1057 469 1094 q 512 1001 510 1029 q 501 946 513 972 q 468 900 490 920 q 421 867 447 879 l 385 908 q 444 961 429 929 q 442 1021 459 992 q 411 1045 430 1041 q 374 1041 393 1049 q 338 1017 354 1033 m 405 -21 q 215 30 293 -21 q 97 170 138 81 q 56 376 56 260 q 97 583 56 494 q 217 722 139 672 q 405 771 295 771 q 595 720 517 771 q 714 581 673 670 q 754 376 754 492 q 713 168 754 258 q 594 29 672 79 q 405 -21 515 -21 m 405 57 q 603 146 538 57 q 669 376 669 235 q 603 607 669 521 q 405 693 537 693 q 257 652 315 693 q 170 541 199 612 q 141 376 141 469 q 208 144 141 232 q 405 57 275 57 z "},"ơ":{"ha":810,"x_min":56,"x_max":758,"o":"m 677 875 l 749 875 q 749 782 758 824 q 701 711 740 739 q 623 686 672 692 q 524 710 573 680 l 524 753 q 584 742 560 742 q 629 753 608 742 q 674 804 667 772 q 677 875 681 837 m 405 -21 q 215 30 293 -21 q 97 170 138 81 q 56 376 56 260 q 97 583 56 494 q 217 722 139 672 q 405 771 295 771 q 595 720 517 771 q 714 581 673 670 q 754 376 754 492 q 713 168 754 258 q 594 29 672 79 q 405 -21 515 -21 m 405 57 q 603 146 538 57 q 669 376 669 235 q 603 607 669 521 q 405 693 537 693 q 257 652 315 693 q 170 541 199 612 q 141 376 141 469 q 208 144 141 232 q 405 57 275 57 z "},"ớ":{"ha":840,"x_min":56,"x_max":758,"o":"m 677 875 l 749 875 q 749 782 758 824 q 701 711 740 739 q 623 686 672 692 q 524 710 573 680 l 524 753 q 584 742 560 742 q 629 753 608 742 q 674 804 667 772 q 677 875 681 837 m 440 872 l 366 872 l 441 1073 l 515 1073 l 440 872 m 405 -21 q 215 30 293 -21 q 97 170 138 81 q 56 376 56 260 q 97 583 56 494 q 217 722 139 672 q 405 771 295 771 q 595 720 517 771 q 714 581 673 670 q 754 376 754 492 q 713 168 754 258 q 594 29 672 79 q 405 -21 515 -21 m 405 57 q 603 146 538 57 q 669 376 669 235 q 603 607 669 521 q 405 693 537 693 q 257 652 315 693 q 170 541 199 612 q 141 376 141 469 q 208 144 141 232 q 405 57 275 57 z "},"ợ":{"ha":810,"x_min":56,"x_max":758,"o":"m 356 -265 l 356 -163 l 457 -163 l 457 -265 l 356 -265 m 677 875 l 749 875 q 749 782 758 824 q 701 711 740 739 q 623 686 672 692 q 524 710 573 680 l 524 753 q 584 742 560 742 q 629 753 608 742 q 674 804 667 772 q 677 875 681 837 m 405 -21 q 215 30 293 -21 q 97 170 138 81 q 56 376 56 260 q 97 583 56 494 q 217 722 139 672 q 405 771 295 771 q 595 720 517 771 q 714 581 673 670 q 754 376 754 492 q 713 168 754 258 q 594 29 672 79 q 405 -21 515 -21 m 405 57 q 603 146 538 57 q 669 376 669 235 q 603 607 669 521 q 405 693 537 693 q 257 652 315 693 q 170 541 199 612 q 141 376 141 469 q 208 144 141 232 q 405 57 275 57 z "},"ờ":{"ha":840,"x_min":56,"x_max":758,"o":"m 677 875 l 749 875 q 749 782 758 824 q 701 711 740 739 q 623 686 672 692 q 524 710 573 680 l 524 753 q 584 742 560 742 q 629 753 608 742 q 674 804 667 772 q 677 875 681 837 m 362 872 l 288 1073 l 362 1073 l 436 872 l 362 872 m 405 -21 q 215 30 293 -21 q 97 170 138 81 q 56 376 56 260 q 97 583 56 494 q 217 722 139 672 q 405 771 295 771 q 595 720 517 771 q 714 581 673 670 q 754 376 754 492 q 713 168 754 258 q 594 29 672 79 q 405 -21 515 -21 m 405 57 q 603 146 538 57 q 669 376 669 235 q 603 607 669 521 q 405 693 537 693 q 257 652 315 693 q 170 541 199 612 q 141 376 141 469 q 208 144 141 232 q 405 57 275 57 z "},"ở":{"ha":810,"x_min":56,"x_max":758,"o":"m 338 1017 l 308 1061 q 366 1100 332 1088 q 435 1102 401 1111 q 493 1057 469 1094 q 512 1001 510 1029 q 501 946 513 972 q 468 900 490 920 q 421 867 447 879 l 385 908 q 444 961 429 929 q 442 1021 459 992 q 411 1045 430 1041 q 374 1041 393 1049 q 338 1017 354 1033 m 677 875 l 749 875 q 749 782 758 824 q 701 711 740 739 q 623 686 672 692 q 524 710 573 680 l 524 753 q 584 742 560 742 q 629 753 608 742 q 674 804 667 772 q 677 875 681 837 m 405 -21 q 215 30 293 -21 q 97 170 138 81 q 56 376 56 260 q 97 583 56 494 q 217 722 139 672 q 405 771 295 771 q 595 720 517 771 q 714 581 673 670 q 754 376 754 492 q 713 168 754 258 q 594 29 672 79 q 405 -21 515 -21 m 405 57 q 603 146 538 57 q 669 376 669 235 q 603 607 669 521 q 405 693 537 693 q 257 652 315 693 q 170 541 199 612 q 141 376 141 469 q 208 144 141 232 q 405 57 275 57 z "},"ỡ":{"ha":810,"x_min":56,"x_max":758,"o":"m 507 872 q 452 883 478 872 q 400 909 425 894 q 351 934 374 923 q 307 945 328 945 q 271 924 278 945 q 271 881 264 903 l 210 881 q 223 975 196 937 q 305 1014 251 1014 q 361 1003 334 1014 q 414 977 388 992 q 463 952 440 963 q 506 941 485 941 q 541 961 532 941 q 542 1007 551 981 l 603 1007 q 590 913 617 953 q 507 872 563 872 m 677 875 l 749 875 q 749 782 758 824 q 701 711 740 739 q 623 686 672 692 q 524 710 573 680 l 524 753 q 584 742 560 742 q 629 753 608 742 q 674 804 667 772 q 677 875 681 837 m 405 -21 q 215 30 293 -21 q 97 170 138 81 q 56 376 56 260 q 97 583 56 494 q 217 722 139 672 q 405 771 295 771 q 595 720 517 771 q 714 581 673 670 q 754 376 754 492 q 713 168 754 258 q 594 29 672 79 q 405 -21 515 -21 m 405 57 q 603 146 538 57 q 669 376 669 235 q 603 607 669 521 q 405 693 537 693 q 257 652 315 693 q 170 541 199 612 q 141 376 141 469 q 208 144 141 232 q 405 57 275 57 z "},"ő":{"ha":810,"x_min":56,"x_max":754,"o":"m 569 872 l 494 872 l 569 1073 l 643 1073 l 569 872 m 317 872 l 242 872 l 317 1073 l 392 1073 l 317 872 m 405 -21 q 215 30 293 -21 q 97 170 138 81 q 56 376 56 260 q 97 583 56 494 q 217 722 139 672 q 405 771 295 771 q 595 720 517 771 q 714 581 673 670 q 754 376 754 492 q 713 168 754 258 q 594 29 672 79 q 405 -21 515 -21 m 405 57 q 603 146 538 57 q 669 376 669 235 q 603 607 669 521 q 405 693 537 693 q 257 652 315 693 q 170 541 199 612 q 141 376 141 469 q 208 144 141 232 q 405 57 275 57 z "},"ō":{"ha":810,"x_min":56,"x_max":754,"o":"m 235 917 l 235 990 l 575 990 l 575 917 l 235 917 m 405 -21 q 215 30 293 -21 q 97 170 138 81 q 56 376 56 260 q 97 583 56 494 q 217 722 139 672 q 405 771 295 771 q 595 720 517 771 q 714 581 673 670 q 754 376 754 492 q 713 168 754 258 q 594 29 672 79 q 405 -21 515 -21 m 405 57 q 603 146 538 57 q 669 376 669 235 q 603 607 669 521 q 405 693 537 693 q 257 652 315 693 q 170 541 199 612 q 141 376 141 469 q 208 144 141 232 q 405 57 275 57 z "},"ø":{"ha":810,"x_min":25,"x_max":785,"o":"m 81 -3 l 25 52 l 141 168 l 163 185 l 614 635 l 631 657 l 729 753 l 785 699 l 672 588 l 651 572 l 210 131 l 192 108 l 81 -3 m 405 -21 q 215 30 293 -21 q 97 170 138 81 q 56 376 56 260 q 97 583 56 494 q 217 722 139 672 q 405 771 295 771 q 595 720 517 771 q 714 581 673 670 q 754 376 754 492 q 713 168 754 258 q 594 29 672 79 q 405 -21 515 -21 m 405 57 q 603 146 538 57 q 669 376 669 235 q 603 607 669 521 q 405 693 537 693 q 257 652 315 693 q 170 541 199 612 q 141 376 141 469 q 208 144 141 232 q 405 57 275 57 z "},"õ":{"ha":810,"x_min":56,"x_max":754,"o":"m 506 872 q 451 883 478 872 q 398 909 424 894 q 350 934 373 923 q 306 945 326 945 q 270 924 278 945 q 270 881 263 903 l 209 881 q 222 975 194 937 q 304 1014 249 1014 q 360 1003 333 1014 q 413 977 387 992 q 461 952 438 963 q 505 941 485 941 q 540 961 531 941 q 541 1007 549 981 l 602 1007 q 589 913 616 953 q 506 872 562 872 m 405 -21 q 215 30 293 -21 q 97 170 138 81 q 56 376 56 260 q 97 583 56 494 q 217 722 139 672 q 405 771 295 771 q 595 720 517 771 q 714 581 673 670 q 754 376 754 492 q 713 168 754 258 q 594 29 672 79 q 405 -21 515 -21 m 405 57 q 603 146 538 57 q 669 376 669 235 q 603 607 669 521 q 405 693 537 693 q 257 652 315 693 q 170 541 199 612 q 141 376 141 469 q 208 144 141 232 q 405 57 275 57 z "},"œ":{"ha":1418,"x_min":56,"x_max":1364,"o":"m 1020 -21 q 834 27 913 -21 q 713 164 756 76 q 669 374 669 253 q 712 586 669 497 q 833 723 755 675 q 1019 771 911 771 q 1205 721 1128 771 q 1323 578 1283 672 q 1362 352 1364 484 l 1278 352 l 1278 380 q 1209 615 1275 534 q 1020 695 1143 695 q 824 611 893 695 q 755 375 755 528 q 824 140 755 224 q 1019 57 893 57 q 1170 98 1106 57 q 1274 214 1235 138 l 1346 182 q 1215 32 1301 85 q 1020 -21 1130 -21 m 724 352 l 724 424 l 1317 424 l 1317 352 l 724 352 m 405 -21 q 215 30 293 -21 q 97 170 138 81 q 56 376 56 260 q 97 583 56 494 q 217 722 139 672 q 405 771 295 771 q 595 720 517 771 q 714 581 673 670 q 754 376 754 492 q 713 168 754 258 q 594 29 672 79 q 405 -21 515 -21 m 405 57 q 603 146 538 57 q 669 376 669 235 q 603 607 669 521 q 405 693 537 693 q 257 652 315 693 q 170 541 199 612 q 141 376 141 469 q 208 144 141 232 q 405 57 275 57 z "},"p":{"ha":811,"x_min":97,"x_max":756,"o":"m 426 -21 q 254 32 324 -21 q 147 174 184 85 q 110 376 110 264 q 147 579 110 490 q 256 719 184 668 q 433 771 328 771 q 608 719 535 771 q 718 577 680 667 q 756 376 756 488 q 717 174 756 264 q 605 32 678 84 q 426 -21 532 -21 m 97 -333 l 97 750 l 170 750 l 170 172 l 177 172 l 177 -333 l 97 -333 m 421 56 q 559 98 503 56 q 642 213 614 140 q 670 376 670 285 q 643 539 670 467 q 560 652 615 610 q 419 694 505 694 q 281 654 337 694 q 198 541 226 613 q 170 376 170 469 q 198 212 170 285 q 281 98 225 140 q 421 56 337 56 z "},"þ":{"ha":811,"x_min":97,"x_max":756,"o":"m 97 553 l 97 1000 l 178 1000 l 178 553 l 97 553 m 426 -21 q 254 32 324 -21 q 147 174 184 85 q 110 376 110 264 q 147 579 110 490 q 256 719 184 668 q 433 771 328 771 q 608 719 535 771 q 718 577 680 667 q 756 376 756 488 q 717 174 756 264 q 605 32 678 84 q 426 -21 532 -21 m 97 -333 l 97 750 l 170 750 l 170 172 l 177 172 l 177 -333 l 97 -333 m 421 56 q 559 98 503 56 q 642 213 614 140 q 670 376 670 285 q 643 539 670 467 q 560 652 615 610 q 419 694 505 694 q 281 654 337 694 q 198 541 226 613 q 170 376 170 469 q 198 212 170 285 q 281 98 225 140 q 421 56 337 56 z "},"q":{"ha":811,"x_min":56,"x_max":714,"o":"m 385 -21 q 206 32 279 -21 q 94 174 133 84 q 56 376 56 264 q 94 577 56 488 q 204 719 132 667 q 378 771 276 771 q 555 719 483 771 q 664 579 627 668 q 701 376 701 490 q 664 174 701 264 q 557 32 627 85 q 385 -21 487 -21 m 390 56 q 530 98 474 56 q 614 212 586 140 q 641 376 641 285 q 613 541 641 469 q 530 654 585 613 q 392 694 474 694 q 251 652 306 694 q 168 539 195 610 q 141 376 141 467 q 169 213 141 285 q 252 98 197 140 q 390 56 308 56 m 634 -333 l 634 172 l 641 172 l 641 750 l 714 750 l 714 -333 l 634 -333 z "},"r":{"ha":483,"x_min":97,"x_max":449,"o":"m 97 0 l 97 750 l 170 750 l 170 570 l 152 594 q 184 653 165 626 q 223 698 203 681 q 293 740 253 726 q 374 757 333 754 q 449 750 415 759 l 449 674 q 354 678 404 685 q 260 635 304 672 q 205 558 222 602 q 183 466 188 514 q 178 372 178 417 l 178 0 l 97 0 z "},"ŕ":{"ha":483,"x_min":97,"x_max":449,"o":"m 260 872 l 185 872 l 260 1073 l 334 1073 l 260 872 m 97 0 l 97 750 l 170 750 l 170 570 l 152 594 q 184 653 165 626 q 223 698 203 681 q 293 740 253 726 q 374 757 333 754 q 449 750 415 759 l 449 674 q 354 678 404 685 q 260 635 304 672 q 205 558 222 602 q 183 466 188 514 q 178 372 178 417 l 178 0 l 97 0 z "},"ř":{"ha":483,"x_min":84,"x_max":461,"o":"m 84 1049 l 171 1049 l 272 929 l 374 1049 l 461 1049 l 312 872 l 233 872 l 84 1049 m 97 0 l 97 750 l 170 750 l 170 570 l 152 594 q 184 653 165 626 q 223 698 203 681 q 293 740 253 726 q 374 757 333 754 q 449 750 415 759 l 449 674 q 354 678 404 685 q 260 635 304 672 q 205 558 222 602 q 183 466 188 514 q 178 372 178 417 l 178 0 l 97 0 z "},"ŗ":{"ha":483,"x_min":88,"x_max":449,"o":"m 88 -368 l 88 -320 q 109 -315 96 -320 q 132 -297 122 -310 q 140 -262 142 -285 l 88 -262 l 88 -163 l 187 -163 l 187 -262 q 155 -343 187 -318 q 88 -368 122 -368 m 97 0 l 97 750 l 170 750 l 170 570 l 152 594 q 184 653 165 626 q 223 698 203 681 q 293 740 253 726 q 374 757 333 754 q 449 750 415 759 l 449 674 q 354 678 404 685 q 260 635 304 672 q 205 558 222 602 q 183 466 188 514 q 178 372 178 417 l 178 0 l 97 0 z "},"s":{"ha":722,"x_min":56,"x_max":665,"o":"m 374 -19 q 160 35 244 -19 q 56 188 76 90 l 138 202 q 219 96 155 135 q 378 56 284 56 q 526 96 471 56 q 581 204 581 135 q 564 266 581 242 q 497 310 547 290 q 348 357 447 330 q 185 413 244 385 q 102 476 126 440 q 78 563 78 511 q 114 671 78 624 q 213 744 149 718 q 360 771 276 771 q 510 743 443 771 q 617 667 576 716 q 665 553 658 618 l 583 538 q 510 652 571 610 q 357 695 449 694 q 215 661 270 697 q 160 567 160 625 q 180 510 160 533 q 247 467 199 487 q 385 426 296 448 q 554 369 493 398 q 640 300 615 340 q 665 203 665 261 q 587 40 665 99 q 374 -19 510 -19 z "},"ś":{"ha":722,"x_min":56,"x_max":665,"o":"m 402 872 l 327 872 l 402 1073 l 476 1073 l 402 872 m 374 -19 q 160 35 244 -19 q 56 188 76 90 l 138 202 q 219 96 155 135 q 378 56 284 56 q 526 96 471 56 q 581 204 581 135 q 564 266 581 242 q 497 310 547 290 q 348 357 447 330 q 185 413 244 385 q 102 476 126 440 q 78 563 78 511 q 114 671 78 624 q 213 744 149 718 q 360 771 276 771 q 510 743 443 771 q 617 667 576 716 q 665 553 658 618 l 583 538 q 510 652 571 610 q 357 695 449 694 q 215 661 270 697 q 160 567 160 625 q 180 510 160 533 q 247 467 199 487 q 385 426 296 448 q 554 369 493 398 q 640 300 615 340 q 665 203 665 261 q 587 40 665 99 q 374 -19 510 -19 z "},"š":{"ha":722,"x_min":56,"x_max":665,"o":"m 188 1049 l 275 1049 l 377 929 l 479 1049 l 566 1049 l 417 872 l 338 872 l 188 1049 m 374 -19 q 160 35 244 -19 q 56 188 76 90 l 138 202 q 219 96 155 135 q 378 56 284 56 q 526 96 471 56 q 581 204 581 135 q 564 266 581 242 q 497 310 547 290 q 348 357 447 330 q 185 413 244 385 q 102 476 126 440 q 78 563 78 511 q 114 671 78 624 q 213 744 149 718 q 360 771 276 771 q 510 743 443 771 q 617 667 576 716 q 665 553 658 618 l 583 538 q 510 652 571 610 q 357 695 449 694 q 215 661 270 697 q 160 567 160 625 q 180 510 160 533 q 247 467 199 487 q 385 426 296 448 q 554 369 493 398 q 640 300 615 340 q 665 203 665 261 q 587 40 665 99 q 374 -19 510 -19 z "},"ş":{"ha":722,"x_min":56,"x_max":665,"o":"m 352 -333 q 307 -327 328 -333 q 266 -312 285 -321 l 289 -251 q 346 -264 323 -264 q 391 -245 375 -264 q 407 -204 407 -227 q 378 -156 407 -171 q 314 -131 349 -142 l 366 12 l 433 13 l 395 -90 q 456 -134 432 -106 q 479 -208 479 -162 q 442 -297 479 -260 q 352 -333 404 -333 m 374 -19 q 160 35 244 -19 q 56 188 76 90 l 138 202 q 219 96 155 135 q 378 56 284 56 q 526 96 471 56 q 581 204 581 135 q 564 266 581 242 q 497 310 547 290 q 348 357 447 330 q 185 413 244 385 q 102 476 126 440 q 78 563 78 511 q 114 671 78 624 q 213 744 149 718 q 360 771 276 771 q 510 743 443 771 q 617 667 576 716 q 665 553 658 618 l 583 538 q 510 652 571 610 q 357 695 449 694 q 215 661 270 697 q 160 567 160 625 q 180 510 160 533 q 247 467 199 487 q 385 426 296 448 q 554 369 493 398 q 640 300 615 340 q 665 203 665 261 q 587 40 665 99 q 374 -19 510 -19 z "},"ŝ":{"ha":722,"x_min":56,"x_max":665,"o":"m 185 872 l 335 1049 l 414 1049 l 563 872 l 476 872 l 374 991 l 272 872 l 185 872 m 374 -19 q 160 35 244 -19 q 56 188 76 90 l 138 202 q 219 96 155 135 q 378 56 284 56 q 526 96 471 56 q 581 204 581 135 q 564 266 581 242 q 497 310 547 290 q 348 357 447 330 q 185 413 244 385 q 102 476 126 440 q 78 563 78 511 q 114 671 78 624 q 213 744 149 718 q 360 771 276 771 q 510 743 443 771 q 617 667 576 716 q 665 553 658 618 l 583 538 q 510 652 571 610 q 357 695 449 694 q 215 661 270 697 q 160 567 160 625 q 180 510 160 533 q 247 467 199 487 q 385 426 296 448 q 554 369 493 398 q 640 300 615 340 q 665 203 665 261 q 587 40 665 99 q 374 -19 510 -19 z "},"ș":{"ha":722,"x_min":56,"x_max":665,"o":"m 317 -368 l 317 -320 q 338 -315 324 -320 q 361 -297 351 -310 q 369 -262 371 -285 l 317 -262 l 317 -163 l 415 -163 l 415 -262 q 383 -343 415 -318 q 317 -368 351 -368 m 374 -19 q 160 35 244 -19 q 56 188 76 90 l 138 202 q 219 96 155 135 q 378 56 284 56 q 526 96 471 56 q 581 204 581 135 q 564 266 581 242 q 497 310 547 290 q 348 357 447 330 q 185 413 244 385 q 102 476 126 440 q 78 563 78 511 q 114 671 78 624 q 213 744 149 718 q 360 771 276 771 q 510 743 443 771 q 617 667 576 716 q 665 553 658 618 l 583 538 q 510 652 571 610 q 357 695 449 694 q 215 661 270 697 q 160 567 160 625 q 180 510 160 533 q 247 467 199 487 q 385 426 296 448 q 554 369 493 398 q 640 300 615 340 q 665 203 665 261 q 587 40 665 99 q 374 -19 510 -19 z "},"ß":{"ha":815,"x_min":97,"x_max":732,"o":"m 419 -19 q 353 -16 385 -19 q 292 0 322 -12 l 292 79 q 351 65 323 69 q 415 61 380 61 q 583 119 519 61 q 648 283 648 177 q 572 437 648 381 q 370 496 495 494 l 370 572 q 463 599 419 578 q 532 659 506 620 q 558 758 558 699 q 508 894 558 845 q 371 943 457 943 q 264 916 312 943 q 197 833 215 890 q 185 777 188 807 q 182 717 182 748 l 182 0 l 97 0 l 97 738 q 102 807 97 775 q 116 865 106 840 q 172 951 136 916 q 257 1003 207 986 q 370 1021 307 1021 q 512 990 451 1021 q 608 901 574 960 q 642 758 642 842 q 608 625 642 683 q 510 546 574 567 q 580 524 542 542 q 653 473 619 506 q 710 392 688 440 q 732 282 732 344 q 652 63 732 146 q 419 -19 572 -19 z "},"t":{"ha":542,"x_min":14,"x_max":495,"o":"m 495 0 q 377 -10 435 -13 q 273 16 319 -7 q 205 88 228 40 q 184 168 186 128 q 182 260 182 208 l 182 958 l 263 958 l 263 262 q 264 184 263 215 q 278 127 265 153 q 357 69 303 79 q 495 72 411 59 l 495 0 m 14 677 l 14 750 l 495 750 l 495 677 l 14 677 z "},"ŧ":{"ha":569,"x_min":14,"x_max":500,"o":"m 14 341 l 14 414 l 500 414 l 500 341 l 14 341 m 495 0 q 377 -10 435 -13 q 273 16 319 -7 q 205 88 228 40 q 184 168 186 128 q 182 260 182 208 l 182 958 l 263 958 l 263 262 q 264 184 263 215 q 278 127 265 153 q 357 69 303 79 q 495 72 411 59 l 495 0 m 14 677 l 14 750 l 495 750 l 495 677 l 14 677 z "},"ť":{"ha":542,"x_min":14,"x_max":517,"o":"m 495 0 q 377 -10 435 -13 q 273 16 319 -7 q 205 88 228 40 q 184 168 186 128 q 182 260 182 208 l 182 958 l 263 958 l 263 262 q 264 184 263 215 q 278 127 265 153 q 357 69 303 79 q 495 72 411 59 l 495 0 m 14 677 l 14 750 l 495 750 l 495 677 l 14 677 m 415 858 l 421 901 q 457 912 447 899 q 469 946 467 925 q 469 992 471 967 l 415 992 l 415 1127 l 516 1127 l 516 957 q 488 875 516 902 q 415 858 459 848 z "},"ţ":{"ha":542,"x_min":14,"x_max":495,"o":"m 290 -333 q 244 -327 266 -333 q 203 -312 223 -321 l 226 -251 q 283 -264 260 -264 q 328 -245 313 -264 q 344 -204 344 -227 q 316 -156 344 -171 q 251 -131 287 -142 l 303 12 l 371 13 l 333 -90 q 393 -134 369 -106 q 417 -208 417 -162 q 379 -297 417 -260 q 290 -333 342 -333 m 495 0 q 377 -10 435 -13 q 273 16 319 -7 q 205 88 228 40 q 184 168 186 128 q 182 260 182 208 l 182 958 l 263 958 l 263 262 q 264 184 263 215 q 278 127 265 153 q 357 69 303 79 q 495 72 411 59 l 495 0 m 14 677 l 14 750 l 495 750 l 495 677 l 14 677 z "},"ț":{"ha":542,"x_min":14,"x_max":495,"o":"m 226 -368 l 226 -320 q 247 -315 233 -320 q 270 -297 260 -310 q 278 -262 280 -285 l 226 -262 l 226 -163 l 325 -163 l 325 -262 q 292 -343 325 -318 q 226 -368 260 -368 m 495 0 q 377 -10 435 -13 q 273 16 319 -7 q 205 88 228 40 q 184 168 186 128 q 182 260 182 208 l 182 958 l 263 958 l 263 262 q 264 184 263 215 q 278 127 265 153 q 357 69 303 79 q 495 72 411 59 l 495 0 m 14 677 l 14 750 l 495 750 l 495 677 l 14 677 z "},"u":{"ha":810,"x_min":83,"x_max":713,"o":"m 385 -17 q 275 1 324 -17 q 190 52 226 19 q 130 130 153 85 q 95 228 106 174 q 83 340 83 281 l 83 750 l 164 750 l 164 360 q 178 233 164 289 q 221 139 192 178 q 293 80 250 100 q 396 60 337 60 q 502 81 457 60 q 575 140 547 102 q 618 231 604 178 q 633 345 633 283 l 696 338 q 655 137 696 216 q 543 20 613 58 q 385 -17 473 -17 m 640 0 l 640 169 l 633 169 l 633 750 l 713 750 l 713 0 l 640 0 z "},"ú":{"ha":810,"x_min":83,"x_max":713,"o":"m 433 872 l 358 872 l 433 1073 l 507 1073 l 433 872 m 385 -17 q 275 1 324 -17 q 190 52 226 19 q 130 130 153 85 q 95 228 106 174 q 83 340 83 281 l 83 750 l 164 750 l 164 360 q 178 233 164 289 q 221 139 192 178 q 293 80 250 100 q 396 60 337 60 q 502 81 457 60 q 575 140 547 102 q 618 231 604 178 q 633 345 633 283 l 696 338 q 655 137 696 216 q 543 20 613 58 q 385 -17 473 -17 m 640 0 l 640 169 l 633 169 l 633 750 l 713 750 l 713 0 l 640 0 z "},"ŭ":{"ha":810,"x_min":83,"x_max":713,"o":"m 399 840 q 313 863 351 840 q 252 924 275 886 q 229 1009 229 963 l 299 1009 q 328 939 299 969 q 399 910 358 910 q 469 939 440 910 q 498 1009 498 969 l 567 1009 q 544 924 567 963 q 483 863 522 886 q 399 840 445 840 m 385 -17 q 275 1 324 -17 q 190 52 226 19 q 130 130 153 85 q 95 228 106 174 q 83 340 83 281 l 83 750 l 164 750 l 164 360 q 178 233 164 289 q 221 139 192 178 q 293 80 250 100 q 396 60 337 60 q 502 81 457 60 q 575 140 547 102 q 618 231 604 178 q 633 345 633 283 l 696 338 q 655 137 696 216 q 543 20 613 58 q 385 -17 473 -17 m 640 0 l 640 169 l 633 169 l 633 750 l 713 750 l 713 0 l 640 0 z "},"û":{"ha":810,"x_min":83,"x_max":713,"o":"m 208 872 l 358 1049 l 437 1049 l 586 872 l 499 872 l 397 991 l 295 872 l 208 872 m 385 -17 q 275 1 324 -17 q 190 52 226 19 q 130 130 153 85 q 95 228 106 174 q 83 340 83 281 l 83 750 l 164 750 l 164 360 q 178 233 164 289 q 221 139 192 178 q 293 80 250 100 q 396 60 337 60 q 502 81 457 60 q 575 140 547 102 q 618 231 604 178 q 633 345 633 283 l 696 338 q 655 137 696 216 q 543 20 613 58 q 385 -17 473 -17 m 640 0 l 640 169 l 633 169 l 633 750 l 713 750 l 713 0 l 640 0 z "},"ü":{"ha":810,"x_min":83,"x_max":713,"o":"m 478 906 l 478 1003 l 575 1003 l 575 906 l 478 906 m 220 906 l 220 1003 l 317 1003 l 317 906 l 220 906 m 385 -17 q 275 1 324 -17 q 190 52 226 19 q 130 130 153 85 q 95 228 106 174 q 83 340 83 281 l 83 750 l 164 750 l 164 360 q 178 233 164 289 q 221 139 192 178 q 293 80 250 100 q 396 60 337 60 q 502 81 457 60 q 575 140 547 102 q 618 231 604 178 q 633 345 633 283 l 696 338 q 655 137 696 216 q 543 20 613 58 q 385 -17 473 -17 m 640 0 l 640 169 l 633 169 l 633 750 l 713 750 l 713 0 l 640 0 z "},"ụ":{"ha":810,"x_min":83,"x_max":713,"o":"m 349 -265 l 349 -163 l 450 -163 l 450 -265 l 349 -265 m 385 -17 q 275 1 324 -17 q 190 52 226 19 q 130 130 153 85 q 95 228 106 174 q 83 340 83 281 l 83 750 l 164 750 l 164 360 q 178 233 164 289 q 221 139 192 178 q 293 80 250 100 q 396 60 337 60 q 502 81 457 60 q 575 140 547 102 q 618 231 604 178 q 633 345 633 283 l 696 338 q 655 137 696 216 q 543 20 613 58 q 385 -17 473 -17 m 640 0 l 640 169 l 633 169 l 633 750 l 713 750 l 713 0 l 640 0 z "},"ù":{"ha":810,"x_min":83,"x_max":713,"o":"m 377 872 l 302 1073 l 376 1073 l 451 872 l 377 872 m 385 -17 q 275 1 324 -17 q 190 52 226 19 q 130 130 153 85 q 95 228 106 174 q 83 340 83 281 l 83 750 l 164 750 l 164 360 q 178 233 164 289 q 221 139 192 178 q 293 80 250 100 q 396 60 337 60 q 502 81 457 60 q 575 140 547 102 q 618 231 604 178 q 633 345 633 283 l 696 338 q 655 137 696 216 q 543 20 613 58 q 385 -17 473 -17 m 640 0 l 640 169 l 633 169 l 633 750 l 713 750 l 713 0 l 640 0 z "},"ủ":{"ha":810,"x_min":83,"x_max":713,"o":"m 338 1017 l 308 1061 q 366 1100 332 1088 q 435 1102 401 1111 q 493 1057 469 1094 q 512 1001 510 1029 q 501 946 513 972 q 468 900 490 920 q 421 867 447 879 l 385 908 q 444 961 429 929 q 442 1021 459 992 q 411 1045 430 1041 q 374 1041 393 1049 q 338 1017 354 1033 m 385 -17 q 275 1 324 -17 q 190 52 226 19 q 130 130 153 85 q 95 228 106 174 q 83 340 83 281 l 83 750 l 164 750 l 164 360 q 178 233 164 289 q 221 139 192 178 q 293 80 250 100 q 396 60 337 60 q 502 81 457 60 q 575 140 547 102 q 618 231 604 178 q 633 345 633 283 l 696 338 q 655 137 696 216 q 543 20 613 58 q 385 -17 473 -17 m 640 0 l 640 169 l 633 169 l 633 750 l 713 750 l 713 0 l 640 0 z "},"ư":{"ha":810,"x_min":83,"x_max":840,"o":"m 760 875 l 832 875 q 831 781 840 824 q 785 711 822 738 q 719 689 756 691 q 641 693 682 687 l 641 750 q 673 751 656 751 q 706 755 690 751 q 758 800 751 765 q 760 875 764 836 m 385 -17 q 275 1 324 -17 q 190 52 226 19 q 130 130 153 85 q 95 228 106 174 q 83 340 83 281 l 83 750 l 164 750 l 164 360 q 178 233 164 289 q 221 139 192 178 q 293 80 250 100 q 396 60 337 60 q 502 81 457 60 q 575 140 547 102 q 618 231 604 178 q 633 345 633 283 l 696 338 q 655 137 696 216 q 543 20 613 58 q 385 -17 473 -17 m 640 0 l 640 169 l 633 169 l 633 750 l 713 750 l 713 0 l 640 0 z "},"ứ":{"ha":810,"x_min":83,"x_max":840,"o":"m 760 875 l 832 875 q 831 781 840 824 q 785 711 822 738 q 719 689 756 691 q 641 693 682 687 l 641 750 q 673 751 656 751 q 706 755 690 751 q 758 800 751 765 q 760 875 764 836 m 433 872 l 358 872 l 433 1073 l 507 1073 l 433 872 m 385 -17 q 275 1 324 -17 q 190 52 226 19 q 130 130 153 85 q 95 228 106 174 q 83 340 83 281 l 83 750 l 164 750 l 164 360 q 178 233 164 289 q 221 139 192 178 q 293 80 250 100 q 396 60 337 60 q 502 81 457 60 q 575 140 547 102 q 618 231 604 178 q 633 345 633 283 l 696 338 q 655 137 696 216 q 543 20 613 58 q 385 -17 473 -17 m 640 0 l 640 169 l 633 169 l 633 750 l 713 750 l 713 0 l 640 0 z "},"ự":{"ha":810,"x_min":83,"x_max":841,"o":"m 761 875 l 833 875 q 832 781 841 824 q 785 711 824 738 q 720 689 757 691 q 642 693 683 687 l 642 750 q 674 751 658 751 q 707 755 690 751 q 758 800 752 765 q 761 875 765 836 m 356 -265 l 356 -163 l 457 -163 l 457 -265 l 356 -265 m 385 -17 q 275 1 324 -17 q 190 52 226 19 q 130 130 153 85 q 95 228 106 174 q 83 340 83 281 l 83 750 l 164 750 l 164 360 q 178 233 164 289 q 221 139 192 178 q 293 80 250 100 q 396 60 337 60 q 502 81 457 60 q 575 140 547 102 q 618 231 604 178 q 633 345 633 283 l 696 338 q 655 137 696 216 q 543 20 613 58 q 385 -17 473 -17 m 640 0 l 640 169 l 633 169 l 633 750 l 713 750 l 713 0 l 640 0 z "},"ừ":{"ha":810,"x_min":83,"x_max":840,"o":"m 760 875 l 832 875 q 831 781 840 824 q 785 711 822 738 q 719 689 756 691 q 641 692 682 687 l 641 750 q 673 751 656 751 q 706 754 690 751 q 758 800 751 765 q 760 875 764 836 m 377 872 l 302 1073 l 376 1073 l 451 872 l 377 872 m 385 -17 q 275 1 324 -17 q 190 52 226 19 q 130 130 153 85 q 95 228 106 174 q 83 340 83 281 l 83 750 l 164 750 l 164 360 q 178 233 164 289 q 221 139 192 178 q 293 80 250 100 q 396 60 337 60 q 502 81 457 60 q 575 140 547 102 q 618 231 604 178 q 633 345 633 283 l 696 338 q 655 137 696 216 q 543 20 613 58 q 385 -17 473 -17 m 640 0 l 640 169 l 633 169 l 633 750 l 713 750 l 713 0 l 640 0 z "},"ử":{"ha":810,"x_min":83,"x_max":840,"o":"m 760 875 l 832 875 q 831 781 840 824 q 785 711 822 738 q 719 689 756 691 q 641 693 682 687 l 641 750 q 673 751 656 751 q 706 755 690 751 q 758 800 751 765 q 760 875 764 836 m 338 1017 l 308 1061 q 366 1100 332 1088 q 435 1102 401 1111 q 493 1057 469 1094 q 512 1001 510 1029 q 501 946 513 972 q 468 900 490 920 q 421 867 447 879 l 385 908 q 444 961 429 929 q 442 1021 459 992 q 411 1045 430 1041 q 374 1041 393 1049 q 338 1017 354 1033 m 385 -17 q 275 1 324 -17 q 190 52 226 19 q 130 130 153 85 q 95 228 106 174 q 83 340 83 281 l 83 750 l 164 750 l 164 360 q 178 233 164 289 q 221 139 192 178 q 293 80 250 100 q 396 60 337 60 q 502 81 457 60 q 575 140 547 102 q 618 231 604 178 q 633 345 633 283 l 696 338 q 655 137 696 216 q 543 20 613 58 q 385 -17 473 -17 m 640 0 l 640 169 l 633 169 l 633 750 l 713 750 l 713 0 l 640 0 z "},"ữ":{"ha":810,"x_min":83,"x_max":840,"o":"m 760 875 l 832 875 q 831 781 840 824 q 785 711 822 738 q 719 689 756 691 q 641 693 682 687 l 641 750 q 673 751 656 751 q 706 755 690 751 q 758 800 751 765 q 760 875 764 836 m 507 872 q 452 883 478 872 q 400 909 425 894 q 351 934 374 923 q 307 945 328 945 q 271 924 278 945 q 271 881 264 903 l 210 881 q 223 975 196 937 q 305 1014 251 1014 q 361 1003 334 1014 q 414 977 388 992 q 463 952 440 963 q 506 941 485 941 q 541 961 532 941 q 542 1007 551 981 l 603 1007 q 590 913 617 953 q 507 872 563 872 m 385 -17 q 275 1 324 -17 q 190 52 226 19 q 130 130 153 85 q 95 228 106 174 q 83 340 83 281 l 83 750 l 164 750 l 164 360 q 178 233 164 289 q 221 139 192 178 q 293 80 250 100 q 396 60 337 60 q 502 81 457 60 q 575 140 547 102 q 618 231 604 178 q 633 345 633 283 l 696 338 q 655 137 696 216 q 543 20 613 58 q 385 -17 473 -17 m 640 0 l 640 169 l 633 169 l 633 750 l 713 750 l 713 0 l 640 0 z "},"ű":{"ha":810,"x_min":83,"x_max":713,"o":"m 556 872 l 481 872 l 556 1073 l 631 1073 l 556 872 m 304 872 l 230 872 l 304 1073 l 378 1073 l 304 872 m 385 -17 q 275 1 324 -17 q 190 52 226 19 q 130 130 153 85 q 95 228 106 174 q 83 340 83 281 l 83 750 l 164 750 l 164 360 q 178 233 164 289 q 221 139 192 178 q 293 80 250 100 q 396 60 337 60 q 502 81 457 60 q 575 140 547 102 q 618 231 604 178 q 633 345 633 283 l 696 338 q 655 137 696 216 q 543 20 613 58 q 385 -17 473 -17 m 640 0 l 640 169 l 633 169 l 633 750 l 713 750 l 713 0 l 640 0 z "},"ū":{"ha":810,"x_min":83,"x_max":713,"o":"m 227 917 l 227 990 l 568 990 l 568 917 l 227 917 m 385 -17 q 275 1 324 -17 q 190 52 226 19 q 130 130 153 85 q 95 228 106 174 q 83 340 83 281 l 83 750 l 164 750 l 164 360 q 178 233 164 289 q 221 139 192 178 q 293 80 250 100 q 396 60 337 60 q 502 81 457 60 q 575 140 547 102 q 618 231 604 178 q 633 345 633 283 l 696 338 q 655 137 696 216 q 543 20 613 58 q 385 -17 473 -17 m 640 0 l 640 169 l 633 169 l 633 750 l 713 750 l 713 0 l 640 0 z "},"ų":{"ha":810,"x_min":83,"x_max":719,"o":"m 607 -335 q 543 -317 572 -335 q 497 -269 515 -299 q 480 -205 480 -240 q 505 -116 480 -162 q 572 -26 530 -70 q 664 53 613 17 l 713 0 q 635 -61 671 -26 q 577 -134 599 -97 q 555 -203 555 -171 q 572 -249 555 -231 q 612 -266 590 -266 q 647 -256 629 -266 q 680 -229 665 -245 l 719 -276 q 667 -320 697 -306 q 607 -335 638 -335 m 385 -17 q 275 1 324 -17 q 190 52 226 19 q 130 130 153 85 q 95 228 106 174 q 83 340 83 281 l 83 750 l 164 750 l 164 360 q 178 233 164 289 q 221 139 192 178 q 293 80 250 100 q 396 60 337 60 q 502 81 457 60 q 575 140 547 102 q 618 231 604 178 q 633 345 633 283 l 696 338 q 655 137 696 216 q 543 20 613 58 q 385 -17 473 -17 m 640 0 l 640 169 l 633 169 l 633 750 l 713 750 l 713 0 l 640 0 z "},"ů":{"ha":810,"x_min":83,"x_max":713,"o":"m 399 832 q 327 851 360 832 q 275 903 294 871 q 256 976 256 936 q 275 1048 256 1015 q 327 1100 294 1080 q 399 1119 360 1119 q 472 1100 439 1119 q 523 1048 504 1080 q 542 976 542 1015 q 523 903 542 936 q 472 851 504 871 q 399 832 439 832 m 399 899 q 453 922 431 899 q 475 976 475 944 q 453 1030 475 1008 q 399 1052 431 1052 q 345 1030 367 1052 q 322 976 322 1008 q 345 922 322 944 q 399 899 367 899 m 385 -17 q 275 1 324 -17 q 190 52 226 19 q 130 130 153 85 q 95 228 106 174 q 83 340 83 281 l 83 750 l 164 750 l 164 360 q 178 233 164 289 q 221 139 192 178 q 293 80 250 100 q 396 60 337 60 q 502 81 457 60 q 575 140 547 102 q 618 231 604 178 q 633 345 633 283 l 696 338 q 655 137 696 216 q 543 20 613 58 q 385 -17 473 -17 m 640 0 l 640 169 l 633 169 l 633 750 l 713 750 l 713 0 l 640 0 z "},"ũ":{"ha":810,"x_min":83,"x_max":713,"o":"m 385 -17 q 275 1 324 -17 q 190 52 226 19 q 130 130 153 85 q 95 228 106 174 q 83 340 83 281 l 83 750 l 164 750 l 164 360 q 178 233 164 289 q 221 139 192 178 q 293 80 250 100 q 396 60 337 60 q 502 81 457 60 q 575 140 547 102 q 618 231 604 178 q 633 345 633 283 l 696 338 q 655 137 696 216 q 543 20 613 58 q 385 -17 473 -17 m 640 0 l 640 169 l 633 169 l 633 750 l 713 750 l 713 0 l 640 0 m 515 872 q 459 883 486 872 q 407 909 433 894 q 359 934 382 923 q 315 945 335 945 q 279 924 286 945 q 278 881 272 903 l 217 881 q 231 975 203 937 q 313 1014 258 1014 q 369 1003 342 1014 q 422 977 396 992 q 470 952 447 963 q 514 941 493 941 q 549 961 540 941 q 550 1007 558 981 l 611 1007 q 598 913 625 953 q 515 872 571 872 z "},"v":{"ha":685,"x_min":28,"x_max":657,"o":"m 300 0 l 28 750 l 110 750 l 342 109 l 574 750 l 657 750 l 385 0 l 300 0 z "},"w":{"ha":1049,"x_min":28,"x_max":1022,"o":"m 257 0 l 28 750 l 110 750 l 298 134 l 486 750 l 563 750 l 752 134 l 941 750 l 1022 750 l 792 0 l 717 0 l 525 624 l 332 0 l 257 0 z "},"ẃ":{"ha":1049,"x_min":28,"x_max":1022,"o":"m 567 872 l 493 872 l 568 1073 l 642 1073 l 567 872 m 257 0 l 28 750 l 110 750 l 298 134 l 486 750 l 563 750 l 752 134 l 941 750 l 1022 750 l 792 0 l 717 0 l 525 624 l 332 0 l 257 0 z "},"ŵ":{"ha":1049,"x_min":28,"x_max":1022,"o":"m 335 872 l 485 1049 l 564 1049 l 713 872 l 626 872 l 524 991 l 422 872 l 335 872 m 257 0 l 28 750 l 110 750 l 298 134 l 486 750 l 563 750 l 752 134 l 941 750 l 1022 750 l 792 0 l 717 0 l 525 624 l 332 0 l 257 0 z "},"ẅ":{"ha":1049,"x_min":28,"x_max":1022,"o":"m 605 906 l 605 1003 l 702 1003 l 702 906 l 605 906 m 347 906 l 347 1003 l 444 1003 l 444 906 l 347 906 m 257 0 l 28 750 l 110 750 l 298 134 l 486 750 l 563 750 l 752 134 l 941 750 l 1022 750 l 792 0 l 717 0 l 525 624 l 332 0 l 257 0 z "},"ẁ":{"ha":1049,"x_min":28,"x_max":1022,"o":"m 482 872 l 407 1073 l 482 1073 l 556 872 l 482 872 m 257 0 l 28 750 l 110 750 l 298 134 l 486 750 l 563 750 l 752 134 l 941 750 l 1022 750 l 792 0 l 717 0 l 525 624 l 332 0 l 257 0 z "},"x":{"ha":719,"x_min":14,"x_max":706,"o":"m 14 0 l 313 379 l 21 750 l 118 750 l 360 440 l 601 750 l 699 750 l 406 379 l 706 0 l 607 0 l 360 319 l 113 0 l 14 0 z "},"y":{"ha":717,"x_min":26,"x_max":689,"o":"m 207 -333 l 353 59 l 354 -58 l 26 750 l 111 750 l 393 49 l 349 49 l 605 750 l 689 750 l 290 -333 l 207 -333 z "},"ý":{"ha":717,"x_min":26,"x_max":689,"o":"m 393 872 l 319 872 l 393 1073 l 467 1073 l 393 872 m 207 -333 l 353 59 l 354 -58 l 26 750 l 111 750 l 393 49 l 349 49 l 605 750 l 689 750 l 290 -333 l 207 -333 z "},"ŷ":{"ha":717,"x_min":26,"x_max":689,"o":"m 181 872 l 330 1049 l 409 1049 l 558 872 l 472 872 l 369 991 l 267 872 l 181 872 m 207 -333 l 353 59 l 354 -58 l 26 750 l 111 750 l 393 49 l 349 49 l 605 750 l 689 750 l 290 -333 l 207 -333 z "},"ÿ":{"ha":717,"x_min":26,"x_max":689,"o":"m 445 906 l 445 1003 l 542 1003 l 542 906 l 445 906 m 188 906 l 188 1003 l 285 1003 l 285 906 l 188 906 m 207 -333 l 353 59 l 354 -58 l 26 750 l 111 750 l 393 49 l 349 49 l 605 750 l 689 750 l 290 -333 l 207 -333 z "},"ỵ":{"ha":717,"x_min":26,"x_max":689,"o":"m 481 -265 l 481 -163 l 583 -163 l 583 -265 l 481 -265 m 207 -333 l 353 59 l 354 -58 l 26 750 l 111 750 l 393 49 l 349 49 l 605 750 l 689 750 l 290 -333 l 207 -333 z "},"ỳ":{"ha":717,"x_min":26,"x_max":689,"o":"m 334 872 l 259 1073 l 333 1073 l 408 872 l 334 872 m 207 -333 l 353 59 l 354 -58 l 26 750 l 111 750 l 393 49 l 349 49 l 605 750 l 689 750 l 290 -333 l 207 -333 z "},"ỷ":{"ha":717,"x_min":26,"x_max":689,"o":"m 296 1017 l 266 1061 q 325 1100 290 1088 q 393 1102 359 1111 q 451 1057 427 1094 q 470 1001 469 1029 q 460 946 472 972 q 427 900 448 920 q 379 867 406 879 l 344 908 q 402 961 388 929 q 400 1021 417 992 q 370 1045 388 1041 q 332 1041 351 1049 q 296 1017 313 1033 m 207 -333 l 353 59 l 354 -58 l 26 750 l 111 750 l 393 49 l 349 49 l 605 750 l 689 750 l 290 -333 l 207 -333 z "},"ỹ":{"ha":717,"x_min":26,"x_max":689,"o":"m 207 -333 l 353 59 l 354 -58 l 26 750 l 111 750 l 393 49 l 349 49 l 605 750 l 689 750 l 290 -333 l 207 -333 m 468 872 q 413 883 440 872 q 361 909 386 894 q 312 934 335 923 q 268 945 289 945 q 232 924 240 945 q 232 881 225 903 l 171 881 q 184 975 157 937 q 266 1014 212 1014 q 322 1003 295 1014 q 375 977 349 992 q 424 952 401 963 q 467 941 447 941 q 502 961 493 941 q 503 1007 512 981 l 565 1007 q 551 913 578 953 q 468 872 524 872 z "},"z":{"ha":734,"x_min":28,"x_max":678,"o":"m 28 0 l 28 22 l 540 672 l 63 672 l 63 750 l 678 750 l 678 726 l 166 78 l 648 78 l 648 0 l 28 0 z "},"ź":{"ha":734,"x_min":28,"x_max":678,"o":"m 431 872 l 356 872 l 431 1073 l 506 1073 l 431 872 m 28 0 l 28 22 l 540 672 l 63 672 l 63 750 l 678 750 l 678 726 l 166 78 l 648 78 l 648 0 l 28 0 z "},"ž":{"ha":734,"x_min":28,"x_max":678,"o":"m 194 1049 l 281 1049 l 383 929 l 485 1049 l 572 1049 l 423 872 l 344 872 l 194 1049 m 28 0 l 28 22 l 540 672 l 63 672 l 63 750 l 678 750 l 678 726 l 166 78 l 648 78 l 648 0 l 28 0 z "},"ż":{"ha":734,"x_min":28,"x_max":678,"o":"m 322 913 l 322 1014 l 423 1014 l 423 913 l 322 913 m 28 0 l 28 22 l 540 672 l 63 672 l 63 750 l 678 750 l 678 726 l 166 78 l 648 78 l 648 0 l 28 0 z "},"":{"ha":897,"x_min":42,"x_max":883,"o":"m 175 0 l 175 820 q 178 876 175 849 q 191 926 181 902 q 220 970 201 949 q 264 1002 240 991 q 315 1017 288 1013 q 372 1021 342 1021 l 468 1021 l 468 951 l 378 951 q 286 922 317 951 q 255 823 255 892 l 255 0 l 175 0 m 42 677 l 42 750 l 468 750 l 468 677 l 42 677 m 590 0 l 590 820 q 593 876 590 849 q 606 926 596 902 q 635 970 616 949 q 678 1002 654 991 q 729 1017 702 1013 q 786 1021 756 1021 l 883 1021 l 883 951 l 793 951 q 700 922 731 951 q 669 823 669 892 l 669 0 l 590 0 m 456 677 l 456 750 l 883 750 l 883 677 l 456 677 z "},"":{"ha":1251,"x_min":42,"x_max":1140,"o":"m 858 677 l 858 750 l 1073 750 l 1073 677 l 858 677 m 590 0 l 590 820 q 593 876 590 849 q 606 926 596 902 q 635 970 616 949 q 678 1002 654 991 q 729 1017 702 1013 q 786 1021 756 1021 l 883 1021 l 883 951 l 793 951 q 700 922 731 951 q 669 823 669 892 l 669 0 l 590 0 m 456 677 l 456 750 l 883 750 l 883 677 l 456 677 m 1060 0 l 1060 1021 l 1140 1021 l 1140 0 l 1060 0 m 175 0 l 175 820 q 178 876 175 849 q 191 926 181 902 q 220 970 201 949 q 264 1002 240 991 q 315 1017 288 1013 q 372 1021 342 1021 l 468 1021 l 468 951 l 378 951 q 286 922 317 951 q 255 823 255 892 l 255 0 l 175 0 m 42 677 l 42 750 l 468 750 l 468 677 l 42 677 z "},"ﬁ":{"ha":805,"x_min":42,"x_max":694,"o":"m 175 0 l 175 820 q 178 876 175 849 q 191 926 181 902 q 220 970 201 949 q 264 1002 240 991 q 315 1017 288 1013 q 372 1021 342 1021 l 468 1021 l 468 951 l 378 951 q 286 922 317 951 q 255 823 255 892 l 255 0 l 175 0 m 42 677 l 42 750 l 468 750 l 468 677 l 42 677 m 614 901 l 614 1003 l 694 1003 l 694 901 l 614 901 m 614 0 l 614 750 l 694 750 l 694 0 l 614 0 z "},"ﬂ":{"ha":837,"x_min":42,"x_max":726,"o":"m 443 677 l 443 750 l 658 750 l 658 677 l 443 677 m 175 0 l 175 820 q 178 876 175 849 q 191 926 181 902 q 220 970 201 949 q 264 1002 240 991 q 315 1017 288 1013 q 372 1021 342 1021 l 468 1021 l 468 951 l 378 951 q 286 922 317 951 q 255 823 255 892 l 255 0 l 175 0 m 42 677 l 42 750 l 468 750 l 468 677 l 42 677 m 646 0 l 646 1021 l 726 1021 l 726 0 l 646 0 z "},"":{"ha":999,"x_min":14,"x_max":953,"o":"m 495 0 q 377 -10 435 -13 q 273 16 319 -7 q 205 88 228 40 q 184 168 186 128 q 182 260 182 208 l 182 958 l 263 958 l 263 262 q 264 184 263 215 q 278 127 265 153 q 357 69 303 79 q 495 72 411 59 l 495 0 m 14 677 l 14 750 l 495 750 l 495 677 l 14 677 m 953 0 q 835 -10 894 -13 q 732 16 777 -7 q 663 88 686 40 q 642 168 644 128 q 640 260 640 208 l 640 958 l 721 958 l 721 262 q 722 184 721 215 q 736 127 723 153 q 815 69 761 79 q 953 72 869 59 l 953 0 m 472 677 l 472 750 l 953 750 l 953 677 l 472 677 z "},"ª":{"ha":435,"x_min":56,"x_max":379,"o":"m 183 375 q 88 408 120 375 q 56 488 56 442 q 80 558 56 531 q 146 598 103 585 q 236 616 184 609 q 335 630 288 623 l 313 601 q 297 682 316 656 q 224 708 277 708 q 168 694 193 708 q 133 647 142 680 l 69 665 q 122 743 83 715 q 225 771 161 771 q 313 753 276 771 q 367 699 350 735 q 377 660 375 681 q 379 617 379 640 l 379 385 l 320 385 l 320 473 l 331 460 q 272 396 308 417 q 183 375 235 375 m 194 431 q 270 455 242 431 q 306 511 299 480 q 312 551 311 528 q 313 583 313 574 l 337 574 q 247 561 288 566 q 178 547 206 556 q 138 526 154 540 q 122 488 122 513 q 139 448 122 465 q 194 431 156 431 z "},"º":{"ha":476,"x_min":56,"x_max":420,"o":"m 238 375 q 105 431 153 375 q 56 574 56 486 q 106 716 56 662 q 238 771 156 771 q 371 716 322 771 q 420 574 420 660 q 371 430 420 485 q 238 375 322 375 m 238 439 q 321 476 294 439 q 349 574 349 514 q 321 671 349 635 q 238 708 293 708 q 154 670 181 708 q 127 574 127 633 q 155 476 127 513 q 238 439 183 439 z "},"А":{"ha":863,"x_min":28,"x_max":835,"o":"m 28 0 l 382 1000 l 481 1000 l 835 0 l 751 0 l 410 958 l 451 958 l 113 0 l 28 0 m 174 251 l 174 327 l 688 327 l 688 251 l 174 251 z "},"Б":{"ha":823,"x_min":97,"x_max":781,"o":"m 97 0 l 97 1000 l 698 1000 l 698 922 l 177 922 l 177 606 l 474 606 q 506 605 489 606 q 542 600 523 603 q 670 548 616 590 q 752 442 724 506 q 781 303 781 378 q 752 164 781 227 q 670 58 724 100 q 542 6 616 16 q 506 1 523 3 q 474 0 489 0 l 97 0 m 177 78 l 473 78 q 502 79 485 78 q 535 83 518 81 q 657 163 617 99 q 697 303 697 226 q 657 443 697 380 q 535 522 617 506 q 502 527 518 526 q 473 528 485 528 l 177 528 l 177 78 z "},"В":{"ha":843,"x_min":97,"x_max":803,"o":"m 97 0 l 97 1000 l 480 1000 q 620 967 558 1000 q 718 877 682 934 q 753 749 753 820 q 709 604 753 668 q 591 514 665 540 l 588 547 q 745 448 687 517 q 803 275 803 378 q 765 127 803 189 q 660 33 727 66 q 509 0 594 0 l 97 0 m 178 78 l 483 78 q 602 101 549 78 q 686 167 656 124 q 717 272 717 210 q 689 381 717 332 q 613 459 661 430 q 506 488 565 488 l 178 488 l 178 78 m 178 565 l 479 565 q 575 589 531 565 q 644 655 618 613 q 669 751 669 697 q 615 876 669 828 q 479 923 560 923 l 178 923 l 178 565 z "},"Г":{"ha":729,"x_min":97,"x_max":715,"o":"m 97 0 l 97 1000 l 715 1000 l 715 922 l 177 922 l 177 0 l 97 0 z "},"Ѓ":{"ha":729,"x_min":97,"x_max":715,"o":"m 340 1122 l 266 1122 l 341 1323 l 415 1323 l 340 1122 m 97 0 l 97 1000 l 715 1000 l 715 922 l 177 922 l 177 0 l 97 0 z "},"Ґ":{"ha":743,"x_min":97,"x_max":729,"o":"m 97 0 l 97 1000 l 649 1000 l 649 1120 l 729 1120 l 729 922 l 177 922 l 177 0 l 97 0 z "},"Д":{"ha":1018,"x_min":53,"x_max":963,"o":"m 53 -167 l 53 78 q 151 109 115 78 q 206 192 187 140 q 234 306 224 244 q 249 432 243 369 q 266 614 260 526 q 277 795 272 701 q 287 1000 281 888 l 892 1000 l 892 78 l 963 78 l 963 -167 l 882 -167 l 882 0 l 133 0 l 133 -167 l 53 -167 m 226 78 l 812 78 l 812 922 l 363 922 q 355 749 359 834 q 344 578 350 664 q 328 401 338 492 q 309 257 320 320 q 279 150 299 194 q 226 78 260 105 z "},"Е":{"ha":785,"x_min":97,"x_max":715,"o":"m 97 0 l 97 1000 l 715 1000 l 715 922 l 177 922 l 177 542 l 632 542 l 632 465 l 177 465 l 177 78 l 715 78 l 715 0 l 97 0 z "},"Ѐ":{"ha":785,"x_min":97,"x_max":715,"o":"m 393 1122 l 318 1323 l 392 1323 l 467 1122 l 393 1122 m 97 0 l 97 1000 l 715 1000 l 715 922 l 177 922 l 177 542 l 632 542 l 632 465 l 177 465 l 177 78 l 715 78 l 715 0 l 97 0 z "},"Ё":{"ha":785,"x_min":97,"x_max":715,"o":"m 469 1156 l 469 1253 l 566 1253 l 566 1156 l 469 1156 m 211 1156 l 211 1253 l 308 1253 l 308 1156 l 211 1156 m 97 0 l 97 1000 l 715 1000 l 715 922 l 177 922 l 177 542 l 632 542 l 632 465 l 177 465 l 177 78 l 715 78 l 715 0 l 97 0 z "},"Ж":{"ha":1226,"x_min":14,"x_max":1212,"o":"m 14 0 l 479 519 l 56 1000 l 160 1000 l 573 527 l 573 1000 l 653 1000 l 653 527 l 1066 1000 l 1170 1000 l 747 519 l 1212 0 l 1106 0 l 653 509 l 653 0 l 573 0 l 573 509 l 119 0 l 14 0 z "},"З":{"ha":803,"x_min":44,"x_max":760,"o":"m 406 -21 q 232 9 305 -21 q 113 87 159 38 q 44 194 66 136 l 120 233 q 175 143 137 183 q 271 81 213 103 q 408 58 330 58 q 552 84 492 58 q 643 161 611 111 q 674 279 674 210 q 641 392 674 352 q 549 450 607 433 q 419 469 492 467 q 347 473 369 472 q 318 474 326 474 q 305 474 311 474 l 305 551 q 331 551 310 551 q 377 552 353 551 q 417 553 402 552 q 582 610 523 558 q 641 748 641 663 q 577 892 641 840 q 412 943 513 943 q 253 897 316 943 q 148 769 190 850 l 75 813 q 207 963 122 905 q 414 1021 293 1021 q 533 1003 476 1021 q 633 952 590 986 q 701 868 676 919 q 726 749 726 817 q 687 602 726 664 q 589 513 648 541 q 714 432 668 490 q 760 277 760 373 q 717 120 760 187 q 595 16 674 53 q 406 -21 515 -21 z "},"И":{"ha":935,"x_min":97,"x_max":838,"o":"m 838 0 l 757 0 l 757 859 l 178 0 l 97 0 l 97 1000 l 178 1000 l 178 142 l 757 1000 l 838 1000 l 838 0 z "},"Й":{"ha":935,"x_min":97,"x_max":838,"o":"m 97 0 l 97 1000 l 178 1000 l 178 142 l 757 1000 l 838 1000 l 838 0 l 757 0 l 757 859 l 178 0 l 97 0 m 478 1090 q 394 1113 432 1090 q 333 1174 356 1136 q 310 1259 310 1213 l 379 1259 q 409 1189 379 1219 q 478 1160 438 1160 q 549 1189 520 1160 q 578 1259 578 1219 l 647 1259 q 625 1174 647 1213 q 564 1113 602 1136 q 478 1090 525 1090 z "},"Ѝ":{"ha":935,"x_min":97,"x_max":838,"o":"m 97 0 l 97 1000 l 178 1000 l 178 142 l 757 1000 l 838 1000 l 838 0 l 757 0 l 757 859 l 178 0 l 97 0 m 447 1122 l 372 1323 l 447 1323 l 521 1122 l 447 1122 z "},"К":{"ha":800,"x_min":97,"x_max":800,"o":"m 97 0 l 97 1000 l 177 1000 l 177 525 l 653 1000 l 758 1000 l 280 519 l 800 0 l 693 0 l 177 511 l 177 0 l 97 0 z "},"Ќ":{"ha":800,"x_min":97,"x_max":800,"o":"m 97 0 l 97 1000 l 177 1000 l 177 525 l 653 1000 l 758 1000 l 280 519 l 800 0 l 693 0 l 177 511 l 177 0 l 97 0 m 457 1122 l 383 1122 l 458 1323 l 532 1323 l 457 1122 z "},"Л":{"ha":960,"x_min":28,"x_max":863,"o":"m 28 0 l 28 75 q 93 77 68 70 q 135 108 119 83 q 162 181 151 132 q 185 313 174 231 q 207 470 198 393 q 223 630 216 548 q 235 802 230 711 q 245 1000 241 893 l 863 1000 l 863 0 l 783 0 l 783 922 l 325 922 q 315 764 320 842 q 304 606 310 685 q 289 444 298 527 q 267 269 281 361 q 243 148 257 204 q 205 51 230 91 q 138 -3 180 12 q 28 0 95 -18 z "},"М":{"ha":1161,"x_min":97,"x_max":1064,"o":"m 97 0 l 97 1000 l 172 1000 l 581 115 l 987 1000 l 1064 1000 l 1064 1 l 985 1 l 985 816 l 613 0 l 548 0 l 175 816 l 175 0 l 97 0 z "},"Н":{"ha":934,"x_min":97,"x_max":837,"o":"m 97 0 l 97 1000 l 177 1000 l 177 539 l 756 539 l 756 1000 l 837 1000 l 837 0 l 756 0 l 756 461 l 177 461 l 177 0 l 97 0 z "},"О":{"ha":992,"x_min":42,"x_max":951,"o":"m 497 -21 q 246 45 347 -21 q 93 229 144 112 q 42 500 42 347 q 93 771 42 653 q 246 955 144 888 q 497 1021 347 1021 q 747 955 646 1021 q 899 771 848 888 q 951 500 951 653 q 899 229 951 347 q 747 45 848 112 q 497 -21 646 -21 m 497 58 q 701 114 619 57 q 824 270 783 170 q 865 500 865 370 q 824 730 865 630 q 701 886 783 830 q 497 942 619 942 q 292 887 374 943 q 169 730 210 831 q 127 500 128 630 q 167 270 126 370 q 291 114 208 171 q 497 58 374 58 z "},"П":{"ha":945,"x_min":97,"x_max":848,"o":"m 97 0 l 97 1000 l 848 1000 l 848 0 l 768 0 l 768 922 l 177 922 l 177 0 l 97 0 z "},"Р":{"ha":823,"x_min":97,"x_max":781,"o":"m 97 0 l 97 1000 l 474 1000 q 506 999 489 1000 q 542 994 523 998 q 670 941 617 983 q 753 835 724 899 q 781 695 781 772 q 753 555 781 618 q 670 449 724 491 q 542 395 617 407 q 506 391 523 392 q 474 390 489 390 l 177 390 l 177 0 l 97 0 m 177 468 l 473 468 q 502 469 485 468 q 535 474 518 471 q 625 518 589 485 q 679 597 661 551 q 697 695 697 644 q 679 793 697 747 q 625 872 661 839 q 535 916 589 905 q 502 921 518 919 q 473 922 485 922 l 177 922 l 177 468 z "},"С":{"ha":983,"x_min":42,"x_max":927,"o":"m 497 -21 q 246 45 347 -21 q 93 229 144 112 q 42 500 42 347 q 93 771 42 653 q 246 955 144 888 q 497 1021 347 1021 q 780 931 671 1021 q 927 689 888 840 l 844 669 q 725 868 813 794 q 497 942 638 942 q 292 886 374 942 q 169 730 210 830 q 127 500 128 630 q 167 270 126 370 q 291 114 208 171 q 497 58 374 58 q 725 132 638 58 q 844 331 813 206 l 927 311 q 780 69 888 160 q 497 -21 671 -21 z "},"Т":{"ha":824,"x_min":14,"x_max":810,"o":"m 372 0 l 372 922 l 14 922 l 14 1000 l 810 1000 l 810 922 l 452 922 l 452 0 l 372 0 z "},"У":{"ha":859,"x_min":26,"x_max":830,"o":"m 278 0 l 385 226 l 26 1000 l 113 1000 l 426 314 l 744 1000 l 830 1000 l 367 0 l 278 0 z "},"Ў":{"ha":859,"x_min":26,"x_max":830,"o":"m 419 1090 q 334 1113 373 1090 q 273 1174 296 1136 q 251 1259 251 1213 l 320 1259 q 349 1189 320 1219 q 419 1160 378 1160 q 490 1189 461 1160 q 519 1259 519 1219 l 588 1259 q 566 1174 588 1213 q 505 1113 543 1136 q 419 1090 466 1090 m 278 0 l 385 226 l 26 1000 l 113 1000 l 426 314 l 744 1000 l 830 1000 l 367 0 l 278 0 z "},"Ф":{"ha":974,"x_min":42,"x_max":933,"o":"m 447 0 l 447 130 q 298 137 370 117 q 167 209 225 158 q 76 342 110 260 q 42 531 42 423 q 76 721 42 640 q 167 854 110 802 q 298 926 225 906 q 447 934 370 947 l 447 1000 l 527 1000 l 527 934 q 677 926 604 947 q 807 854 749 906 q 899 721 865 802 q 933 531 933 640 q 899 342 933 423 q 807 209 865 260 q 677 137 749 158 q 527 130 604 117 l 527 0 l 447 0 m 447 208 l 447 857 q 320 847 379 867 q 218 784 262 828 q 150 676 175 740 q 126 531 126 613 q 150 387 126 451 q 218 280 175 323 q 320 218 262 237 q 447 208 379 199 m 527 208 q 653 218 595 199 q 756 280 712 237 q 824 386 799 322 q 849 531 849 451 q 824 675 849 611 q 756 783 799 739 q 653 847 712 828 q 527 857 595 867 l 527 208 z "},"Х":{"ha":819,"x_min":14,"x_max":805,"o":"m 14 0 l 363 507 l 22 1000 l 119 1000 l 409 573 l 700 1000 l 797 1000 l 456 507 l 805 0 l 708 0 l 409 440 l 110 0 l 14 0 z "},"Ч":{"ha":885,"x_min":97,"x_max":788,"o":"m 707 0 l 707 478 l 735 433 q 617 377 686 399 q 457 356 547 356 q 247 403 326 356 q 132 534 167 451 q 97 725 97 618 l 97 1000 l 178 1000 l 178 756 q 193 620 178 680 q 243 520 209 561 q 330 457 276 478 q 458 436 383 436 q 625 465 555 436 q 729 526 695 493 l 707 445 l 707 1000 l 788 1000 l 788 0 l 707 0 z "},"Ц":{"ha":979,"x_min":97,"x_max":965,"o":"m 885 -120 l 885 0 l 97 0 l 97 1000 l 177 1000 l 177 76 l 781 76 l 781 995 l 861 995 l 861 76 l 965 76 l 965 -120 l 885 -120 z "},"Ш":{"ha":1241,"x_min":97,"x_max":1144,"o":"m 97 0 l 97 1000 l 177 1000 l 177 78 l 581 78 l 581 1000 l 660 1000 l 660 78 l 1063 78 l 1063 1000 l 1144 1000 l 1144 0 l 97 0 z "},"Щ":{"ha":1262,"x_min":97,"x_max":1248,"o":"m 1168 -120 l 1168 0 l 1071 0 l 1071 76 l 1248 76 l 1248 -120 l 1168 -120 m 97 0 l 97 1000 l 177 1000 l 177 78 l 581 78 l 581 1000 l 660 1000 l 660 78 l 1063 78 l 1063 1000 l 1144 1000 l 1144 0 l 97 0 z "},"Џ":{"ha":1002,"x_min":97,"x_max":905,"o":"m 461 -167 l 461 0 l 97 0 l 97 1000 l 177 1000 l 177 78 l 825 78 l 825 1000 l 905 1000 l 905 0 l 541 0 l 541 -167 l 461 -167 z "},"Ь":{"ha":837,"x_min":97,"x_max":781,"o":"m 97 0 l 97 1000 l 177 1000 l 177 610 l 474 610 q 506 609 489 610 q 541 605 522 608 q 670 551 616 593 q 752 445 724 509 q 781 305 781 382 q 753 165 781 228 q 670 59 724 101 q 541 6 617 17 q 506 1 522 3 q 474 0 489 0 l 97 0 m 177 78 l 473 78 q 501 79 485 78 q 534 84 518 81 q 625 128 589 95 q 679 207 661 161 q 697 305 697 253 q 679 403 697 356 q 625 482 661 449 q 534 526 589 515 q 501 531 518 530 q 473 532 485 532 l 177 532 l 177 78 z "},"Ъ":{"ha":840,"x_min":-12,"x_max":800,"o":"m 116 0 l 116 927 l -12 927 l -12 1000 l 196 1000 l 196 610 l 493 610 q 524 609 508 610 q 560 605 541 608 q 689 551 635 593 q 771 445 742 509 q 800 305 800 382 q 772 165 800 228 q 689 59 743 101 q 560 6 635 17 q 524 1 541 3 q 493 0 508 0 l 116 0 m 196 78 l 492 78 q 520 79 503 78 q 553 84 537 81 q 644 128 608 95 q 698 207 680 161 q 716 305 716 253 q 698 403 716 356 q 644 482 680 449 q 553 526 608 515 q 520 531 537 530 q 492 532 503 532 l 196 532 l 196 78 z "},"Ы":{"ha":1056,"x_min":97,"x_max":959,"o":"m 97 0 l 97 1000 l 177 1000 l 177 610 l 474 610 q 506 609 489 610 q 541 605 522 608 q 670 551 616 593 q 752 445 724 509 q 781 305 781 382 q 753 165 781 228 q 670 59 724 101 q 541 6 617 17 q 506 1 522 3 q 474 0 489 0 l 97 0 m 177 78 l 473 78 q 501 79 485 78 q 534 84 518 81 q 625 128 589 95 q 679 207 661 161 q 697 305 697 253 q 679 403 697 356 q 625 482 661 449 q 534 526 589 515 q 501 531 518 530 q 473 532 485 532 l 177 532 l 177 78 m 878 0 l 878 1000 l 958 1000 l 958 0 l 878 0 z "},"Љ":{"ha":1509,"x_min":14,"x_max":1453,"o":"m 769 0 l 769 1000 l 849 1000 l 849 610 l 1147 610 q 1178 609 1161 610 q 1213 605 1194 608 q 1342 551 1288 593 q 1425 445 1396 509 q 1453 305 1453 382 q 1425 165 1453 228 q 1343 59 1397 101 q 1213 6 1289 17 q 1178 1 1194 3 q 1147 0 1161 0 l 769 0 m 849 78 l 1145 78 q 1174 79 1157 78 q 1206 84 1190 81 q 1297 128 1261 95 q 1351 207 1333 161 q 1369 305 1369 253 q 1351 403 1369 356 q 1297 482 1333 449 q 1206 526 1261 515 q 1174 531 1190 530 q 1145 532 1157 532 l 849 532 l 849 78 m 14 0 l 14 75 q 80 77 54 70 q 121 108 105 83 q 148 181 137 132 q 172 313 160 231 q 193 470 184 393 q 209 630 202 548 q 222 802 216 711 q 231 1000 227 893 l 849 1000 l 849 0 l 769 0 l 769 922 l 311 922 q 301 764 306 842 q 290 606 297 685 q 275 444 284 527 q 253 269 267 361 q 230 148 243 204 q 191 51 216 91 q 124 -3 166 12 q 14 0 81 -18 z "},"Њ":{"ha":1449,"x_min":97,"x_max":1394,"o":"m 97 0 l 97 1000 l 177 1000 l 177 610 l 757 610 l 757 532 l 177 532 l 177 0 l 97 0 m 710 0 l 710 1000 l 790 1000 l 790 610 l 1087 610 q 1118 609 1101 610 q 1154 605 1135 608 q 1283 551 1229 593 q 1365 445 1337 509 q 1394 305 1394 382 q 1365 165 1394 228 q 1283 59 1337 101 q 1154 6 1229 17 q 1118 1 1135 3 q 1087 0 1101 0 l 710 0 m 790 78 l 1085 78 q 1115 79 1098 78 q 1147 84 1131 81 q 1238 128 1201 95 q 1292 207 1274 161 q 1310 305 1310 253 q 1292 403 1310 356 q 1238 482 1274 449 q 1147 526 1201 515 q 1115 531 1131 530 q 1085 532 1098 532 l 790 532 l 790 78 z "},"Ѕ":{"ha":837,"x_min":44,"x_max":793,"o":"m 437 -21 q 252 13 334 -21 q 116 110 169 47 q 44 258 62 172 l 126 272 q 236 115 151 172 q 439 57 320 57 q 581 83 519 57 q 678 155 643 108 q 713 265 713 202 q 696 340 713 310 q 654 391 680 371 q 599 423 628 410 q 544 442 570 435 l 293 517 q 204 554 243 532 q 138 605 165 576 q 97 670 111 633 q 83 752 83 707 q 126 893 83 833 q 244 987 169 953 q 417 1021 319 1021 q 594 984 516 1020 q 723 883 673 949 q 788 728 774 818 l 706 714 q 656 834 696 783 q 554 914 616 885 q 417 942 492 942 q 288 918 344 943 q 200 851 232 893 q 168 755 168 808 q 198 666 168 699 q 273 615 228 633 q 357 584 317 596 l 558 524 q 626 501 587 516 q 704 457 666 485 q 768 383 742 429 q 793 267 793 337 q 767 147 793 200 q 694 56 742 93 q 581 -1 646 19 q 437 -21 515 -21 z "},"Є":{"ha":992,"x_min":62,"x_max":950,"o":"m 517 -21 q 267 49 369 -21 q 114 236 165 118 q 65 500 62 354 q 120 773 67 656 q 272 956 172 890 q 517 1021 372 1021 q 798 931 684 1021 q 950 676 913 840 l 868 663 q 748 866 840 792 q 519 942 656 940 q 324 892 404 943 q 200 749 244 840 q 151 539 157 658 l 522 539 l 522 461 l 151 461 q 172 319 154 388 q 238 186 190 251 q 361 90 288 120 q 519 58 434 59 q 738 126 646 56 q 864 321 829 197 l 943 299 q 858 127 918 199 q 712 17 799 56 q 517 -21 625 -21 z "},"Э":{"ha":969,"x_min":42,"x_max":930,"o":"m 474 -21 q 280 17 367 -21 q 133 127 193 56 q 49 299 74 199 l 128 321 q 255 126 163 197 q 472 58 346 56 q 631 90 558 59 q 754 186 705 120 q 820 319 803 251 q 841 461 838 388 l 470 461 l 470 539 l 841 539 q 791 749 835 658 q 668 892 748 840 q 472 942 588 943 q 244 866 335 940 q 124 663 153 792 l 42 676 q 194 931 79 840 q 474 1021 309 1021 q 720 956 620 1021 q 872 773 820 890 q 927 500 924 656 q 878 236 930 354 q 725 49 827 118 q 474 -21 623 -21 z "},"І":{"ha":302,"x_min":111,"x_max":191,"o":"m 111 0 l 111 1000 l 191 1000 l 191 0 l 111 0 z "},"Ї":{"ha":302,"x_min":-26,"x_max":328,"o":"m 231 1156 l 231 1253 l 328 1253 l 328 1156 l 231 1156 m -26 1156 l -26 1253 l 71 1253 l 71 1156 l -26 1156 m 111 0 l 111 1000 l 191 1000 l 191 0 l 111 0 z "},"Ј":{"ha":627,"x_min":0,"x_max":515,"o":"m 258 -19 q 93 35 163 -19 q 0 179 23 89 l 81 198 q 144 99 95 139 q 259 58 192 58 q 344 78 301 58 q 411 144 387 98 q 431 213 428 176 q 434 301 434 249 l 434 1000 l 515 1000 l 515 301 q 514 228 515 261 q 507 164 513 194 q 483 102 500 133 q 389 11 448 41 q 258 -19 329 -19 z "},"Ћ":{"ha":885,"x_min":0,"x_max":788,"o":"m 0 924 l 0 1000 l 396 1000 l 396 924 l 0 924 m 178 1000 l 178 522 l 149 567 q 268 623 199 601 q 428 644 338 644 q 638 597 559 644 q 752 466 717 549 q 788 275 788 382 l 788 0 l 707 0 l 707 244 q 691 380 707 321 q 642 480 676 439 q 555 543 608 522 q 426 564 501 564 q 260 536 330 564 q 156 474 190 508 l 178 555 l 178 0 l 97 0 l 97 1000 l 178 1000 z "},"Ю":{"ha":1260,"x_min":97,"x_max":1219,"o":"m 97 0 l 97 1000 l 177 1000 l 177 540 l 476 540 l 476 460 l 177 460 l 177 0 l 97 0 m 825 -21 q 651 22 725 -21 q 528 137 576 64 q 455 303 479 210 q 431 500 431 397 q 455 697 431 603 q 528 863 479 790 q 651 977 576 935 q 825 1019 725 1019 q 999 977 925 1019 q 1122 863 1073 935 q 1194 697 1170 790 q 1219 500 1219 603 q 1194 299 1219 393 q 1122 132 1170 204 q 999 20 1073 60 q 825 -21 925 -21 m 825 58 q 959 93 901 58 q 1055 190 1017 128 q 1113 332 1094 251 q 1133 500 1133 412 q 1115 668 1135 588 q 1057 809 1096 748 q 960 906 1018 871 q 825 942 901 942 q 690 906 748 942 q 594 809 633 871 q 537 668 556 748 q 516 500 517 588 q 534 332 515 412 q 592 190 553 251 q 690 93 631 128 q 825 58 748 58 z "},"Я":{"ha":863,"x_min":56,"x_max":765,"o":"m 765 0 l 685 0 l 685 390 l 328 390 l 305 399 q 140 503 199 421 q 81 695 81 585 q 110 835 81 772 q 192 941 138 899 q 321 994 246 983 q 357 999 340 998 q 388 1000 374 1000 l 765 1000 l 765 0 m 149 0 l 56 0 l 272 444 l 347 407 l 149 0 m 685 468 l 685 922 l 390 922 q 361 921 378 922 q 328 916 344 919 q 238 872 274 905 q 183 793 201 839 q 165 695 165 747 q 183 597 165 644 q 238 518 201 551 q 328 474 274 485 q 361 469 344 471 q 390 468 378 468 l 685 468 z "},"Ђ":{"ha":883,"x_min":0,"x_max":828,"o":"m 99 0 l 99 924 l 0 924 l 0 1000 l 396 1000 l 396 924 l 172 924 l 172 634 q 294 738 217 705 q 472 771 372 771 q 735 677 642 771 q 828 393 828 583 q 791 188 828 276 q 677 50 753 99 q 483 0 600 0 l 483 81 q 627 119 569 81 q 717 228 686 157 q 747 401 747 300 q 715 567 747 503 q 620 661 683 631 q 467 692 558 692 q 292 650 361 692 q 197 519 224 608 q 183 427 185 475 q 180 335 180 380 l 180 0 l 99 0 z "},"Ү":{"ha":747,"x_min":0,"x_max":747,"o":"m 333 0 l 333 422 l 0 1000 l 92 1000 l 374 514 l 654 1000 l 747 1000 l 414 422 l 414 0 l 333 0 z "},"Һ":{"ha":885,"x_min":97,"x_max":788,"o":"m 178 1000 l 178 522 l 149 567 q 268 623 199 601 q 428 644 338 644 q 638 597 559 644 q 752 466 717 549 q 788 275 788 382 l 788 0 l 707 0 l 707 244 q 691 380 707 321 q 642 480 676 439 q 555 543 608 522 q 426 564 501 564 q 260 536 330 564 q 156 474 190 508 l 178 555 l 178 0 l 97 0 l 97 1000 l 178 1000 z "},"Ө":{"ha":1020,"x_min":42,"x_max":951,"o":"m 109 460 l 109 540 l 903 540 l 903 460 l 109 460 m 497 -21 q 246 45 347 -21 q 93 229 144 112 q 42 500 42 347 q 93 771 42 653 q 246 955 144 888 q 497 1021 347 1021 q 747 955 646 1021 q 899 771 848 888 q 951 500 951 653 q 899 229 951 347 q 747 45 848 112 q 497 -21 646 -21 m 497 58 q 701 114 619 57 q 824 270 783 170 q 865 500 865 370 q 824 730 865 630 q 701 886 783 830 q 497 942 619 942 q 292 887 374 943 q 169 730 210 831 q 127 500 128 630 q 167 270 126 370 q 291 114 208 171 q 497 58 374 58 z "},"а":{"ha":763,"x_min":56,"x_max":679,"o":"m 314 -21 q 170 10 227 -21 q 84 91 113 40 q 56 200 56 141 q 82 307 56 264 q 154 376 109 350 q 253 416 199 403 q 386 440 315 430 q 523 458 458 450 q 628 471 588 465 l 599 453 q 554 634 602 575 q 384 694 506 694 q 243 655 299 694 q 166 536 188 617 l 84 559 q 188 716 110 661 q 387 771 265 771 q 561 731 490 771 q 659 617 631 690 q 675 548 671 588 q 679 467 679 508 l 679 0 l 606 0 l 606 197 l 633 190 q 515 34 599 89 q 314 -21 430 -21 m 318 53 q 452 80 394 53 q 545 157 510 108 q 591 274 581 207 q 599 356 598 312 q 599 420 599 399 l 634 398 q 526 386 589 392 q 398 371 463 380 q 280 348 333 362 q 214 322 247 339 q 159 275 181 305 q 138 199 138 245 q 155 131 138 165 q 211 75 172 97 q 318 53 251 53 z "},"б":{"ha":803,"x_min":55,"x_max":747,"o":"m 394 -21 q 215 24 290 -21 q 99 159 140 68 q 56 392 58 251 q 60 519 55 451 q 76 649 66 588 q 98 747 86 710 q 148 845 115 799 q 228 919 182 890 q 324 963 269 947 q 439 989 379 979 q 556 1005 499 998 q 659 1021 613 1011 l 669 947 q 578 933 631 940 q 468 917 526 926 q 358 892 410 908 q 267 853 305 877 q 178 745 209 818 q 139 575 147 672 q 256 681 182 644 q 418 717 329 717 q 593 671 519 717 q 707 541 667 624 q 747 348 747 458 q 705 153 747 236 q 583 24 663 70 q 394 -21 504 -22 m 401 57 q 595 136 529 57 q 662 348 662 216 q 593 561 662 483 q 400 639 524 639 q 209 561 276 639 q 142 348 142 483 q 208 135 142 213 q 401 57 275 57 z "},"в":{"ha":733,"x_min":97,"x_max":692,"o":"m 97 0 l 97 750 l 395 750 q 449 748 415 750 q 515 737 483 745 q 618 667 581 720 q 655 544 655 615 q 644 475 655 507 q 612 419 633 444 q 590 398 602 408 q 565 383 577 389 q 613 362 586 379 q 672 296 653 337 q 692 201 692 255 q 655 76 692 124 q 558 12 617 28 q 498 2 530 3 q 440 0 466 0 l 97 0 m 178 72 l 438 72 q 476 75 452 72 q 517 81 499 77 q 586 127 565 92 q 607 203 607 161 q 574 293 607 258 q 485 335 542 328 q 452 338 469 338 q 419 338 434 338 l 178 338 l 178 72 m 178 411 l 411 411 q 451 414 428 411 q 492 422 474 416 q 551 470 532 436 q 571 542 571 503 q 550 618 571 586 q 490 665 529 651 q 432 675 462 674 q 394 677 401 677 l 178 677 l 178 411 z "},"г":{"ha":639,"x_min":97,"x_max":604,"o":"m 97 0 l 97 750 l 604 750 l 604 672 l 177 672 l 177 0 l 97 0 z "},"ѓ":{"ha":639,"x_min":97,"x_max":604,"o":"m 335 872 l 261 872 l 336 1073 l 410 1073 l 335 872 m 97 0 l 97 750 l 604 750 l 604 672 l 177 672 l 177 0 l 97 0 z "},"ґ":{"ha":639,"x_min":97,"x_max":604,"o":"m 97 0 l 97 750 l 524 750 l 524 870 l 604 870 l 604 672 l 177 672 l 177 0 l 97 0 z "},"д":{"ha":815,"x_min":42,"x_max":773,"o":"m 42 -167 l 42 73 q 135 114 106 73 q 182 242 164 155 q 202 369 194 301 q 216 528 210 437 q 228 750 222 620 l 703 750 l 703 73 l 773 73 l 773 -167 l 695 -167 l 695 0 l 120 0 l 120 -167 l 42 -167 m 198 73 l 622 73 l 622 677 l 305 677 q 298 556 302 620 q 288 428 294 492 q 275 308 283 364 q 257 210 267 251 q 233 129 246 164 q 198 73 221 94 z "},"е":{"ha":804,"x_min":56,"x_max":750,"o":"m 406 -21 q 220 27 299 -21 q 99 164 142 76 q 56 374 56 253 q 98 586 56 497 q 219 723 141 675 q 405 771 297 771 q 591 721 514 771 q 709 578 669 672 q 748 352 750 484 l 665 352 l 665 380 q 595 615 661 534 q 406 695 529 695 q 210 611 279 695 q 141 375 141 528 q 210 140 141 224 q 405 57 279 57 q 557 98 492 57 q 660 214 622 138 l 732 182 q 601 32 687 85 q 406 -21 516 -21 m 110 352 l 110 424 l 703 424 l 703 352 l 110 352 z "},"ѐ":{"ha":804,"x_min":56,"x_max":750,"o":"m 380 872 l 305 1073 l 380 1073 l 454 872 l 380 872 m 406 -21 q 220 27 299 -21 q 99 164 142 76 q 56 374 56 253 q 98 586 56 497 q 219 723 141 675 q 405 771 297 771 q 591 721 514 771 q 709 578 669 672 q 748 352 750 484 l 665 352 l 665 380 q 595 615 661 534 q 406 695 529 695 q 210 611 279 695 q 141 375 141 528 q 210 140 141 224 q 405 57 279 57 q 557 98 492 57 q 660 214 622 138 l 732 182 q 601 32 687 85 q 406 -21 516 -21 m 110 352 l 110 424 l 703 424 l 703 352 l 110 352 z "},"ё":{"ha":804,"x_min":56,"x_max":750,"o":"m 485 906 l 485 1003 l 582 1003 l 582 906 l 485 906 m 227 906 l 227 1003 l 324 1003 l 324 906 l 227 906 m 406 -21 q 220 27 299 -21 q 99 164 142 76 q 56 374 56 253 q 98 586 56 497 q 219 723 141 675 q 405 771 297 771 q 591 721 514 771 q 709 578 669 672 q 748 352 750 484 l 665 352 l 665 380 q 595 615 661 534 q 406 695 529 695 q 210 611 279 695 q 141 375 141 528 q 210 140 141 224 q 405 57 279 57 q 557 98 492 57 q 660 214 622 138 l 732 182 q 601 32 687 85 q 406 -21 516 -21 m 110 352 l 110 424 l 703 424 l 703 352 l 110 352 z "}}}
